<svg width="16" height="16" viewBox="0 0 16 16" fill="none" xmlns="http://www.w3.org/2000/svg">
<path d="M10 10H16V16H10V10Z" fill="#9AA7B0"/>
<path fill-rule="evenodd" clip-rule="evenodd" d="M11.6512 2.48667C10.6363 2.36015 9.08239 2.36015 7.30644 3.30909C6.70389 2.67646 6.10134 2.0122 5.49879 1.31631C6.16477 1.09489 6.83075 1 7.49672 1C8.98725 1 10.4778 1.5061 11.6512 2.48667ZM4.35759 5.68136C4.00875 5.58646 3.62819 5.6181 3.27934 5.74462C2.7085 4.511 2.74021 3.4988 2.83535 2.9927C3.0442 2.75464 3.25304 2.57257 3.48828 2.36748L3.48829 2.36747L3.48829 2.36747L3.53305 2.32844C3.88189 2.07539 4.26245 1.85397 4.64301 1.66418C5.087 2.42333 5.68955 3.15085 6.38724 3.87837C5.8164 4.25795 5.18214 4.79568 4.57958 5.42831C4.54787 5.47575 4.50823 5.51529 4.46859 5.55483C4.42895 5.59437 4.3893 5.63391 4.35759 5.68136ZM2.39145 8.78119C1.85232 8.05367 1.85232 7.10473 2.39145 6.40884C1.94746 5.33338 1.97918 4.4477 2.13774 3.81507C0.64722 5.99763 0.583794 8.93935 2.16946 11.1852C2.20117 10.5209 2.29631 9.76176 2.55002 8.93935C2.50906 8.91892 2.48133 8.8853 2.44974 8.84702L2.44973 8.84701C2.4324 8.82601 2.41392 8.8036 2.39145 8.78119ZM10.6682 6.56685C10.0022 5.99749 9.27283 5.3016 8.51171 4.54245C10.5174 3.47368 12.0232 3.42583 12.4724 3.41155C12.5416 3.40935 12.5858 3.40795 12.6027 3.40372C12.6027 3.43535 12.6344 3.46698 12.6662 3.49862C13.9127 5.1149 14.2711 7.15878 13.8018 9H13.6454C13.4055 8.82166 13.0916 8.58807 12.6662 8.24331C12.8247 7.83211 12.793 7.32601 12.4759 6.9148C12.0319 6.37707 11.2708 6.21891 10.6682 6.56685ZM12.4911 9C12.4062 8.94093 12.3166 8.87846 12.2221 8.81247C12.2855 8.8441 12.2538 8.87573 12.2221 8.90736C12.179 8.9413 12.1344 8.97216 12.0887 9H12.4911ZM10.6543 9C10.5045 8.91255 10.3686 8.79676 10.2559 8.65431C9.93875 8.21147 9.90704 7.67374 10.0973 7.19927C9.27277 6.56664 8.41651 5.83912 7.59197 5.1116C7.05284 5.45955 6.482 5.93402 5.87945 6.47175L5.65746 6.69317C5.97459 7.3258 5.94288 8.08495 5.56232 8.65431C5.62574 8.70176 5.68124 8.74921 5.73674 8.79665C5.79224 8.8441 5.84774 8.89155 5.91116 8.93899C6.51372 9.41346 7.11627 9.79304 7.65539 10.1094C8.08118 9.84982 8.59518 9.83667 9 10.0699V9H10.6543ZM9 12.3617C8.45727 12.6355 7.79412 12.4779 7.40246 11.9756C7.21218 11.6909 7.11704 11.3746 7.14875 11.0583C6.51448 10.742 5.88022 10.3624 5.24595 9.85629C5.15081 9.77721 5.0636 9.70604 4.97639 9.63487C4.88918 9.5637 4.80197 9.49253 4.70683 9.41345C4.42141 9.53998 4.10428 9.57161 3.78714 9.57161C3.34316 10.742 3.27973 11.8174 3.34316 12.5133C4.51655 13.4939 6.00707 14 7.4976 14C8.00514 14 8.50848 13.9414 9 13.8242V12.3617Z" fill="#40B6E0" fill-opacity="0.7"/>
</svg>
