<svg width="16" height="16" viewBox="0 0 16 16" fill="none" xmlns="http://www.w3.org/2000/svg">
<path d="M6.003 13.7359V6.26594C6.003 4.87894 7.711 4.01695 10.46 4.01695C10.946 4.01695 11.585 4.04895 12 4.09595V2.64195C12 1.77795 9.554 1.04395 6.747 1.04395C3.94 1.04395 2 1.77795 2 2.64195V13.1769C2 14.0549 3.825 14.7649 6.49 14.8089C6.183 14.5069 6.003 14.1509 6.003 13.7359ZM3.5 2.64195C3.5 2.16695 5.054 1.77795 6.954 1.77795C8.854 1.77795 10.365 2.16695 10.365 2.64195C10.365 3.11695 8.811 3.50595 6.954 3.50595C5.098 3.50595 3.5 3.11695 3.5 2.64195Z" fill="#40B6E0" fill-opacity="0.6"/>
<path d="M10.499 6.95985C9.13899 6.95985 7.99899 6.65785 7.99899 6.35585C7.99899 6.01085 9.13899 5.75185 10.499 5.75185C11.859 5.75185 12.999 6.05385 12.999 6.35585C12.999 6.65785 11.815 6.95985 10.499 6.95985ZM8.08599 14.1708L9.97499 11.0158L7.97699 10.9858L12.033 7.19785L13.017 7.04885L11.228 9.97185H12.898L9.04999 14.1768L8.08599 14.1708ZM10.46 5.01685C8.43099 5.01685 7.00299 5.57585 7.00299 6.26585V13.7358C7.00299 14.3398 8.38699 14.8608 10.46 14.8608C12.533 14.8608 14 14.3428 14 13.6948V6.13885C14 5.49185 12.447 5.01685 10.46 5.01685Z" fill="#40B6E0" fill-opacity="0.6"/>
</svg>
