<svg width="16" height="16" viewBox="0 0 16 16" fill="none" xmlns="http://www.w3.org/2000/svg">
<path d="M6.003 13.7359V6.26594C6.003 4.87894 7.711 4.01695 10.46 4.01695C10.946 4.01695 11.585 4.04895 12 4.09595V2.64195C12 1.77795 9.554 1.04395 6.747 1.04395C3.94 1.04395 2 1.77795 2 2.64195V13.1769C2 14.0549 3.825 14.7649 6.49 14.8089C6.183 14.5069 6.003 14.1509 6.003 13.7359ZM3.5 2.64195C3.5 2.16695 5.054 1.77795 6.954 1.77795C8.854 1.77795 10.365 2.16695 10.365 2.64195C10.365 3.11695 8.811 3.50595 6.954 3.50595C5.098 3.50595 3.5 3.11695 3.5 2.64195Z" fill="#40B6E0" fill-opacity="0.7"/>
<path d="M16 10H10V16H16V10Z" fill="#9AA7B0"/>
<path fill-rule="evenodd" clip-rule="evenodd" d="M7.99899 6.35597C7.99899 6.65797 9.13899 6.95997 10.499 6.95997C11.815 6.95997 12.999 6.65797 12.999 6.35597C12.999 6.05397 11.859 5.75197 10.499 5.75197C9.13899 5.75197 7.99899 6.01097 7.99899 6.35597ZM9 12.6444L8.08599 14.171L9 14.1767V14.7637C7.76292 14.5855 7.00299 14.1835 7.00299 13.736V6.26597C7.00299 5.57597 8.43099 5.01697 10.46 5.01697C12.447 5.01697 14 5.49197 14 6.13897V9H11.8229L13.017 7.04897L12.033 7.19797L10.1035 9H9V10.0306L7.97699 10.986L9 11.0013V12.6444Z" fill="#40B6E0" fill-opacity="0.7"/>
</svg>
