<svg width="16" height="16" viewBox="0 0 16 16" fill="none" xmlns="http://www.w3.org/2000/svg">
<path fill-rule="evenodd" clip-rule="evenodd" d="M4.2 4.9L3 4L0 8L3 12L4.2 11.099L1.875 8L4.2 4.9Z" fill="#40B6E0" fill-opacity="0.8"/>
<path d="M7.2 7L11 7.5L5.6 15H4.8L7.188 9L4 8.5L7.2 1H12L7.2 7Z" fill="#F4AF3D" fill-opacity="0.7"/>
<path fill-rule="evenodd" clip-rule="evenodd" d="M15.7571 8.32498L16 8.001L13 4L11.8 4.901L13.7563 7.50939C14.4928 7.56345 15.1932 7.8492 15.7571 8.32498Z" fill="#40B6E0" fill-opacity="0.8"/>
<path d="M12.875 16H14.125V14.75H12.875V16ZM13.5 8.5C12.837 8.5 12.2011 8.76339 11.7322 9.23223C11.2634 9.70107 11 10.337 11 11H12.25C12.25 10.312 12.813 9.75 13.5 9.75C14.188 9.75 14.75 10.313 14.75 11C14.75 12.25 12.875 12.094 12.875 14.125H14.125C14.125 12.719 16 12.562 16 11C16 10.337 15.7366 9.70107 15.2678 9.23223C14.7989 8.76339 14.163 8.5 13.5 8.5Z" fill="#AFB1B3"/>
</svg>
