<svg width="16" height="16" viewBox="0 0 16 16" fill="none" xmlns="http://www.w3.org/2000/svg">
<path d="M16 13C16 14.6569 14.6569 16 13 16C11.3431 16 10 14.6569 10 13C10 11.3431 11.3431 10 13 10C14.6569 10 16 11.3431 16 13Z" fill="#62B543"/>
<path fill-rule="evenodd" clip-rule="evenodd" d="M11.6512 2.48667C10.6363 2.36015 9.08239 2.36015 7.30644 3.30909C6.70389 2.67646 6.10134 2.0122 5.49879 1.31631C6.16477 1.09489 6.83075 1 7.49672 1C8.98725 1 10.4778 1.5061 11.6512 2.48667ZM4.35759 5.68136C4.00875 5.58646 3.62819 5.6181 3.27934 5.74462C2.7085 4.511 2.74021 3.4988 2.83535 2.9927C3.0442 2.75464 3.25304 2.57257 3.48828 2.36748L3.48829 2.36747L3.48829 2.36747L3.53305 2.32844C3.88189 2.07539 4.26245 1.85397 4.64301 1.66418C5.087 2.42333 5.68955 3.15085 6.38724 3.87837C5.8164 4.25795 5.18214 4.79568 4.57958 5.42831C4.54787 5.47575 4.50823 5.51529 4.46859 5.55483C4.42895 5.59437 4.3893 5.63391 4.35759 5.68136ZM2.39145 8.78119C1.85232 8.05367 1.85232 7.10473 2.39145 6.40884C1.94746 5.33338 1.97918 4.4477 2.13774 3.81507C0.64722 5.99763 0.583794 8.93935 2.16946 11.1852C2.20117 10.5209 2.29631 9.76176 2.55002 8.93935C2.50906 8.91892 2.48133 8.8853 2.44974 8.84702C2.43241 8.82601 2.41392 8.8036 2.39145 8.78119ZM10.6682 6.56685C10.0022 5.99749 9.27283 5.3016 8.51171 4.54245C10.5174 3.47368 12.0232 3.42583 12.4724 3.41155C12.5416 3.40935 12.5858 3.40795 12.6027 3.40372C12.6027 3.43535 12.6344 3.46698 12.6662 3.49862C13.9299 5.13728 14.2809 7.21547 13.7818 9.07636C13.7667 9.07336 13.7515 9.07045 13.7363 9.06762C13.7086 9.04696 13.6798 9.02555 13.6498 9.00327C13.4094 8.82452 13.0942 8.59018 12.6662 8.24331C12.8247 7.83211 12.793 7.32601 12.4759 6.9148C12.0319 6.37707 11.2708 6.21891 10.6682 6.56685ZM12.5303 9.02729C12.4339 8.96026 12.3313 8.88871 12.2221 8.81247C12.2855 8.8441 12.2538 8.87573 12.2221 8.90736C11.6196 9.38183 10.7316 9.25531 10.2559 8.65431C9.93875 8.21147 9.90704 7.67374 10.0973 7.19927C9.27277 6.56664 8.41651 5.83912 7.59197 5.1116C7.05284 5.45955 6.482 5.93402 5.87945 6.47175L5.65746 6.69317C5.97459 7.3258 5.94288 8.08495 5.56232 8.65431C5.62574 8.70176 5.68124 8.74921 5.73674 8.79665C5.79224 8.8441 5.84774 8.89155 5.91116 8.93899C6.51372 9.41346 7.11627 9.79304 7.65539 10.1094C8.22623 9.76141 8.95564 9.8563 9.36791 10.394C9.49476 10.5522 9.55819 10.742 9.5899 10.9001C9.5913 10.9005 9.5927 10.901 9.5941 10.9014C10.2209 9.88632 11.2887 9.17252 12.5303 9.02729ZM9.05555 12.3319C8.5032 12.6459 7.80759 12.4951 7.40246 11.9756C7.21218 11.6909 7.11704 11.3746 7.14875 11.0583C6.51448 10.742 5.88022 10.3624 5.24595 9.85629C5.15081 9.77721 5.0636 9.70604 4.97639 9.63487C4.88918 9.5637 4.80197 9.49253 4.70683 9.41345C4.42141 9.53998 4.10428 9.57161 3.78714 9.57161C3.34316 10.742 3.27973 11.8174 3.34316 12.5133C4.51655 13.4939 6.00707 14 7.4976 14C8.03302 14 8.56378 13.9348 9.08091 13.8044C9.02786 13.5445 9 13.2755 9 13C9 12.7724 9.01902 12.5492 9.05555 12.3319Z" fill="#40B6E0" fill-opacity="0.7"/>
</svg>
