<svg width="16" height="16" viewBox="0 0 16 16" fill="none" xmlns="http://www.w3.org/2000/svg">
<path opacity="0.7" fill-rule="evenodd" clip-rule="evenodd" d="M14 4.5V4.50003L14 4.49998L14 4.5ZM8.49998 8.28719L14 5.07885V8.25606C13.5308 8.09023 13.026 8 12.5 8C10.7585 8 9.24809 8.98924 8.49998 10.4364V8.28719ZM8.49998 14.5636V14.7083L8.55899 14.6739C8.53883 14.6374 8.51915 14.6007 8.49998 14.5636ZM7.49998 8.28719V14.7083L2 11.5V5.07887L7.49998 8.28719ZM7.99998 7.42115L13.5038 4.21057L8 1L2.49615 4.21058L7.99998 7.42115Z" fill="#40B6E0"/>
<path fill-rule="evenodd" clip-rule="evenodd" d="M12.5 16C14.433 16 16 14.433 16 12.5C16 10.567 14.433 9 12.5 9C10.567 9 9 10.567 9 12.5C9 14.433 10.567 16 12.5 16ZM10.7322 11.4393L11.4393 10.7322L12.5 11.7929L13.5607 10.7323L14.2678 11.4394L13.2071 12.5L14.2678 13.5607L13.5607 14.2678L12.5 13.2071L11.4393 14.2678L10.7322 13.5607L11.7929 12.5L10.7322 11.4393Z" fill="#E05555"/>
</svg>
