<svg width="16" height="16" viewBox="0 0 16 16" fill="none" xmlns="http://www.w3.org/2000/svg">
<path opacity="0.7" fill-rule="evenodd" clip-rule="evenodd" d="M14 4.5V4.50003L14 4.49998L14 4.5ZM8.49998 8.28719L14 5.07885V9.12602C13.6804 9.04375 13.3453 9 13 9C10.7909 9 9 10.7909 9 13C9 13.4522 9.07503 13.8869 9.21333 14.2922L8.49998 14.7083V8.28719ZM7.49998 8.28719V14.7083L2 11.5V5.07887L7.49998 8.28719ZM7.99998 7.42115L13.5038 4.21057L8 1L2.49615 4.21058L7.99998 7.42115Z" fill="#62B543"/>
<path d="M16 13C16 14.6569 14.6569 16 13 16C11.3431 16 10 14.6569 10 13C10 11.3431 11.3431 10 13 10C14.6569 10 16 11.3431 16 13Z" fill="#62B543"/>
</svg>
