<svg width="16" height="16" viewBox="0 0 16 16" fill="none" xmlns="http://www.w3.org/2000/svg">
<path opacity="0.7" fill-rule="evenodd" clip-rule="evenodd" d="M14 4.5V4.50003L14 4.49998L14 4.5ZM8.49998 8.28719L14 5.07885V7.53588C13.8354 7.51212 13.6683 7.5 13.5 7.5C12.5717 7.5 11.6815 7.86875 11.0251 8.52513C10.3687 9.1815 10 10.0717 10 11V12L11.2088 13.1282L8.49998 14.7083V8.28719ZM7.49998 8.28719V14.7083L2 11.5V5.07887L7.49998 8.28719ZM7.99998 7.42115L13.5038 4.21057L8 1L2.49615 4.21058L7.99998 7.42115Z" fill="#62B543"/>
<path d="M12.875 16H14.125V14.75H12.875V16ZM13.5 8.5C12.837 8.5 12.2011 8.76339 11.7322 9.23223C11.2634 9.70107 11 10.337 11 11H12.25C12.25 10.312 12.813 9.75 13.5 9.75C14.188 9.75 14.75 10.313 14.75 11C14.75 12.25 12.875 12.094 12.875 14.125H14.125C14.125 12.719 16 12.562 16 11C16 10.337 15.7366 9.70107 15.2678 9.23223C14.7989 8.76339 14.163 8.5 13.5 8.5Z" fill="#AFB1B3"/>
</svg>
