<svg width="16" height="16" viewBox="0 0 16 16" fill="none" xmlns="http://www.w3.org/2000/svg">
<path fill-rule="evenodd" clip-rule="evenodd" d="M6.23187 5.52968L7.29253 6.59034L4.4641 9.41877L3.40344 8.35811L6.23187 5.52968Z" fill="#AFB1B3"/>
<path fill-rule="evenodd" clip-rule="evenodd" d="M4.11055 10.4794L5.52476 11.8936L1.98923 15.4292L0.575012 14.015L4.11055 10.4794Z" fill="#AFB1B3"/>
<path fill-rule="evenodd" clip-rule="evenodd" d="M9.41385 8.71166L10.4745 9.77232L7.64608 12.6007L6.58542 11.5401L9.41385 8.71166Z" fill="#AFB1B3"/>
<path d="M4.11055 13.3079C5.28212 14.4794 7.18161 14.4794 8.35319 13.3079L2.69633 7.651C1.52476 8.82258 1.52476 10.7221 2.69633 11.8936L4.11055 13.3079Z" fill="#AFB1B3"/>
<path fill-rule="evenodd" clip-rule="evenodd" d="M4.11055 6.23679L9.7674 11.8936L8.35319 13.3079L2.69633 7.651L4.11055 6.23679Z" fill="#AFB1B3"/>
<path fill-rule="evenodd" clip-rule="evenodd" d="M11.8887 5.5297L10.4745 4.11549L14.0101 0.579956L15.4243 1.99417L11.8887 5.5297Z" fill="#AFB1B3"/>
<path d="M11.8887 2.70128C10.7172 1.5297 8.81768 1.5297 7.6461 2.70128L13.303 8.35813C14.4745 7.18656 14.4745 5.28706 13.303 4.11549L11.8887 2.70128Z" fill="#AFB1B3"/>
<path fill-rule="evenodd" clip-rule="evenodd" d="M11.8887 9.77234L6.23189 4.11549L7.6461 2.70128L13.303 8.35813L11.8887 9.77234Z" fill="#AFB1B3"/>
</svg>
