<svg width="16" height="16" viewBox="0 0 16 16" fill="none" xmlns="http://www.w3.org/2000/svg">
<path d="M10.5 4.19604V7.10438L8 8.57105V5.65438L10.5 4.19604Z" fill="#40B6E0"/>
<path opacity="0.6" d="M10.5 4.19613L8 5.66279L5.5 4.19613L8 2.73779L10.5 4.19613Z" fill="#40B6E0"/>
<path opacity="0.7" d="M8 5.66271V8.57105L5.5 7.10438V4.19604L8 5.66271Z" fill="#40B6E0"/>
<path opacity="0.2" d="M5.5 7.10442L8 5.65442V8.57109L5.5 7.10442Z" fill="#40B6E0"/>
<path opacity="0.2" d="M10.5 7.10442L8 5.65442V8.57109L10.5 7.10442Z" fill="#40B6E0"/>
<path fill-rule="evenodd" clip-rule="evenodd" d="M15 1H1V10H7V11C7 11 6.93662 12.0634 6.5 12.5C6.06338 12.9366 5 13 5 13H4V14H8.25606C8.09023 13.5308 8 13.026 8 12.5C8 11.0864 8.65183 9.82498 9.67133 9H2V2H14V8.25606C14.356 8.3819 14.6915 8.55127 15 8.75777V1Z" fill="#9AA7B0" fill-opacity="0.8"/>
<path fill-rule="evenodd" clip-rule="evenodd" d="M12.5 16C14.433 16 16 14.433 16 12.5C16 10.567 14.433 9 12.5 9C10.567 9 9 10.567 9 12.5C9 14.433 10.567 16 12.5 16ZM10.7322 11.4393L11.4393 10.7322L12.5 11.7929L13.5607 10.7323L14.2678 11.4394L13.2071 12.5L14.2678 13.5607L13.5607 14.2678L12.5 13.2071L11.4393 14.2678L10.7322 13.5607L11.7929 12.5L10.7322 11.4393Z" fill="#E05555"/>
</svg>
