<svg width="16" height="16" viewBox="0 0 16 16" fill="none" xmlns="http://www.w3.org/2000/svg">
<path fill-rule="evenodd" clip-rule="evenodd" d="M8.02746 13H6V14L7 15H8.75777C8.36658 14.4156 8.10865 13.7344 8.02746 13Z" fill="#9AA7B0" fill-opacity="0.8"/>
<path fill-rule="evenodd" clip-rule="evenodd" d="M5.95845 1.40991C6.60159 1.13295 7.29753 0.993302 8 1.00025C8.70247 0.993302 9.39841 1.13295 10.0416 1.40991C10.6847 1.68687 11.2603 2.0948 11.7301 2.60658C12.1999 3.11836 12.5532 3.72227 12.7665 4.37816C12.9797 5.03405 13.048 5.72691 12.9669 6.41068C12.8947 7.01325 12.6547 7.52043 12.338 8.00287C11.4746 8.03342 10.6731 8.3072 10 8.75777V7V6C10.5523 6 11 5.55228 11 5C11 4.44772 10.5523 4 10 4C9.44772 4 9 4.44772 9 5V6H7V5C7 4.44772 6.55228 4 6 4C5.44772 4 5 4.44772 5 5C5 5.55228 5.44772 6 6 6V7V10H7V7H9V9.67133C8.47323 10.3223 8.12439 11.1232 8.02746 12H6.00414C6.00091 11.9899 5.99806 11.9797 5.99563 11.9693C5.7095 10.6595 5.00778 9.77077 4.35695 8.94646C3.72701 8.1486 3.14474 7.41112 3.03313 6.41068C2.95199 5.72691 3.02031 5.03405 3.23355 4.37816C3.44678 3.72227 3.80005 3.11836 4.26988 2.60658C4.7397 2.0948 5.31531 1.68687 5.95845 1.40991Z" fill="#B99BF8"/>
<path fill-rule="evenodd" clip-rule="evenodd" d="M12.5 16C14.433 16 16 14.433 16 12.5C16 10.567 14.433 9 12.5 9C10.567 9 9 10.567 9 12.5C9 14.433 10.567 16 12.5 16ZM10.7322 11.4393L11.4393 10.7322L12.5 11.7929L13.5607 10.7323L14.2678 11.4394L13.2071 12.5L14.2678 13.5607L13.5607 14.2678L12.5 13.2071L11.4393 14.2678L10.7322 13.5607L11.7929 12.5L10.7322 11.4393Z" fill="#E05555"/>
</svg>
