<svg width="16" height="16" viewBox="0 0 16 16" fill="none" xmlns="http://www.w3.org/2000/svg">
<path fill-rule="evenodd" clip-rule="evenodd" d="M9 13H6V14L7 15H9L9.3535 14.6465C9.12642 14.1444 9 13.5869 9 13Z" fill="#9AA7B0" fill-opacity="0.8"/>
<path fill-rule="evenodd" clip-rule="evenodd" d="M5.95845 1.40991C6.60159 1.13295 7.29753 0.993302 8 1.00025C8.70247 0.993302 9.39841 1.13295 10.0416 1.40991C10.6847 1.68687 11.2603 2.0948 11.7301 2.60658C12.1999 3.11836 12.5532 3.72227 12.7665 4.37816C12.9797 5.03405 13.048 5.72691 12.9669 6.41068C12.8474 7.40817 12.268 8.14424 11.6422 8.93939C11.5292 9.08291 11.4148 9.22835 11.3012 9.3776C10.2346 9.87868 9.42536 10.837 9.12602 12H6.00414C6.00091 11.9899 5.99806 11.9797 5.99563 11.9693C5.7095 10.6595 5.00778 9.77077 4.35695 8.94646C3.72701 8.1486 3.14474 7.41112 3.03313 6.41068C2.95199 5.72691 3.02031 5.03405 3.23355 4.37816C3.44678 3.72227 3.80005 3.11836 4.26988 2.60658C4.7397 2.0948 5.31531 1.68687 5.95845 1.40991ZM6 6C5.44772 6 5 5.55228 5 5C5 4.44772 5.44772 4 6 4C6.55228 4 7 4.44772 7 5V6H9V5C9 4.44772 9.44772 4 10 4C10.5523 4 11 4.44772 11 5C11 5.55228 10.5523 6 10 6V7V10H9V7H7V10H6V7V6Z" fill="#B99BF8"/>
<path d="M16 13C16 14.6569 14.6569 16 13 16C11.3431 16 10 14.6569 10 13C10 11.3431 11.3431 10 13 10C14.6569 10 16 11.3431 16 13Z" fill="#62B543"/>
</svg>
