<svg width="16" height="16" viewBox="0 0 16 16" fill="none" xmlns="http://www.w3.org/2000/svg">
<path d="M6 13H9V15H7L6 14V13Z" fill="#9AA7B0" fill-opacity="0.8"/>
<path fill-rule="evenodd" clip-rule="evenodd" d="M5.95845 1.40991C6.60159 1.13295 7.29753 0.993302 8 1.00025C8.70247 0.993302 9.39841 1.13295 10.0416 1.40991C10.6847 1.68687 11.2603 2.0948 11.7301 2.60658C12.1999 3.11836 12.5532 3.72227 12.7665 4.37816C12.9797 5.03405 13.048 5.72691 12.9669 6.41068C12.8474 7.40817 12.268 8.14424 11.6422 8.93939C11.6263 8.95956 11.6104 8.97976 11.5945 9H10V7V6C10.5523 6 11 5.55228 11 5C11 4.44772 10.5523 4 10 4C9.44772 4 9 4.44772 9 5V6H7V5C7 4.44772 6.55228 4 6 4C5.44772 4 5 4.44772 5 5C5 5.55228 5.44772 6 6 6V7V10H7V7H9V9V10V12H6.00414C6.00091 11.9899 5.99806 11.9797 5.99563 11.9693C5.7095 10.6595 5.00778 9.77077 4.35695 8.94646C3.72701 8.1486 3.14474 7.41112 3.03313 6.41068C2.95199 5.72691 3.02031 5.03405 3.23355 4.37816C3.44678 3.72227 3.80005 3.11836 4.26988 2.60658C4.7397 2.0948 5.31531 1.68687 5.95845 1.40991Z" fill="#B99BF8"/>
<path d="M10 10H16V16H10V10Z" fill="#9AA7B0"/>
</svg>
