<svg width="16" height="16" viewBox="0 0 16 16" fill="none" xmlns="http://www.w3.org/2000/svg">
<path d="M12.875 16H14.125V14.75H12.875V16ZM13.5 8.5C12.837 8.5 12.2011 8.76339 11.7322 9.23223C11.2634 9.70107 11 10.337 11 11H12.25C12.25 10.312 12.813 9.75 13.5 9.75C14.188 9.75 14.75 10.313 14.75 11C14.75 12.25 12.875 12.094 12.875 14.125H14.125C14.125 12.719 16 12.562 16 11C16 10.337 15.7366 9.70107 15.2678 9.23223C14.7989 8.76339 14.163 8.5 13.5 8.5Z" fill="#AFB1B3"/>
<path fill-rule="evenodd" clip-rule="evenodd" d="M10 13H6V14L7 15H9L10 14V13Z" fill="#9AA7B0" fill-opacity="0.8"/>
<path fill-rule="evenodd" clip-rule="evenodd" d="M5.95845 1.40991C6.60159 1.13295 7.29753 0.993302 8 1.00025C8.70247 0.993302 9.39841 1.13295 10.0416 1.40991C10.6847 1.68687 11.2603 2.0948 11.7301 2.60658C12.1999 3.11836 12.5532 3.72227 12.7665 4.37816C12.9797 5.03405 13.048 5.72691 12.9669 6.41068C12.9131 6.85947 12.7662 7.25534 12.564 7.62748C11.9872 7.78758 11.4558 8.09443 11.0251 8.52513C10.3687 9.1815 10 10.0717 10 11V11.9863C9.9987 11.9909 9.99732 11.9955 9.99586 12H6.00414C6.00091 11.9899 5.99806 11.9797 5.99563 11.9693C5.7095 10.6595 5.00778 9.77077 4.35695 8.94646C3.72701 8.1486 3.14474 7.41112 3.03313 6.41068C2.95199 5.72691 3.02031 5.03405 3.23355 4.37816C3.44678 3.72227 3.80005 3.11836 4.26988 2.60658C4.7397 2.0948 5.31531 1.68687 5.95845 1.40991ZM6 6C5.44772 6 5 5.55228 5 5C5 4.44772 5.44772 4 6 4C6.55228 4 7 4.44772 7 5V6H9V5C9 4.44772 9.44772 4 10 4C10.5523 4 11 4.44772 11 5C11 5.55228 10.5523 6 10 6V7V10H9V7H7V10H6V7V6Z" fill="#B99BF8"/>
</svg>
