<svg width="16" height="16" viewBox="0 0 16 16" fill="none" xmlns="http://www.w3.org/2000/svg">
<path d="M7.477 12.265L10.778 11.68L10.809 11.674L9.111 9.654C8.54189 8.97994 7.97588 8.30327 7.413 7.624C7.413 7.614 9.166 2.786 9.176 2.769C9.179 2.763 10.373 4.823 12.069 7.763L14.978 12.805L15 12.844H9.603L4.206 12.842L7.476 12.265H7.477ZM1 11.649C1 11.646 1.8 10.257 2.778 8.562L4.556 5.481L6.628 3.741C7.32032 3.15946 8.01365 2.57912 8.708 2C8.70021 2.02931 8.68879 2.05753 8.674 2.084L6.424 6.91L4.214 11.65L2.607 11.652C1.723 11.653 1 11.652 1 11.649Z" fill="#529FDB"/>
</svg>
