<svg width="16" height="16" viewBox="0 0 16 16" fill="none" xmlns="http://www.w3.org/2000/svg">
<path d="M3 11H13V12H3V11ZM3 9H13V10H3V9Z" fill="#62B543" fill-opacity="0.7"/>
<path d="M3 7H13V8H3V7Z" fill="#9AA7B0" fill-opacity="0.8"/>
<path d="M13.75 3H2.25C1.91848 3 1.60054 3.1317 1.36612 3.36612C1.1317 3.60054 1 3.91848 1 4.25V12.75C1 13.0815 1.1317 13.3995 1.36612 13.6339C1.60054 13.8683 1.91848 14 2.25 14H13.75C14.0815 14 14.3995 13.8683 14.6339 13.6339C14.8683 13.3995 15 13.0815 15 12.75V4.25C15 3.91848 14.8683 3.60054 14.6339 3.36612C14.3995 3.1317 14.0815 3 13.75 3ZM14 12.75C14 12.8163 13.9737 12.8799 13.9268 12.9268C13.8799 12.9737 13.8163 13 13.75 13H2.25C2.1837 13 2.12011 12.9737 2.07322 12.9268C2.02634 12.8799 2 12.8163 2 12.75V6H14V12.75Z" fill="#9AA7B0" fill-opacity="0.8"/>
</svg>
