<svg width="16" height="16" viewBox="0 0 16 16" fill="none" xmlns="http://www.w3.org/2000/svg">
<path fill-rule="evenodd" clip-rule="evenodd" d="M12.2335 7.74761L14.746 4.86499C14.98 4.59599 15.06 4.22899 14.957 3.88899C14.8726 3.62109 14.6863 3.39712 14.4382 3.26541C14.1901 3.13369 13.9002 3.10481 13.631 3.18499L9.83603 4.28899L8.13803 1.50899C7.97703 1.24299 7.70303 1.06299 7.39203 1.01299C6.81003 0.921988 6.26303 1.30999 6.17003 1.87999L5.57003 5.54299L1.74203 6.74099C1.53509 6.80302 1.35266 6.92808 1.22017 7.09873C1.08768 7.26937 1.01174 7.47711 1.00294 7.69297C0.994132 7.90883 1.0529 8.12206 1.17104 8.30293C1.28919 8.4838 1.46083 8.62331 1.66203 8.70199L4.71603 9.93199L4.25803 13.836C4.23848 14.0063 4.2616 14.1789 4.32531 14.3381C4.38903 14.4973 4.49134 14.6382 4.62303 14.748C4.83913 14.9286 5.11713 15.0178 5.39796 14.9967C5.6788 14.9756 5.94035 14.8459 6.12703 14.635L8 12.4948V10.3816L5.83403 12.846L6.27703 9.08599L3.15403 7.83399L6.86603 6.67699L7.44603 3.15399L9.19803 6.00999L12.846 4.95199L11.2498 6.77596L12.2335 7.74761Z" fill="#D2642C"/>
<path fill-rule="evenodd" clip-rule="evenodd" d="M14.833 13.122V13.423C14.833 13.633 14.797 13.832 14.746 14.026H15.714V14.929H14.28C14.0521 15.2103 13.7644 15.4374 13.4379 15.5937C13.1113 15.7501 12.7541 15.8318 12.392 15.833C12.0299 15.8318 11.6727 15.7501 11.3461 15.5937C11.0196 15.4374 10.7319 15.2103 10.504 14.929H9V14.026H10.037C9.9819 13.8296 9.95265 13.6269 9.95 13.423V13.122H9V12.218H9.95V11.615C9.95 11.512 9.968 11.415 9.98 11.315H9V10.41H10.291C10.5257 10.0151 10.8671 9.69446 11.276 9.485L10.418 8.639L11.066 8L12.296 9.215C12.328 9.214 12.325 9.209 12.357 9.209L12.424 9.214L13.65 8L14.297 8.64L13.464 9.462C13.894 9.672 14.251 10.002 14.493 10.41H15.715V11.314H14.803C14.816 11.414 14.833 11.512 14.833 11.615V12.218H15.715V13.122H14.834H14.833ZM11.35 11.357V12.197H13.364V11.357H11.35ZM11.35 13.036V13.875H13.364V13.035H11.35V13.036Z" fill="#59A869"/>
</svg>
