<svg width="17" height="17" viewBox="0 0 17 17" fill="none" xmlns="http://www.w3.org/2000/svg">
<path fill-rule="evenodd" clip-rule="evenodd" d="M5.75574 2V2.00391C5.28207 2.03824 4.87067 2.35319 4.71703 2.80843L1.05403 13.6617C0.832203 14.319 1.32107 15 2.01477 15H4.85843C5.29348 15 5.68005 14.7224 5.81917 14.3102L6.20197 13.176L7.76657 14.1786L8.18353 13.7616C8.13609 13.6265 8.10051 13.4881 8.07679 13.3481L4.0153 10.7455L4.01216 10.7505L3.99882 10.7401H6.5584H6.85355L6.96163 10.4654L7.85171 8.20345L8.82014 11.1018L9.50587 10.4194L6.9823 2.86665H10.0402C10.1035 2.86665 10.1596 2.90697 10.1798 2.96687L11.9576 8.23417C12.2303 8.12174 12.5187 8.05918 12.8089 8.04649L11.0009 2.68973C10.8618 2.27752 10.4753 2 10.0402 2H5.94374H5.75574Z" fill="#15C6FC" fill-opacity="0.7"/>
<path fill-rule="evenodd" clip-rule="evenodd" d="M13.9443 9.35072L13.9445 9.35084L15.005 8.29028L15.7121 8.99739L14.6516 10.0579C15.2372 10.6437 15.2372 11.5934 14.6515 12.1791L11.823 9.35072C12.4088 8.76493 13.3586 8.76493 13.9443 9.35072ZM11.6463 11.2952L11.116 10.7649L10.4089 11.472L10.0553 11.1184L9.34815 11.8255L9.70174 12.1791L10.2321 12.7094L11.2927 13.7701L12.1766 14.654L12.8837 13.9468L12.5301 13.5933L13.2372 12.8862L12.7069 12.3559L11.9998 13.0629L10.9392 12.0023L11.6463 11.2952ZM9.34813 13.947C8.76239 13.3612 8.76241 12.4115 9.34818 11.8257L12.1766 14.6542C11.5908 15.2399 10.6411 15.2399 10.0553 14.6542L10.0552 14.6541L8.99465 15.7147L8.28754 15.0076L9.34813 13.947ZM11.1159 10.0579L13.9443 12.8864L14.6515 12.1793L11.823 9.35083L11.1159 10.0579Z" fill="#40B6E0"/>
</svg>
