<svg width="16" height="16" viewBox="0 0 16 16" fill="none" xmlns="http://www.w3.org/2000/svg">
<path fill-rule="evenodd" clip-rule="evenodd" d="M8 1C4.136 1 1 4.136 1 8C1 11.864 4.136 15 8 15C11.864 15 15 11.864 15 8C15 4.136 11.864 1 8 1ZM7.3 13.551C5.94689 13.3823 4.70207 12.7249 3.79968 11.7026C2.89729 10.6804 2.39952 9.36359 2.4 8C2.4 7.566 2.456 7.153 2.547 6.747L5.9 10.1V10.8C5.9 11.57 6.53 12.2 7.3 12.2V13.551V13.551ZM12.13 11.773C12.0412 11.4901 11.8642 11.243 11.6249 11.068C11.3856 10.8929 11.0965 10.799 10.8 10.8H10.1V8.7C10.1 8.315 9.785 8 9.4 8H5.2V6.6H6.6C6.985 6.6 7.3 6.285 7.3 5.9V4.5H8.7C9.47 4.5 10.1 3.87 10.1 3.1V2.813C11.1332 3.23137 12.0181 3.9484 12.6416 4.87239C13.265 5.79638 13.5987 6.88534 13.6 8C13.6007 9.39755 13.076 10.7443 12.13 11.773V11.773Z" fill="#AFB1B3"/>
</svg>
