<svg width="16" height="16" viewBox="0 0 16 16" fill="none" xmlns="http://www.w3.org/2000/svg">
<path fill-rule="evenodd" clip-rule="evenodd" d="M7.5 3L5.5 2.25L3.5 2.75V5.25L5.5 5.75L7.5 5V3ZM3.8 5.01577L4.34998 5.15326V2.84674L3.8 2.98423V5.01577ZM5.2 5.36577L4.64998 5.22826V2.77174L5.2 2.63423V5.36577Z" fill="#B99BF8" fill-opacity="0.7"/>
<path fill-rule="evenodd" clip-rule="evenodd" d="M1 6.75V9.25L3 9.75L5 9V7L3 6.25L1 6.75ZM1.3 9.01577L1.84998 9.15326V6.84674L1.3 6.98423V9.01577ZM2.7 9.36577L2.14998 9.22826V6.77174L2.7 6.63423V9.36577Z" fill="#B99BF8" fill-opacity="0.7"/>
<path fill-rule="evenodd" clip-rule="evenodd" d="M6 6.75V9.25L8 9.75L10 9V7L8 6.25L6 6.75ZM6.3 9.01577L6.84998 9.15326V6.84674L6.3 6.98423V9.01577ZM7.7 9.36577L7.14998 9.22826V6.77174L7.7 6.63423V9.36577Z" fill="#B99BF8" fill-opacity="0.7"/>
<path fill-rule="evenodd" clip-rule="evenodd" d="M15 7L13 6.25L11 6.75V9.25L13 9.75L15 9V7ZM11.3 9.01577L11.85 9.15326V6.84674L11.3 6.98423V9.01577ZM12.7 9.36577L12.15 9.22826V6.77174L12.7 6.63423V9.36577Z" fill="#B99BF8" fill-opacity="0.7"/>
<path fill-rule="evenodd" clip-rule="evenodd" d="M7.5 11L5.5 10.25L3.5 10.75V13.25L5.5 13.75L7.5 13V11ZM3.8 13.0158L4.34998 13.1533V10.8467L3.8 10.9842V13.0158ZM5.2 13.3658L4.64998 13.2283V10.7717L5.2 10.6342V13.3658Z" fill="#B99BF8" fill-opacity="0.7"/>
<path fill-rule="evenodd" clip-rule="evenodd" d="M12.5 11L10.5 10.25L8.5 10.75V13.25L10.5 13.75L12.5 13V11ZM8.8 13.0158L9.34998 13.1533V10.8467L8.8 10.9842V13.0158ZM10.2 13.3658L9.64998 13.2283V10.7717L10.2 10.6342V13.3658Z" fill="#B99BF8" fill-opacity="0.7"/>
<path fill-rule="evenodd" clip-rule="evenodd" d="M12.5 3L10.5 2.25L8.5 2.75V5.25L10.5 5.75L12.5 5V3ZM8.8 5.01577L9.34998 5.15326V2.84674L8.8 2.98423V5.01577ZM10.2 5.36577L9.64998 5.22826V2.77174L10.2 2.63423V5.36577Z" fill="#B99BF8" fill-opacity="0.7"/>
</svg>
