<svg width="16" height="16" viewBox="0 0 16 16" fill="none" xmlns="http://www.w3.org/2000/svg">
<rect x="3" y="1" width="3" height="10" fill="#40B6E0" fill-opacity="0.7"/>
<path fill-rule="evenodd" clip-rule="evenodd" d="M7 1H10V8.16891C9.63499 8.38006 9.29915 8.63602 9 8.92928V2H8V10H8.16891C7.98761 10.3134 7.83935 10.6483 7.7289 11H7V1ZM7.52469 12H2V10H1V12V13H2H7.52469C7.50836 12.8355 7.5 12.6687 7.5 12.5C7.5 12.3313 7.50836 12.1645 7.52469 12ZM14 7.7289V1H11V7.7289C11.3206 7.6282 11.6552 7.55893 12 7.52469V2H13V7.52469C13.3448 7.55893 13.6794 7.6282 14 7.7289Z" fill="#9AA7B0" fill-opacity="0.8"/>
<path fill-rule="evenodd" clip-rule="evenodd" d="M15.0879 14.954C14.6546 15.4143 14.0994 15.7414 13.4873 15.8972C12.8751 16.053 12.2314 16.031 11.6313 15.8338C11.0312 15.6366 10.4996 15.2723 10.0986 14.7835C9.69758 14.2947 9.4438 13.7017 9.36691 13.0738L10.3947 13.1637C10.4856 13.5806 10.689 13.9645 10.9826 14.2736C11.2763 14.5828 11.6489 14.8053 12.0601 14.9169C12.4712 15.0285 12.9051 15.0251 13.3144 14.9068C13.7237 14.7886 14.0927 14.5601 14.3814 14.2463L13.2288 13.0928H16V15.8687L15.0879 14.954ZM10.251 10.3828C10.681 9.92724 11.2305 9.6024 11.8365 9.44566C12.4425 9.28891 13.0803 9.30662 13.6767 9.49674C14.2731 9.68686 14.8038 10.0417 15.2079 10.5204C15.612 10.9992 15.8731 11.5824 15.9611 12.2031L14.9302 12.1131C14.83 11.7035 14.6207 11.3288 14.3247 11.0289C14.0288 10.729 13.6571 10.5151 13.2494 10.4099C12.8417 10.3048 12.4131 10.3124 12.0094 10.4319C11.6056 10.5514 11.2418 10.7783 10.9566 11.0885L12.1111 12.2451H9.33997V9.47019L10.251 10.3828Z" fill="#40B6E0"/>
</svg>
