<svg width="16" height="16" viewBox="0 0 16 16" fill="none" xmlns="http://www.w3.org/2000/svg">
<path d="M3.4547 6.10953C3.83038 5.97327 4.24022 5.93921 4.6159 6.0414C4.6842 5.93921 4.78666 5.87108 4.85497 5.76889C5.50387 5.0876 6.18692 4.5085 6.80167 4.09973C6.05031 3.31624 5.40141 2.53276 4.92327 1.71521C4.51344 1.9196 4.10361 2.15805 3.72793 2.43056C3.4547 2.66902 3.21564 2.8734 2.97657 3.14592C2.87411 3.69095 2.83995 4.78102 3.4547 6.10953Z" fill="#40B6E0" fill-opacity="0.7"/>
<path d="M7.79156 3.48671C9.70411 2.46477 11.3776 2.46477 12.4705 2.60103C11.2068 1.54503 9.60165 1 7.99647 1C7.27926 1 6.56206 1.10219 5.84485 1.34065C6.49375 2.09006 7.14265 2.80542 7.79156 3.48671Z" fill="#40B6E0" fill-opacity="0.7"/>
<path d="M2.49848 9.37974C1.91789 8.59626 1.91789 7.57432 2.49848 6.82491C2.02035 5.66671 2.0545 4.71291 2.22526 4.03162C0.620084 6.38207 0.551778 9.55006 2.25942 11.9686C2.29357 11.2533 2.39603 10.4357 2.66925 9.55006C2.60094 9.516 2.56679 9.44787 2.49848 9.37974Z" fill="#40B6E0" fill-opacity="0.7"/>
<path d="M9.08954 4.81495C9.9092 5.63249 10.6947 6.38191 11.4119 6.99507C12.0608 6.62036 12.8805 6.79069 13.3586 7.36978C13.7002 7.81262 13.7343 8.35765 13.5635 8.80049C14.11 9.24333 14.4857 9.51585 14.7589 9.72023C15.3053 7.71043 14.9297 5.46217 13.5635 3.69082C13.5294 3.65675 13.4952 3.62269 13.4952 3.58862C13.3586 3.62269 11.5827 3.48643 9.08954 4.81495Z" fill="#40B6E0" fill-opacity="0.7"/>
<path d="M13.0854 9.51561C12.4364 10.0266 11.4802 9.89032 10.9679 9.24309C10.6264 8.76619 10.5922 8.1871 10.7971 7.67613C9.90914 6.99484 8.98702 6.21135 8.09905 5.42787C8.06489 5.39381 8.06489 5.39381 8.03074 5.35974C8.06489 5.39381 8.06489 5.39381 8.09905 5.42787C7.51845 5.80258 6.9037 6.31355 6.2548 6.89264C6.18649 6.96077 6.08403 7.06297 6.01573 7.1311C6.35726 7.81239 6.3231 8.62993 5.91327 9.24309C6.04988 9.34529 6.15234 9.44748 6.28895 9.54968C6.93785 10.0606 7.58675 10.4694 8.16735 10.8101C8.7821 10.4354 9.56761 10.5375 10.0116 11.1166C10.1482 11.287 10.2165 11.4914 10.2507 11.6617C11.9925 12.1726 13.2561 12.0023 13.7001 11.9001C14.0416 11.4232 14.2807 10.9123 14.4856 10.3672C14.2124 10.1969 13.7684 9.89032 13.0854 9.41342C13.1537 9.44748 13.1195 9.48155 13.0854 9.51561Z" fill="#40B6E0" fill-opacity="0.7"/>
<path d="M9.84167 13.0924C9.22692 13.5693 8.3731 13.4331 7.89496 12.8199C7.69005 12.5133 7.58759 12.1727 7.62174 11.832C6.93869 11.4914 6.25563 11.0826 5.57258 10.5376C5.36766 10.3672 5.19689 10.231 4.99198 10.0607C4.6846 10.1969 4.34308 10.231 4.00155 10.231C3.52341 11.4914 3.4551 12.6496 3.52341 13.399C4.78706 14.455 6.39224 15 7.99742 15C9.50014 15 10.9687 14.5231 12.2324 13.5693C12.4373 13.399 12.6422 13.2287 12.8471 13.0583C12.1299 13.0583 11.2078 13.0243 10.149 12.7858C10.0807 12.854 9.97828 12.9902 9.84167 13.0924Z" fill="#40B6E0" fill-opacity="0.7"/>
</svg>
