<svg width="16" height="16" viewBox="0 0 16 16" fill="none" xmlns="http://www.w3.org/2000/svg">
<path d="M11.4389 15.9344C11.352 15.9296 11.2703 15.8917 11.2106 15.8284C11.1509 15.7652 11.1176 15.6814 11.1178 15.5944C11.1178 14.5925 10.7198 13.6316 10.0113 12.9232C9.30282 12.2147 8.34193 11.8167 7.34 11.8167C7.25301 11.8168 7.16927 11.7836 7.10602 11.7239C7.04278 11.6641 7.00483 11.5824 7 11.4956C7 11.4054 7.03582 11.3189 7.09958 11.2551C7.16335 11.1914 7.24983 11.1556 7.34 11.1556C8.34193 11.1556 9.30282 10.7575 10.0113 10.0491C10.7198 9.3406 11.1178 8.37971 11.1178 7.37778C11.1126 7.33161 11.1169 7.28486 11.1304 7.24042C11.144 7.19598 11.1665 7.15479 11.1966 7.11939C11.2267 7.08399 11.2637 7.05513 11.3054 7.03459C11.347 7.01406 11.3925 7.00229 11.4389 7C11.5291 7 11.6155 7.03582 11.6793 7.09958C11.7431 7.16335 11.7789 7.24983 11.7789 7.34C11.7789 8.34193 12.1769 9.30282 12.8854 10.0113C13.5938 10.7198 14.5547 11.1178 15.5567 11.1178C15.6468 11.1178 15.7333 11.1536 15.7971 11.2174C15.8608 11.2811 15.8967 11.3676 15.8967 11.4578C15.8918 11.5446 15.8539 11.6263 15.7906 11.6861C15.7274 11.7458 15.6437 11.779 15.5567 11.7789C14.5547 11.7789 13.5938 12.1769 12.8854 12.8854C12.1769 13.5938 11.7789 14.5547 11.7789 15.5567C11.7842 15.6044 11.7794 15.6527 11.7647 15.6984C11.75 15.7441 11.7258 15.7862 11.6937 15.8219C11.6616 15.8576 11.6223 15.8861 11.5784 15.9055C11.5344 15.9249 11.4869 15.9347 11.4389 15.9344Z" fill="#40B6E0"/>
<path d="M11.4389 15.9344C11.352 15.9296 11.2703 15.8917 11.2106 15.8284C11.1509 15.7652 11.1176 15.6814 11.1178 15.5944C11.1178 14.5925 10.7198 13.6316 10.0113 12.9232C9.30282 12.2147 8.34193 11.8167 7.34 11.8167C7.25301 11.8168 7.16927 11.7836 7.10602 11.7239C7.04278 11.6641 7.00483 11.5824 7 11.4956C7 11.4054 7.03582 11.3189 7.09958 11.2551C7.16335 11.1914 7.24983 11.1556 7.34 11.1556C8.34193 11.1556 9.30282 10.7575 10.0113 10.0491C10.7198 9.3406 11.1178 8.37971 11.1178 7.37778C11.1126 7.33161 11.1169 7.28486 11.1304 7.24042C11.144 7.19598 11.1665 7.15479 11.1966 7.11939C11.2267 7.08399 11.2637 7.05513 11.3054 7.03459C11.347 7.01406 11.3925 7.00229 11.4389 7C11.5291 7 11.6155 7.03582 11.6793 7.09958C11.7431 7.16335 11.7789 7.24983 11.7789 7.34C11.7789 8.34193 12.1769 9.30282 12.8854 10.0113C13.5938 10.7198 14.5547 11.1178 15.5567 11.1178C15.6468 11.1178 15.7333 11.1536 15.7971 11.2174C15.8608 11.2811 15.8967 11.3676 15.8967 11.4578C15.8918 11.5446 15.8539 11.6263 15.7906 11.6861C15.7274 11.7458 15.6437 11.779 15.5567 11.7789C14.5547 11.7789 13.5938 12.1769 12.8854 12.8854C12.1769 13.5938 11.7789 14.5547 11.7789 15.5567C11.7842 15.6044 11.7794 15.6527 11.7647 15.6984C11.75 15.7441 11.7258 15.7862 11.6937 15.8219C11.6616 15.8576 11.6223 15.8861 11.5784 15.9055C11.5344 15.9249 11.4869 15.9347 11.4389 15.9344Z" fill="#40B6E0"/>
<path fill-rule="evenodd" clip-rule="evenodd" d="M12.7638 7.13921L14.746 4.86499C14.98 4.59599 15.06 4.22899 14.957 3.88899C14.8726 3.62109 14.6863 3.39712 14.4382 3.26541C14.1901 3.13369 13.9002 3.10481 13.631 3.18499L9.83603 4.28899L8.13803 1.50899C7.97703 1.24299 7.70303 1.06299 7.39203 1.01299C6.81003 0.921988 6.26303 1.30999 6.17003 1.87999L5.57003 5.54299L1.74203 6.74099C1.53509 6.80302 1.35266 6.92808 1.22017 7.09873C1.08768 7.26937 1.01174 7.47711 1.00294 7.69297C0.994132 7.90883 1.0529 8.12206 1.17104 8.30293C1.28919 8.4838 1.46083 8.62331 1.66203 8.70199L4.71603 9.93199L4.25803 13.836C4.23848 14.0063 4.2616 14.1789 4.32531 14.3381C4.38903 14.4973 4.49134 14.6382 4.62303 14.748C4.83913 14.9286 5.11713 15.0178 5.39796 14.9967C5.6788 14.9756 5.94035 14.8459 6.12703 14.635L7.71987 12.8149L7.34154 12.8167L7.34014 12.8167C6.99784 12.8168 6.66829 12.6859 6.4194 12.4509C6.37554 12.4094 6.33478 12.3653 6.29726 12.3189L5.83403 12.846L6.00221 11.4185C6.00529 11.365 6.01158 11.3119 6.02095 11.2595L6.27703 9.08599L3.15403 7.83399L6.86603 6.67699L7.44603 3.15399L9.19803 6.00999L12.846 4.95199L11.8673 6.07034C12.0611 6.13572 12.2391 6.24518 12.3864 6.39248C12.5899 6.59595 12.7212 6.85813 12.7638 7.13921Z" fill="#D2642C"/>
</svg>
