<svg width="16" height="16" viewBox="0 0 16 16" fill="none" xmlns="http://www.w3.org/2000/svg">
<path fill-rule="evenodd" clip-rule="evenodd" d="M14.9038 12.579L15.8135 13.2317C15.6384 13.7732 15.351 14.2641 14.9788 14.6771L13.9588 14.217C13.6684 14.4728 13.3275 14.6725 12.9528 14.7991L12.8417 15.9127C12.5724 15.9699 12.2931 16 12.0067 16C11.7204 16 11.4411 15.9699 11.1718 15.9127L11.0606 14.7991C10.686 14.6725 10.345 14.4728 10.0547 14.217L9.03466 14.6771C8.66241 14.2641 8.37502 13.7732 8.19995 13.2317L9.10961 12.579C9.0724 12.3918 9.05289 12.1982 9.05289 12C9.05289 11.8018 9.0724 11.6082 9.10962 11.421L8.19995 10.7683C8.37502 10.2268 8.66241 9.73585 9.03466 9.32286L10.0547 9.78302C10.345 9.5272 10.686 9.32751 11.0606 9.20092L11.1718 8.08728C11.4411 8.03009 11.7204 8 12.0067 8C12.2931 8 12.5724 8.03009 12.8417 8.08728L12.9528 9.20092C13.3275 9.32751 13.6684 9.5272 13.9588 9.78302L14.9788 9.32286C15.351 9.73585 15.6384 10.2268 15.8135 10.7683L14.9038 11.421C14.9411 11.6082 14.9606 11.8018 14.9606 12C14.9606 12.1982 14.9411 12.3918 14.9038 12.579ZM12.0067 13.4156C12.7884 13.4156 13.4221 12.7819 13.4221 12.0001C13.4221 11.2184 12.7884 10.5846 12.0067 10.5846C11.225 10.5846 10.5913 11.2184 10.5913 12.0001C10.5913 12.7819 11.225 13.4156 12.0067 13.4156Z" fill="#9AA7B0"/>
<path opacity="0.7" fill-rule="evenodd" clip-rule="evenodd" d="M14 5.07885V7.41604C13.3875 7.14845 12.7111 7 12 7C11.2784 7 10.5925 7.15286 9.97296 7.42796L11.376 6.60954L14 5.07885ZM14 4.50003V4.5L14 4.49998L14 4.50003ZM13.5038 4.21057L7.99998 7.42115L2.49615 4.21058L8 1L13.5038 4.21057ZM2 5.07887L7.49998 8.28719V9.81797C7.17966 10.4773 7 11.2177 7 12C7 12.7823 7.17966 13.5227 7.49998 14.182V14.7083L2 11.5V5.07887Z" fill="#40B6E0"/>
</svg>
