<svg width="16" height="16" viewBox="0 0 16 16" fill="none" xmlns="http://www.w3.org/2000/svg">
<path fill-rule="evenodd" clip-rule="evenodd" d="M7.5 3L5.5 2.25L3.5 2.75V5.25L5.5 5.75L7.5 5V3ZM3.8 5.01577L4.34998 5.15326V2.84674L3.8 2.98423V5.01577ZM5.2 5.36577L4.64998 5.22826V2.77174L5.2 2.63423V5.36577ZM1 6.75V9.25L3 9.75L5 9V7L3 6.25L1 6.75ZM1.3 9.01577L1.84998 9.15326V6.84674L1.3 6.98423V9.01577ZM2.7 9.36577L2.14998 9.22826V6.77174L2.7 6.63423V9.36577ZM6 9.25V6.75L8 6.25L10 7V8.75777C9.79516 8.89489 9.6022 9.04838 9.423 9.21638L8 9.75L6 9.25ZM15 8.75777V7L13 6.25L11 6.75V8.25606C11.0985 8.22125 11.1985 8.18978 11.3 8.16177V6.98423L11.85 6.84674V8.0466C11.949 8.03228 12.049 8.02118 12.15 8.01341V6.77174L12.7 6.63423V8.00436C13.5489 8.04149 14.3368 8.31381 15 8.75777ZM6.84998 9.15326L6.3 9.01577V6.98423L6.84998 6.84674V9.15326ZM7.14998 9.22826L7.7 9.36577V6.63423L7.14998 6.77174V9.22826ZM5.5 10.25L7.5 11V13L5.5 13.75L3.5 13.25V10.75L5.5 10.25ZM4.34998 13.1533L3.8 13.0158V10.9842L4.34998 10.8467V13.1533ZM4.64998 13.2283L5.2 13.3658V10.6342L4.64998 10.7717V13.2283ZM10.5 2.25L12.5 3V5L10.5 5.75L8.5 5.25V2.75L10.5 2.25ZM9.34998 5.15326L8.8 5.01577V2.98423L9.34998 2.84674V5.15326ZM9.64998 5.22826L10.2 5.36577V2.63423L9.64998 2.77174V5.22826Z" fill="#B99BF8" fill-opacity="0.7"/>
<path fill-rule="evenodd" clip-rule="evenodd" d="M12.5 16C14.433 16 16 14.433 16 12.5C16 10.567 14.433 9 12.5 9C10.567 9 9 10.567 9 12.5C9 14.433 10.567 16 12.5 16ZM10.7322 11.4393L11.4393 10.7322L12.5 11.7929L13.5607 10.7323L14.2678 11.4394L13.2071 12.5L14.2678 13.5607L13.5607 14.2678L12.5 13.2071L11.4393 14.2678L10.7322 13.5607L11.7929 12.5L10.7322 11.4393Z" fill="#E05555"/>
</svg>
