<svg width="16" height="16" viewBox="0 0 16 16" fill="none" xmlns="http://www.w3.org/2000/svg">
<path d="M16 13C16 14.6569 14.6569 16 13 16C11.3431 16 10 14.6569 10 13C10 11.3431 11.3431 10 13 10C14.6569 10 16 11.3431 16 13Z" fill="#62B543"/>
<path fill-rule="evenodd" clip-rule="evenodd" d="M7.5 3L5.5 2.25L3.5 2.75V5.25L5.5 5.75L7.5 5V3ZM3.8 5.01577L4.34998 5.15326V2.84674L3.8 2.98423V5.01577ZM5.2 5.36577L4.64998 5.22826V2.77174L5.2 2.63423V5.36577ZM1 6.75V9.25L3 9.75L5 9V7L3 6.25L1 6.75ZM1.3 9.01577L1.84998 9.15326V6.84674L1.3 6.98423V9.01577ZM2.7 9.36577L2.14998 9.22826V6.77174L2.7 6.63423V9.36577ZM6 9.25V6.75L8 6.25L10 7V9L8 9.75L6 9.25ZM6.84998 9.15326L6.3 9.01577V6.98423L6.84998 6.84674V9.15326ZM7.14998 9.22826L7.7 9.36577V6.63423L7.14998 6.77174V9.22826ZM15 7L13 6.25L11 6.75V9.25L11.3752 9.34379C11.6213 9.23423 11.8806 9.1488 12.15 9.0905V6.77174L12.7 6.63423V9.01108C12.799 9.00374 12.8991 9 13 9C13.4789 9 13.9382 9.08418 14.3639 9.23854L15 9V7ZM9.97668 10.3808L8.5 10.75V13.25L9.01776 13.3794C9.00803 13.276 9.00224 13.1715 9.00053 13.0659L8.8 13.0158V10.9842L9.34998 10.8467V11.3613C9.43589 11.1703 9.53636 10.9872 9.64998 10.8134V10.7717L9.68323 10.7634C9.77342 10.6299 9.87146 10.5022 9.97668 10.3808ZM11.3 9.01577L11.85 9.15326V6.84674L11.3 6.98423V9.01577ZM5.5 10.25L7.5 11V13L5.5 13.75L3.5 13.25V10.75L5.5 10.25ZM4.34998 13.1533L3.8 13.0158V10.9842L4.34998 10.8467V13.1533ZM4.64998 13.2283L5.2 13.3658V10.6342L4.64998 10.7717V13.2283ZM10.5 2.25L12.5 3V5L10.5 5.75L8.5 5.25V2.75L10.5 2.25ZM9.34998 5.15326L8.8 5.01577V2.98423L9.34998 2.84674V5.15326ZM9.64998 5.22826L10.2 5.36577V2.63423L9.64998 2.77174V5.22826Z" fill="#B99BF8" fill-opacity="0.7"/>
</svg>
