<svg width="16" height="16" viewBox="0 0 16 16" fill="none" xmlns="http://www.w3.org/2000/svg">
<path fill-rule="evenodd" clip-rule="evenodd" d="M7.5 3L5.5 2.25L3.5 2.75V5.25L5.5 5.75L7.5 5V3ZM3.8 5.01577L4.34998 5.15326V2.84674L3.8 2.98423V5.01577ZM5.2 5.36577L4.64998 5.22826V2.77174L5.2 2.63423V5.36577ZM1 6.75V9.25L3 9.75L5 9V7L3 6.25L1 6.75ZM1.3 9.01577L1.84998 9.15326V6.84674L1.3 6.98423V9.01577ZM2.7 9.36577L2.14998 9.22826V6.77174L2.7 6.63423V9.36577ZM6 9.25V6.75L8 6.25L10 7V9L8 9.75L6 9.25ZM6.84998 9.15326L6.3 9.01577V6.98423L6.84998 6.84674V9.15326ZM7.14998 9.22826L7.7 9.36577V6.63423L7.14998 6.77174V9.22826ZM15 7L13 6.25L11 6.75V8.55051C11.0083 8.54201 11.0167 8.53355 11.0251 8.52513C11.1127 8.43751 11.2045 8.35502 11.3 8.27785V6.98423L11.85 6.84674V7.91334C11.9477 7.86109 12.0478 7.81355 12.15 7.77085V6.77174L12.7 6.63423V7.59264C12.9601 7.53156 13.2284 7.5 13.5 7.5C14.0238 7.5 14.5356 7.61743 15 7.83772V7ZM10.0589 10.3603L8.5 10.75V13.25L10.5 13.75L11.4809 13.3822L10.2 12.1867V13.3658L9.64998 13.2283V10.7717L10.0146 10.6806C10.0245 10.5729 10.0393 10.466 10.0589 10.3603ZM5.5 10.25L7.5 11V13L5.5 13.75L3.5 13.25V10.75L5.5 10.25ZM4.34998 13.1533L3.8 13.0158V10.9842L4.34998 10.8467V13.1533ZM4.64998 13.2283L5.2 13.3658V10.6342L4.64998 10.7717V13.2283ZM8.8 13.0158L9.34998 13.1533V10.8467L8.8 10.9842V13.0158ZM10.5 2.25L12.5 3V5L10.5 5.75L8.5 5.25V2.75L10.5 2.25ZM9.34998 5.15326L8.8 5.01577V2.98423L9.34998 2.84674V5.15326ZM9.64998 5.22826L10.2 5.36577V2.63423L9.64998 2.77174V5.22826Z" fill="#B99BF8" fill-opacity="0.7"/>
<path d="M12.875 16H14.125V14.75H12.875V16ZM13.5 8.5C12.837 8.5 12.2011 8.76339 11.7322 9.23223C11.2634 9.70107 11 10.337 11 11H12.25C12.25 10.312 12.813 9.75 13.5 9.75C14.188 9.75 14.75 10.313 14.75 11C14.75 12.25 12.875 12.094 12.875 14.125H14.125C14.125 12.719 16 12.562 16 11C16 10.337 15.7366 9.70107 15.2678 9.23223C14.7989 8.76339 14.163 8.5 13.5 8.5Z" fill="#AFB1B3"/>
</svg>
