<svg width="40" height="40" viewBox="0 0 40 40" fill="none" xmlns="http://www.w3.org/2000/svg">
<path d="M18.6551 31.3957L27.1434 29.8914L27.2231 29.876L22.8569 24.6817C21.3934 22.9484 19.938 21.2084 18.4906 19.4617C18.4906 19.436 22.9983 7.02114 23.024 6.97743C23.0317 6.962 26.102 12.2591 30.4631 19.8191L37.9434 32.7843L38 32.8846H24.122L10.244 32.8794L18.6526 31.3957H18.6551ZM2 29.8117C2 29.804 4.05714 26.2323 6.572 21.8737L11.144 13.9511L16.472 9.47686C18.2522 7.98146 20.0351 6.48917 21.8206 5C21.8005 5.07536 21.7712 5.14792 21.7331 5.216L15.9474 17.6257L10.2646 29.8143L6.13229 29.8194C3.85914 29.822 2 29.8194 2 29.8117V29.8117Z" fill="#529FDB"/>
</svg>
