<svg width="16" height="16" viewBox="0 0 16 16" fill="none" xmlns="http://www.w3.org/2000/svg">
<path d="M3 10H9V11H3V10ZM3 8H13V9H3V8Z" fill="#62B543" fill-opacity="0.7"/>
<path d="M3 6H13V7H3V6Z" fill="#9AA7B0" fill-opacity="0.8"/>
<path fill-rule="evenodd" clip-rule="evenodd" d="M2.25 2H13.75C14.0815 2 14.3995 2.1317 14.6339 2.36612C14.8683 2.60054 15 2.91848 15 3.25V9H14V5H2V11.75C2 11.8163 2.02634 11.8799 2.07322 11.9268C2.12011 11.9737 2.1837 12 2.25 12H9V13H2.25C1.91848 13 1.60054 12.8683 1.36612 12.6339C1.1317 12.3995 1 12.0815 1 11.75V3.25C1 2.91848 1.1317 2.60054 1.36612 2.36612C1.60054 2.1317 1.91848 2 2.25 2Z" fill="#9AA7B0" fill-opacity="0.8"/>
<path d="M10 10H16V16H10V10Z" fill="#9AA7B0"/>
</svg>
