<svg width="16" height="16" viewBox="0 0 16 16" fill="none" xmlns="http://www.w3.org/2000/svg">
<path fill-rule="evenodd" clip-rule="evenodd" d="M11.6972 8H3V9H10.6277C10.7451 8.83141 10.8779 8.67238 11.0251 8.52513C11.2286 8.32163 11.4546 8.14579 11.6972 8ZM10.1459 10H3V11H10C10 10.6583 10.05 10.3217 10.1459 10Z" fill="#62B543" fill-opacity="0.7"/>
<path fill-rule="evenodd" clip-rule="evenodd" d="M13 6H3V7H13V6Z" fill="#9AA7B0" fill-opacity="0.8"/>
<path fill-rule="evenodd" clip-rule="evenodd" d="M2.25 2H13.75C14.0815 2 14.3995 2.1317 14.6339 2.36612C14.8683 2.60054 15 2.91848 15 3.25V7.83772C14.6848 7.68821 14.3478 7.58608 14 7.53588V5H2V11.75C2 11.8163 2.02634 11.8799 2.07322 11.9268C2.12011 11.9737 2.1837 12 2.25 12H10L11.0714 13H2.25C1.91848 13 1.60054 12.8683 1.36612 12.6339C1.1317 12.3995 1 12.0815 1 11.75V3.25C1 2.91848 1.1317 2.60054 1.36612 2.36612C1.60054 2.1317 1.91848 2 2.25 2Z" fill="#9AA7B0" fill-opacity="0.8"/>
<path d="M12.875 16H14.125V14.75H12.875V16ZM13.5 8.5C12.837 8.5 12.2011 8.76339 11.7322 9.23223C11.2634 9.70107 11 10.337 11 11H12.25C12.25 10.312 12.813 9.75 13.5 9.75C14.188 9.75 14.75 10.313 14.75 11C14.75 12.25 12.875 12.094 12.875 14.125H14.125C14.125 12.719 16 12.562 16 11C16 10.337 15.7366 9.70107 15.2678 9.23223C14.7989 8.76339 14.163 8.5 13.5 8.5Z" fill="#AFB1B3"/>
</svg>
