<svg width="16" height="16" viewBox="0 0 16 16" fill="none" xmlns="http://www.w3.org/2000/svg">
<path d="M6.003 13.7359V6.26594C6.003 4.87894 7.711 4.01695 10.46 4.01695C10.946 4.01695 11.585 4.04895 12 4.09595V2.64195C12 1.77795 9.554 1.04395 6.747 1.04395C3.94 1.04395 2 1.77795 2 2.64195V13.1769C2 14.0549 3.825 14.7649 6.49 14.8089C6.183 14.5069 6.003 14.1509 6.003 13.7359ZM3.5 2.64195C3.5 2.16695 5.054 1.77795 6.954 1.77795C8.854 1.77795 10.365 2.16695 10.365 2.64195C10.365 3.11695 8.811 3.50595 6.954 3.50595C5.098 3.50595 3.5 3.11695 3.5 2.64195Z" fill="#40B6E0" fill-opacity="0.7"/>
<path fill-rule="evenodd" clip-rule="evenodd" d="M7.99899 6.35597C7.99899 6.65797 9.13899 6.95997 10.499 6.95997C11.815 6.95997 12.999 6.65797 12.999 6.35597C12.999 6.05397 11.859 5.75197 10.499 5.75197C9.13899 5.75197 7.99899 6.01097 7.99899 6.35597ZM12.7375 7.50554C13.1754 7.52603 13.5986 7.60284 14 7.7289V6.13897C14 5.49197 12.447 5.01697 10.46 5.01697C8.43099 5.01697 7.00299 5.57597 7.00299 6.26597V13.736C7.00299 14.0326 7.33683 14.3092 7.92217 14.514C7.65072 13.8978 7.5 13.2165 7.5 12.5C7.5 10.0358 9.28257 7.988 11.6286 7.57568L12.033 7.19797L13.017 7.04897L12.7375 7.50554Z" fill="#40B6E0" fill-opacity="0.7"/>
<path fill-rule="evenodd" clip-rule="evenodd" d="M15.0879 14.9541C14.6546 15.4144 14.0994 15.7416 13.4873 15.8974C12.8751 16.0532 12.2314 16.0312 11.6313 15.8339C11.0312 15.6367 10.4996 15.2724 10.0986 14.7836C9.69758 14.2949 9.4438 13.7018 9.36691 13.0739L10.3947 13.1638C10.4856 13.5807 10.689 13.9646 10.9826 14.2737C11.2763 14.5829 11.6489 14.8054 12.0601 14.917C12.4712 15.0287 12.9051 15.0252 13.3144 14.9069C13.7237 14.7887 14.0927 14.5602 14.3814 14.2464L13.2288 13.0929H16V15.8688L15.0879 14.9541ZM10.251 10.3829C10.681 9.92736 11.2305 9.60252 11.8365 9.44578C12.4425 9.28903 13.0803 9.30674 13.6767 9.49686C14.2731 9.68698 14.8038 10.0418 15.2079 10.5205C15.612 10.9993 15.8731 11.5825 15.9611 12.2032L14.9302 12.1133C14.83 11.7037 14.6207 11.329 14.3247 11.029C14.0288 10.7291 13.6571 10.5152 13.2494 10.4101C12.8417 10.3049 12.4131 10.3125 12.0094 10.432C11.6056 10.5515 11.2418 10.7785 10.9566 11.0887L12.1111 12.2452H9.33997V9.47031L10.251 10.3829Z" fill="#40B6E0"/>
</svg>
