<svg width="16" height="16" viewBox="0 0 16 16" fill="none" xmlns="http://www.w3.org/2000/svg">
<path fill-rule="evenodd" clip-rule="evenodd" d="M13 3C13 1.91803 10.5077 1 7.48561 1C4.46349 1 2 1.91279 2 3V13C2 14.0872 4.49227 15 7.51439 15C7.73303 15 7.94875 14.9952 8.16083 14.986C7.74041 14.2537 7.5 13.4049 7.5 12.5C7.5 11.7889 7.64845 11.1125 7.91604 10.5H7V8.42674L6.40561 9.80726C6.33349 9.97935 6.21138 10.1258 6.05509 10.2276C5.89881 10.3295 5.68648 10.382 5.5 10.3785C5.31352 10.382 5.10119 10.3295 4.94491 10.2276C4.78862 10.1258 4.66651 9.97935 4.59439 9.80726L4 8.42674V10.5H3V7.48471C3 7.14901 3.06502 6.94343 3.37194 6.84714C3.51479 6.80029 3.6638 6.77486 3.8141 6.77168C3.9828 6.76421 4.14969 6.80908 4.29193 6.90015C4.43416 6.99122 4.5448 7.12403 4.6087 7.28043L5.5 8.9472L6.3913 7.28043C6.4552 7.12403 6.56584 6.99122 6.70807 6.90015C6.85031 6.80908 7.0172 6.76421 7.1859 6.77168C7.3362 6.77486 7.48521 6.80029 7.62806 6.84714C7.93498 6.94343 8 7.14901 8 7.48471V10.3179C8.25238 9.79843 8.59207 9.32918 9 8.92928V8.13012V8H10V8.16891C10.7354 7.74349 11.5893 7.5 12.5 7.5C12.6687 7.5 12.8355 7.50836 13 7.52469V3ZM11.5 3C11.5 3.54426 9.70837 4 7.51047 4C5.31256 4 3.5 3.54361 3.5 3C3.5 2.45639 5.29163 2 7.48953 2C9.68744 2 11.5 2.45902 11.5 3Z" fill="#9AA7B0" fill-opacity="0.8"/>
<path fill-rule="evenodd" clip-rule="evenodd" d="M15.0879 14.954C14.6546 15.4143 14.0994 15.7414 13.4873 15.8972C12.8751 16.053 12.2314 16.031 11.6313 15.8338C11.0312 15.6366 10.4996 15.2723 10.0986 14.7835C9.69758 14.2947 9.4438 13.7017 9.36691 13.0738L10.3947 13.1637C10.4856 13.5806 10.689 13.9645 10.9826 14.2736C11.2763 14.5828 11.6489 14.8053 12.0601 14.9169C12.4712 15.0285 12.9051 15.0251 13.3144 14.9068C13.7237 14.7886 14.0927 14.5601 14.3814 14.2463L13.2288 13.0928H16V15.8687L15.0879 14.954ZM10.251 10.3828C10.681 9.92724 11.2305 9.6024 11.8365 9.44566C12.4425 9.28891 13.0803 9.30662 13.6767 9.49674C14.2731 9.68686 14.8038 10.0417 15.2079 10.5204C15.612 10.9992 15.8731 11.5824 15.9611 12.2031L14.9302 12.1131C14.83 11.7035 14.6207 11.3288 14.3247 11.0289C14.0288 10.729 13.6571 10.5151 13.2494 10.4099C12.8417 10.3048 12.4131 10.3124 12.0094 10.4319C11.6056 10.5514 11.2418 10.7783 10.9566 11.0885L12.1111 12.2451H9.33997V9.47019L10.251 10.3828Z" fill="#40B6E0"/>
</svg>
