<svg width="16" height="16"  xmlns="http://www.w3.org/2000/svg" viewBox="0 0 2048 2048">
    <path d="M0 723q0-115 43-215t118-176 175-118 216-43q112 0 213 42t181 121l77 77 76-76q78-78 179-119t212-42q115 0 217 43t177 119 120 177 44 217q0 109-41 211t-120 180l-799 799q-25 25-61 25-35 0-60-25l-804-804q-78-78-120-180T0 723zm1877 7q0-79-30-149t-83-123-123-83-150-31q-77 0-147 29t-124 83q-19 19-37 38t-39 38q-24 24-55 36t-66 12q-34 0-65-12t-56-36q-42-41-78-76t-75-60-86-40-111-15q-79 0-148 30t-121 82-82 121-30 148q0 76 29 148t84 126l743 743 739-739q54-54 82-124t29-146z" fill="#AFB1B3"/>
</svg>