<svg width="16" height="16" viewBox="0 0 16 16" fill="none" xmlns="http://www.w3.org/2000/svg">
<path fill-rule="evenodd" clip-rule="evenodd" d="M8.63079 3.0466C8.61115 3.06541 8.59167 3.08449 8.57235 3.10381L7.99796 3.67946L7.42176 3.10329C7.40138 3.08291 7.38082 3.06281 7.36009 3.043C5.88681 1.6345 3.55049 1.6546 2.10181 3.10329C0.632731 4.57236 0.632731 6.9542 2.10181 8.4233L7.62752 13.949C7.83251 14.154 8.16488 14.154 8.36987 13.949L13.8998 8.42225C15.3656 6.94832 15.3681 4.57315 13.8988 3.10381C12.4464 1.65139 10.1065 1.63232 8.63079 3.0466ZM12.4846 4.51801C12.4846 4.518 12.4846 4.51801 12.4846 4.51801C13.1696 5.20304 13.1743 6.31356 12.4835 7.01014C12.4829 7.01074 12.4823 7.01134 12.4817 7.01194L7.999 11.492L3.51603 7.00909C3.51603 7.0091 3.51603 7.00909 3.51603 7.00909C2.828 6.32103 2.82801 5.20552 3.51602 4.51751C4.20404 3.82948 5.31955 3.82949 6.00753 4.51749L7.99956 6.5094L9.98656 4.51803C9.98634 4.51825 9.98677 4.51781 9.98656 4.51803C10.6773 3.82798 11.7941 3.82754 12.4846 4.51801Z" fill="#6E6E6E"/>
</svg>
