<svg width="16" height="16" viewBox="0 0 16 16" fill="none" xmlns="http://www.w3.org/2000/svg">
<path d="M15 1C15 1.66081 14.9499 2.32617 14.8496 2.99609C14.7493 3.66602 14.5944 4.32227 14.3848 4.96484C14.1751 5.60742 13.904 6.2181 13.5713 6.79688C13.2386 7.37565 12.8398 7.91341 12.375 8.41016V11.917L11.2607 13.2295L9.51074 11.4795L9.45605 11.5342C9.35124 11.6436 9.2487 11.7484 9.14844 11.8486C9.04818 11.9489 8.9388 12.0355 8.82031 12.1084C8.70182 12.1813 8.57878 12.2428 8.45117 12.293C8.32357 12.3431 8.17318 12.3659 8 12.3613C7.79492 12.3613 7.60124 12.3226 7.41895 12.2451C7.23665 12.1676 7.07031 12.056 6.91992 11.9102L4.08984 9.08008C3.94401 8.93424 3.83464 8.77018 3.76172 8.58789C3.6888 8.4056 3.65007 8.20964 3.64551 8C3.64551 7.83138 3.66829 7.68099 3.71387 7.54883C3.75944 7.41667 3.81868 7.29134 3.8916 7.17285C3.96452 7.05436 4.05339 6.94499 4.1582 6.84473C4.26302 6.74447 4.37012 6.63965 4.47949 6.53027L4.52051 6.48926L2.77051 4.73926L3.87793 3.625H7.3916C7.77441 3.26497 8.18913 2.94596 8.63574 2.66797C9.08236 2.38997 9.54948 2.14844 10.0371 1.94336C10.5247 1.73828 11.0238 1.56966 11.5342 1.4375C12.0446 1.30534 12.5596 1.20052 13.0791 1.12305C13.3252 1.08659 13.5713 1.05697 13.8174 1.03418C14.0635 1.01139 14.3118 1 14.5625 1H15ZM10.625 7.125C10.8665 7.125 11.0921 7.07943 11.3018 6.98828C11.5114 6.89714 11.6982 6.77181 11.8623 6.6123C12.0264 6.4528 12.1517 6.26823 12.2383 6.05859C12.3249 5.84896 12.3704 5.62109 12.375 5.375C12.375 5.13346 12.3294 4.90788 12.2383 4.69824C12.1471 4.48861 12.0218 4.30176 11.8623 4.1377C11.7028 3.97363 11.5182 3.84831 11.3086 3.76172C11.099 3.67513 10.8711 3.62956 10.625 3.625C10.3835 3.625 10.1579 3.67057 9.94824 3.76172C9.73861 3.85286 9.55176 3.97819 9.3877 4.1377C9.22363 4.2972 9.09831 4.48177 9.01172 4.69141C8.92513 4.90104 8.87956 5.12891 8.875 5.375C8.875 5.61654 8.92057 5.84212 9.01172 6.05176C9.10286 6.26139 9.22819 6.44824 9.3877 6.6123C9.5472 6.77637 9.73177 6.90169 9.94141 6.98828C10.151 7.07487 10.3789 7.12044 10.625 7.125ZM1 14.5215C1.01823 14.2799 1.06836 14.0247 1.15039 13.7559C1.23242 13.487 1.33496 13.2204 1.45801 12.9561C1.58105 12.6917 1.71322 12.4365 1.85449 12.1904C1.99577 11.9443 2.13704 11.7279 2.27832 11.541C2.43783 11.3177 2.60189 11.1081 2.77051 10.9121C2.93913 10.7161 3.12142 10.5179 3.31738 10.3174L3.54297 10.085L5.91504 12.457L5.68262 12.6826C5.49577 12.8604 5.3112 13.0312 5.12891 13.1953C4.94661 13.3594 4.75065 13.5189 4.54102 13.6738C4.34505 13.8151 4.12402 13.9609 3.87793 14.1113C3.63184 14.2617 3.36979 14.4007 3.0918 14.5283C2.8138 14.6559 2.54036 14.763 2.27148 14.8496C2.0026 14.9362 1.73828 14.9863 1.47852 15H1V14.5215Z" fill="#6E6E6E"/>
</svg>
