<svg width="16" height="16" viewBox="0 0 16 16" fill="none" xmlns="http://www.w3.org/2000/svg">
<path d="M4 7L7 8.73205V12.1962L4 13.9282L1 12.1962V8.73205L4 7Z" fill="#62B543" fill-opacity="0.7"/>
<path d="M7.5 1L10.5 2.73205V6.19615L7.5 7.9282L4.5 6.19615V2.73205L7.5 1Z" fill="#62B543" fill-opacity="0.7"/>
<path d="M16 13C16 14.6569 14.6569 16 13 16C11.3431 16 10 14.6569 10 13C10 11.3431 11.3431 10 13 10C14.6569 10 16 11.3431 16 13Z" fill="#62B543"/>
<path fill-rule="evenodd" clip-rule="evenodd" d="M14 8.73205L11 7L8 8.73205V12.1962L9.00611 12.777C9.12179 10.6716 10.8657 9 13 9C13.3453 9 13.6804 9.04375 14 9.12602V8.73205Z" fill="#62B543" fill-opacity="0.7"/>
</svg>
