<svg width="16" height="16" viewBox="0 0 16 16" fill="none" xmlns="http://www.w3.org/2000/svg">
<path d="M10.5 4.19604V7.10438L8 8.57105V5.65438L10.5 4.19604Z" fill="#40B6E0"/>
<path opacity="0.6" d="M10.5 4.19613L8 5.66279L5.5 4.19613L8 2.73779L10.5 4.19613Z" fill="#40B6E0"/>
<path opacity="0.7" d="M8 5.66271V8.57105L5.5 7.10438V4.19604L8 5.66271Z" fill="#40B6E0"/>
<path opacity="0.2" d="M5.5 7.10454L8 5.65454V8.57121L5.5 7.10454Z" fill="#40B6E0"/>
<path opacity="0.2" d="M10.5 7.10454L8 5.65454V8.57121L10.5 7.10454Z" fill="#40B6E0"/>
<path d="M16 10H10V16H16V10Z" fill="#9AA7B0"/>
<path fill-rule="evenodd" clip-rule="evenodd" d="M15 1H1V10H7V11C7 11 6.93662 12.0634 6.5 12.5C6.06338 12.9366 5 13 5 13H4V14H9V11V10V9H2V2H14V9H15V1Z" fill="#9AA7B0" fill-opacity="0.8"/>
</svg>
