<svg width="16" height="16" viewBox="0 0 16 16" fill="none" xmlns="http://www.w3.org/2000/svg">
<path fill-rule="evenodd" clip-rule="evenodd" d="M1 7.06667H7.06667V1H1V7.06667ZM6.05556 6.05556H2.01111V2.01111H6.05556V6.05556ZM14 4H12.9889V2.01111H8.94444V6.05556H12V7.06667H7.93333V1H14V4ZM12 7.93333H7.93333V14H12V12.9889H8.94444V8.94444H12V7.93333ZM1 14H7.06667V7.93333H1V14ZM6.05556 12.9889H2.01111V8.94444H6.05556V12.9889Z" fill="#529FDB"/>
<path d="M11.8333 7.42774C11.8333 6.41663 11.5444 5.15274 11.0388 3.67218C10.9305 3.96107 10.75 4.21385 10.6055 4.43051C9.77496 3.63607 8.69163 3.16663 7.49996 3.16663C5.11663 3.16663 3.16663 5.11663 3.16663 7.49996C3.16663 9.88329 5.11663 11.8333 7.49996 11.8333C9.88329 11.8333 11.8333 9.88329 11.8333 7.49996C11.8333 7.46385 11.8333 7.46385 11.8333 7.42774Z" fill="#62B543"/>
<path d="M11.0028 9.44991C9.91943 10.8582 7.64443 10.3888 6.19999 10.461C6.19999 10.461 5.94721 10.461 5.69443 10.4971C5.69443 10.4971 5.80276 10.461 5.9111 10.4249C6.92221 10.0638 7.42776 9.99158 8.04165 9.66658C9.23332 9.05269 10.3889 7.75269 10.6055 6.38047C10.1722 7.71658 8.79999 8.83602 7.57221 9.26936C6.74165 9.59436 5.18888 9.88325 5.18888 9.88325L5.11665 9.84714C4.06943 9.34158 4.03332 7.06658 5.9111 6.34436C6.74165 6.01936 7.5361 6.19991 8.43888 5.98325C9.41388 5.73047 10.4972 5.04436 10.9667 4.10547C11.5083 5.65825 12.0861 8.00547 11.0028 9.44991Z" fill="white"/>
<path d="M4.89999 10.8583C5.09943 10.8583 5.2611 10.6967 5.2611 10.4972C5.2611 10.2978 5.09943 10.1361 4.89999 10.1361C4.70055 10.1361 4.53888 10.2978 4.53888 10.4972C4.53888 10.6967 4.70055 10.8583 4.89999 10.8583Z" fill="white"/>
<path fill-rule="evenodd" clip-rule="evenodd" d="M15.498 16H13.502C13.369 15.9995 13.2416 15.9464 13.1476 15.8524C13.0536 15.7584 13.0005 15.631 13 15.498V13.502C13 13.226 13.226 13 13.502 13H15.498C15.774 13 16 13.226 16 13.502V15.498C15.9995 15.631 15.9464 15.7584 15.8524 15.8524C15.7584 15.9464 15.631 15.9995 15.498 16" fill="#40B6E0" fill-opacity="0.7"/>
<path fill-rule="evenodd" clip-rule="evenodd" d="M15.498 12H13.502C13.369 11.9995 13.2416 11.9464 13.1476 11.8524C13.0536 11.7584 13.0005 11.631 13 11.498V9.502C13 9.226 13.226 9 13.502 9H15.498C15.774 9 16 9.226 16 9.502V11.498C15.9995 11.631 15.9464 11.7584 15.8524 11.8524C15.7584 11.9464 15.631 11.9995 15.498 12" fill="#B99BF8" fill-opacity="0.7"/>
<path fill-rule="evenodd" clip-rule="evenodd" d="M15.498 8H13.502C13.369 7.99947 13.2416 7.94642 13.1476 7.85239C13.0536 7.75836 13.0005 7.63098 13 7.498V5.502C13 5.226 13.226 5 13.502 5H15.498C15.774 5 16 5.226 16 5.502V7.498C15.9995 7.63098 15.9464 7.75836 15.8524 7.85239C15.7584 7.94642 15.631 7.99947 15.498 8" fill="#F4AF3D" fill-opacity="0.7"/>
</svg>
