<svg width="16" height="16" viewBox="0 0 16 16" fill="none" xmlns="http://www.w3.org/2000/svg">
<path d="M4 7L7 8.73205V12.1962L4 13.9282L1 12.1962V8.73205L4 7Z" fill="#62B543" fill-opacity="0.7"/>
<path d="M7.5 1L10.5 2.73205V6.19615L7.5 7.9282L4.5 6.19615V2.73205L7.5 1Z" fill="#62B543" fill-opacity="0.7"/>
<path fill-rule="evenodd" clip-rule="evenodd" d="M12.2595 7.72719L11 7L8 8.73205V12.1962L11 13.9282L11.6586 13.548L10 12V11C10 10.0717 10.3687 9.1815 11.0251 8.52513C11.3789 8.17137 11.8006 7.90116 12.2595 7.72719Z" fill="#62B543" fill-opacity="0.7"/>
<path d="M12.875 16H14.125V14.75H12.875V16ZM13.5 8.5C12.837 8.5 12.2011 8.76339 11.7322 9.23223C11.2634 9.70107 11 10.337 11 11H12.25C12.25 10.312 12.813 9.75 13.5 9.75C14.188 9.75 14.75 10.313 14.75 11C14.75 12.25 12.875 12.094 12.875 14.125H14.125C14.125 12.719 16 12.562 16 11C16 10.337 15.7366 9.70107 15.2678 9.23223C14.7989 8.76339 14.163 8.5 13.5 8.5Z" fill="#AFB1B3"/>
</svg>
