<svg width="16" height="16" viewBox="0 0 16 16" fill="none" xmlns="http://www.w3.org/2000/svg">
<path d="M7.53333 7.53333H1V1H7.53333V7.53333ZM2.08889 6.44444H6.44444V2.08889H2.08889V6.44444ZM15 7.53333H8.46667V1H15V7.53333ZM9.55556 6.44444H13.9111V2.08889H9.55556V6.44444ZM15 15H8.46667V8.46667H15V15ZM7.53333 15H1V8.46667H7.53333V15ZM9.55556 13.9111H13.9111V9.55556H9.55556V13.9111ZM2.08889 13.9111H6.44444V9.55556H2.08889V13.9111Z" fill="#529FDB"/>
<path d="M12.6666 7.92214C12.6666 6.83325 12.3555 5.47214 11.8111 3.8777C11.6944 4.18881 11.5 4.46103 11.3444 4.69436C10.45 3.83881 9.28331 3.33325 7.99998 3.33325C5.43331 3.33325 3.33331 5.43325 3.33331 7.99992C3.33331 10.5666 5.43331 12.6666 7.99998 12.6666C10.5666 12.6666 12.6666 10.5666 12.6666 7.99992C12.6666 7.96103 12.6666 7.96103 12.6666 7.92214Z" fill="#62B543"/>
<path d="M11.7722 10.1C10.6055 11.6167 8.15555 11.1111 6.59999 11.1889C6.59999 11.1889 6.32777 11.1889 6.05555 11.2278C6.05555 11.2278 6.17221 11.1889 6.28888 11.15C7.37777 10.7611 7.92221 10.6834 8.58332 10.3334C9.86666 9.67226 11.1111 8.27226 11.3444 6.79448C10.8778 8.23337 9.39999 9.43893 8.07777 9.90559C7.18332 10.2556 5.5111 10.5667 5.5111 10.5667L5.43332 10.5278C4.30555 9.98337 4.26666 7.53337 6.28888 6.75559C7.18332 6.40559 8.03888 6.60004 9.0111 6.3667C10.0611 6.09448 11.2278 5.35559 11.7333 4.34448C12.3167 6.0167 12.9389 8.54448 11.7722 10.1Z" fill="white"/>
<path d="M5.19999 11.6166C5.41476 11.6166 5.58887 11.4425 5.58887 11.2278C5.58887 11.013 5.41476 10.8389 5.19999 10.8389C4.98521 10.8389 4.8111 11.013 4.8111 11.2278C4.8111 11.4425 4.98521 11.6166 5.19999 11.6166Z" fill="white"/>
</svg>
