<svg width="16" height="16" viewBox="0 0 16 16" fill="none" xmlns="http://www.w3.org/2000/svg">
<path d="M4 7L7 8.73205V12.1962L4 13.9282L1 12.1962V8.73205L4 7Z" fill="#62B543" fill-opacity="0.7"/>
<path d="M7.5 1L10.5 2.73205V6.19615L7.5 7.9282L4.5 6.19615V2.73205L7.5 1Z" fill="#62B543" fill-opacity="0.7"/>
<path fill-rule="evenodd" clip-rule="evenodd" d="M12.7432 8.00646L11 7L8 8.73205V12.1962L8.00973 12.2018C8.16324 9.85552 10.1149 8 12.5 8C12.5816 8 12.6627 8.00217 12.7432 8.00646Z" fill="#62B543" fill-opacity="0.7"/>
<path fill-rule="evenodd" clip-rule="evenodd" d="M12.5 16C14.433 16 16 14.433 16 12.5C16 10.567 14.433 9 12.5 9C10.567 9 9 10.567 9 12.5C9 14.433 10.567 16 12.5 16ZM10.7322 11.4393L11.4393 10.7322L12.5 11.7929L13.5607 10.7323L14.2678 11.4394L13.2071 12.5L14.2678 13.5607L13.5607 14.2678L12.5 13.2071L11.4393 14.2678L10.7322 13.5607L11.7929 12.5L10.7322 11.4393Z" fill="#E05555"/>
</svg>
