<svg width="16" height="16" viewBox="0 0 16 16" fill="none" xmlns="http://www.w3.org/2000/svg">
<path fill-rule="evenodd" clip-rule="evenodd" d="M12.5 16C14.433 16 16 14.433 16 12.5C16 10.567 14.433 9 12.5 9C10.567 9 9 10.567 9 12.5C9 14.433 10.567 16 12.5 16ZM10.7322 11.4393L11.4393 10.7322L12.5 11.7929L13.5607 10.7323L14.2678 11.4394L13.2071 12.5L14.2678 13.5607L13.5607 14.2678L12.5 13.2071L11.4393 14.2678L10.7322 13.5607L11.7929 12.5L10.7322 11.4393Z" fill="#E05555"/>
<path fill-rule="evenodd" clip-rule="evenodd" d="M13 3C13 1.91803 10.5077 1 7.48561 1C4.46349 1 2 1.91279 2 3V13C2 14.0872 4.49227 15 7.51439 15C7.93012 15 8.33527 14.9828 8.7249 14.9502C8.33479 14.3503 8.08376 13.6517 8.01754 12.9001C7.954 12.8656 7.90033 12.8163 7.86172 12.7565C7.67314 12.1458 7.6072 11.5067 7.66736 10.8727V10.6874H7.65117C7.65876 10.6125 7.6489 10.5371 7.6223 10.4663C7.5957 10.3956 7.55301 10.3313 7.4973 10.2781C7.45675 10.2407 7.40842 10.2117 7.35542 10.1931C7.30242 10.1744 7.24593 10.1666 7.18956 10.1701C7.20907 10.1049 7.24033 10.0286 7.27273 9.94956L7.27273 9.94956L7.27274 9.94954C7.29413 9.89733 7.31601 9.84392 7.33533 9.79173C7.41207 9.63504 7.47439 9.47229 7.52159 9.30532C7.55164 8.9791 7.55164 8.65099 7.52159 8.32477C7.52936 8.23954 7.51936 8.15369 7.49217 8.07217C7.46498 7.99064 7.42115 7.91505 7.36318 7.84974C7.30522 7.78443 7.23428 7.73071 7.15445 7.69165C7.07462 7.65259 6.98747 7.62898 6.89802 7.62217C6.61518 7.59834 6.33169 7.66051 6.08819 7.79975C6.1211 7.53815 6.17801 7.2798 6.25825 7.02767C6.37163 6.71851 6.58056 6.44933 6.85753 6.25558C6.93566 6.22035 7.01698 6.19192 7.10048 6.17065C7.27978 6.10016 7.47402 6.07106 7.66736 6.08572C7.97638 6.07949 8.28312 6.13745 8.56628 6.25558C8.76513 6.33355 8.94861 6.4432 9.10887 6.57986C9.12703 6.59331 9.14336 6.60887 9.15746 6.62618L9.20605 6.67251L9.28703 6.74972C9.52285 7.00799 9.6994 7.31043 9.80533 7.63762C9.55826 7.59624 9.30378 7.63713 9.08458 7.75343C8.66346 8.03138 8.82543 8.48691 8.93881 8.80346L8.9712 8.75714C9.04981 8.9714 9.14658 9.17861 9.26029 9.37681C9.3124 9.32277 9.36585 9.27004 9.42058 9.21865C9.34078 9.05007 9.26919 8.87803 9.20605 8.70309C9.04408 8.35565 8.9712 8.06998 9.20605 7.93101C9.40386 7.83606 9.63068 7.81142 9.84582 7.86152L9.87821 7.83836C9.87012 7.90012 9.86202 7.98505 9.88631 8.06998C9.85412 8.24624 9.83249 8.42411 9.82153 8.60272C9.84931 8.67159 9.85803 8.76228 9.86077 8.85482C9.91766 8.81355 9.97556 8.77359 10.0344 8.73496C10.0321 8.68892 10.0321 8.64623 10.0321 8.61044C10.0431 8.44718 10.0647 8.28473 10.0969 8.12403V7.79975C10.0786 7.56683 10.012 7.3397 9.90073 7.13159C9.7895 6.92347 9.63594 6.73855 9.449 6.58758C9.23648 6.37592 8.98716 6.2009 8.71205 6.07028C9.1024 5.96872 9.51529 5.97739 9.90057 6.09526C10.2858 6.21313 10.6269 6.43513 10.8824 6.73428C11.0606 6.95818 11.0363 7.4832 10.8095 8.21668C10.7958 8.25983 10.7816 8.30286 10.7671 8.34577C11.3005 8.12303 11.8859 8 12.5 8C12.669 8 12.8358 8.00932 13 8.02746V3ZM11.5 3C11.5 3.54426 9.70837 4 7.51047 4C5.31256 4 3.5 3.54361 3.5 3C3.5 2.45639 5.29163 2 7.48953 2C9.68744 2 11.5 2.45902 11.5 3ZM9.60287 8.17807C9.56218 8.2155 9.51193 8.24212 9.4571 8.25528C9.41974 8.26301 9.38108 8.26301 9.34372 8.25528C9.32316 8.23658 9.30736 8.21363 9.29754 8.1882C9.28771 8.16278 9.28412 8.13554 9.28703 8.10859C9.28703 8.05454 9.37612 8.00822 9.4814 7.99277H9.63527C9.63527 7.99277 9.70815 7.99277 9.70815 8.05454C9.70379 8.07512 9.69508 8.09463 9.68255 8.11189C9.67002 8.12914 9.65393 8.14378 9.63527 8.15491L9.60287 8.17807ZM5.80474 8.86523V8.73398C5.80865 8.6903 5.80865 8.64639 5.80474 8.60272C5.78037 8.34588 5.78037 8.08747 5.80474 7.83064C5.85296 7.53993 5.93443 7.25513 6.04769 6.98134C6.14322 6.70802 6.30401 6.45957 6.5174 6.25558C6.16259 6.15452 5.79442 6.10252 5.42412 6.10117C5.10913 6.08808 4.79771 6.16906 4.5333 6.33279C4.33108 6.50714 4.17829 6.72734 4.0891 6.97298C3.99992 7.21862 3.97722 7.48175 4.0231 7.73799C4.1011 8.32527 4.23667 8.90429 4.42802 9.46746C4.70337 10.3476 5.0192 10.8881 5.29455 10.973C5.41602 11.0116 5.5456 10.973 5.67517 10.8109C5.87149 10.5836 6.05567 10.3853 6.1804 10.2509L6.23396 10.1932C6.05342 10.0183 5.92232 9.80268 5.85293 9.56639C5.78353 9.3301 5.7781 9.0809 5.83714 8.84207L5.80474 8.86523ZM6.0153 9.17406C6.01182 9.31958 6.02815 9.46492 6.06389 9.60643C6.11318 9.73032 6.18439 9.84523 6.27445 9.94615C6.35425 10.0281 6.45068 10.0938 6.55789 10.1392C6.6583 10.1781 6.76536 10.199 6.87373 10.2009C6.87373 10.1107 6.92726 10.006 6.9844 9.89413C7.01042 9.84321 7.03718 9.79083 7.05999 9.73769C7.12808 9.58994 7.18492 9.4377 7.23005 9.28216C7.25526 8.99699 7.25526 8.71031 7.23005 8.42514C7.23005 8.35565 7.23005 8.27845 7.18146 8.19352C7.1746 8.11558 7.14036 8.04213 7.08428 7.98505C7.02058 7.92663 6.94267 7.88419 6.85753 7.86152H6.69556C6.56074 7.87739 6.42948 7.91389 6.30684 7.96961C6.21586 8.01073 6.12911 8.05984 6.04769 8.11631V8.20124V8.67221C6.05123 8.71074 6.05123 8.74949 6.04769 8.78802V9.08913L6.0153 9.17406ZM6.54979 8.13947C6.62354 8.11701 6.7028 8.11701 6.77655 8.13947C6.83018 8.14663 6.88219 8.16229 6.93041 8.18579C7.0033 8.18579 7.0114 8.27073 7.0033 8.29389C6.9799 8.33434 6.94655 8.36879 6.90612 8.39426C6.88868 8.38586 6.87236 8.37549 6.85753 8.36337C6.80079 8.35443 6.7484 8.32877 6.70774 8.29C6.66707 8.25123 6.64015 8.20129 6.63077 8.14719L6.54979 8.13947ZM7.14907 10.4557C7.1097 10.4601 7.07282 10.4763 7.04379 10.502L6.93041 10.6333C6.79274 10.7954 6.73605 10.8495 6.33923 10.9267C6.26299 10.9337 6.19019 10.9604 6.12868 11.0039C6.18575 11.0461 6.25226 11.0751 6.32304 11.0888C6.51265 11.1467 6.71651 11.1467 6.90612 11.0888C7.02062 11.0361 7.1269 10.9686 7.22195 10.8881C7.30056 10.8262 7.35714 10.7426 7.38392 10.6487C7.38735 10.6093 7.3819 10.5696 7.36793 10.5323C7.35397 10.495 7.33181 10.461 7.30294 10.4326C7.28594 10.42 7.26574 10.4119 7.24439 10.4092C7.22305 10.4065 7.20133 10.4092 7.18146 10.4171L7.14907 10.4557Z" fill="#40B6E0" fill-opacity="0.7"/>
</svg>
