<svg width="16" height="16" viewBox="0 0 16 16" fill="none" xmlns="http://www.w3.org/2000/svg">
<path fill-rule="evenodd" clip-rule="evenodd" d="M13 3C13 1.91803 10.5077 1 7.48561 1C4.46349 1 2 1.91279 2 3V13C2 14.0872 4.49227 15 7.51439 15C8.19974 15 8.85636 14.9531 9.46204 14.8679C9.16705 14.3104 9 13.6747 9 13C9 12.9397 9.00134 12.8797 9.00398 12.82C8.92326 12.8736 8.83486 12.9162 8.74128 12.9466C8.60178 12.9918 8.45387 13.0086 8.30713 12.9959C8.21758 12.9927 8.1307 12.966 8.05609 12.9187C7.97565 12.8845 7.90791 12.828 7.86172 12.7565C7.67314 12.1458 7.6072 11.5067 7.66736 10.8727V10.6874H7.65117C7.65876 10.6125 7.6489 10.5371 7.6223 10.4663C7.5957 10.3956 7.55301 10.3313 7.4973 10.2781C7.45675 10.2407 7.40842 10.2117 7.35542 10.1931C7.30242 10.1744 7.24593 10.1666 7.18956 10.1701C7.20907 10.1049 7.24034 10.0286 7.27273 9.94956C7.29412 9.89734 7.31601 9.84393 7.33533 9.79173C7.41207 9.63504 7.47439 9.47229 7.52159 9.30532C7.55164 8.9791 7.55164 8.65099 7.52159 8.32477C7.52936 8.23954 7.51936 8.15369 7.49217 8.07217C7.46498 7.99064 7.42115 7.91505 7.36318 7.84974C7.30522 7.78443 7.23428 7.73071 7.15445 7.69165C7.07462 7.65259 6.98747 7.62898 6.89802 7.62217C6.61518 7.59834 6.33169 7.66051 6.08819 7.79975C6.1211 7.53815 6.17801 7.2798 6.25825 7.02767C6.37163 6.71851 6.58056 6.44933 6.85753 6.25558C6.93566 6.22035 7.01698 6.19192 7.10048 6.17065C7.27978 6.10016 7.47402 6.07106 7.66736 6.08572C7.97638 6.07949 8.28312 6.13745 8.56628 6.25558C8.76513 6.33355 8.94861 6.4432 9.10887 6.57986C9.12703 6.59331 9.14336 6.60887 9.15746 6.62618L9.20605 6.67251L9.28704 6.74972C9.52285 7.00799 9.6994 7.31043 9.80533 7.63762C9.55826 7.59624 9.30378 7.63713 9.08458 7.75343C8.66346 8.03138 8.82543 8.48691 8.93881 8.80346L8.9712 8.75714C9.16043 9.27294 9.45494 9.7479 9.83772 10.1546C9.74743 10.1947 9.67142 10.2591 9.61907 10.3399C9.5574 10.4428 9.53186 10.5619 9.54618 10.6796C9.54134 10.7488 9.52711 10.8835 9.50801 11.0476C9.56984 10.9373 9.63676 10.8301 9.70843 10.7266C9.70552 10.6723 9.70812 10.6178 9.71625 10.5638C9.74611 10.5124 9.79532 10.4738 9.85392 10.4557C9.87545 10.4488 9.89802 10.446 9.92042 10.4472C10.6541 9.56304 11.7613 9 13 9V3ZM11.5 3C11.5 3.54426 9.70837 4 7.51047 4C5.31256 4 3.5 3.54361 3.5 3C3.5 2.45639 5.29163 2 7.48953 2C9.68744 2 11.5 2.45902 11.5 3ZM10.0969 8.12403V7.79975C10.0786 7.56683 10.012 7.3397 9.90073 7.13159C9.7895 6.92347 9.63594 6.73855 9.449 6.58758C9.23648 6.37592 8.98716 6.2009 8.71205 6.07028C9.1024 5.96872 9.51529 5.97739 9.90057 6.09526C10.2858 6.21313 10.6269 6.43513 10.8824 6.73428C11.0606 6.95818 11.0363 7.4832 10.8095 8.21668C10.6041 8.86066 10.3158 9.47789 9.9511 10.0542L9.87012 9.96159C9.86858 9.94361 9.86858 9.92553 9.87012 9.90754C9.99938 9.70776 10.0694 9.47827 10.0726 9.24355C10.0726 9.22251 10.0763 9.20006 10.0803 9.17554C10.0897 9.1191 10.1008 9.05173 10.0726 8.9656C10.0321 8.84207 10.0321 8.70309 10.0321 8.61044C10.0431 8.44718 10.0647 8.28473 10.0969 8.12403ZM9.20605 7.93101C9.40386 7.83606 9.63068 7.81142 9.84582 7.86152L9.87821 7.83836C9.87012 7.90012 9.86202 7.98505 9.88631 8.06998C9.85412 8.24624 9.83249 8.42411 9.82153 8.60272C9.86202 8.70309 9.86202 8.84979 9.86202 8.98104C9.86716 9.0659 9.86716 9.15097 9.86202 9.23583C9.86136 9.41253 9.81102 9.58583 9.71625 9.73769L9.65146 9.63731C9.6415 9.62149 9.63155 9.60308 9.62047 9.5826C9.60453 9.55311 9.58628 9.51935 9.56238 9.4829L9.48949 9.35936C9.38151 9.14613 9.28686 8.92699 9.20605 8.70309C9.04408 8.35565 8.9712 8.06998 9.20605 7.93101ZM9.4571 8.25528C9.51193 8.24212 9.56218 8.2155 9.60287 8.17807L9.63526 8.15491C9.65393 8.14378 9.67002 8.12914 9.68255 8.11188C9.69508 8.09463 9.70379 8.07512 9.70815 8.05454C9.70815 7.99277 9.63526 7.99277 9.63526 7.99277H9.4814C9.37612 8.00822 9.28704 8.05454 9.28704 8.10859C9.28412 8.13554 9.28771 8.16278 9.29754 8.1882C9.30736 8.21363 9.32316 8.23658 9.34372 8.25528C9.38108 8.26301 9.41974 8.26301 9.4571 8.25528ZM5.80474 8.73398V8.86523L5.83714 8.84207C5.7781 9.0809 5.78353 9.3301 5.85293 9.56639C5.92232 9.80268 6.05342 10.0183 6.23396 10.1932C6.21765 10.2108 6.19974 10.2301 6.1804 10.2509C6.05567 10.3853 5.87149 10.5836 5.67517 10.8109C5.5456 10.973 5.41602 11.0116 5.29455 10.973C5.0192 10.8881 4.70337 10.3476 4.42802 9.46746C4.23667 8.90429 4.1011 8.32527 4.0231 7.73799C3.97722 7.48175 3.99992 7.21862 4.0891 6.97298C4.17829 6.72734 4.33108 6.50714 4.5333 6.33279C4.79771 6.16906 5.10913 6.08808 5.42412 6.10117C5.79442 6.10252 6.16259 6.15452 6.5174 6.25558C6.30401 6.45957 6.14322 6.70802 6.04769 6.98134C5.93443 7.25513 5.85296 7.53993 5.80474 7.83064C5.78037 8.08747 5.78037 8.34588 5.80474 8.60272C5.80865 8.64639 5.80865 8.6903 5.80474 8.73398ZM6.06389 9.60643C6.02815 9.46492 6.01182 9.31958 6.0153 9.17406L6.04769 9.08913V8.78802C6.05123 8.74949 6.05123 8.71074 6.04769 8.67221V8.20124V8.11631C6.12911 8.05984 6.21586 8.01073 6.30684 7.96961C6.42948 7.91389 6.56074 7.87739 6.69556 7.86152H6.85753C6.94267 7.88419 7.02058 7.92663 7.08428 7.98505C7.14036 8.04213 7.1746 8.11558 7.18146 8.19352C7.23005 8.27845 7.23005 8.35565 7.23005 8.42514C7.25526 8.71031 7.25526 8.99699 7.23005 9.28216C7.18492 9.4377 7.12808 9.58994 7.05999 9.73769C7.03718 9.79083 7.01042 9.84321 6.9844 9.89413C6.92726 10.006 6.87373 10.1107 6.87373 10.2009C6.76536 10.199 6.6583 10.1781 6.55789 10.1392C6.45068 10.0938 6.35425 10.0281 6.27445 9.94615C6.18439 9.84523 6.11318 9.73032 6.06389 9.60643ZM6.77655 8.13947C6.7028 8.11701 6.62354 8.11701 6.54979 8.13947L6.63077 8.14719C6.64015 8.20129 6.66707 8.25123 6.70774 8.29C6.7484 8.32877 6.80079 8.35443 6.85753 8.36337C6.87236 8.37549 6.88868 8.38586 6.90612 8.39426C6.94655 8.36879 6.9799 8.33434 7.0033 8.29389C7.0114 8.27073 7.0033 8.1858 6.93041 8.1858C6.88219 8.16229 6.83018 8.14663 6.77655 8.13947ZM7.04379 10.502C7.07282 10.4763 7.1097 10.4601 7.14907 10.4557L7.18146 10.4171C7.20133 10.4092 7.22305 10.4065 7.24439 10.4092C7.26574 10.4119 7.28594 10.42 7.30294 10.4326C7.33181 10.461 7.35397 10.495 7.36793 10.5323C7.3819 10.5696 7.38735 10.6093 7.38392 10.6487C7.35714 10.7426 7.30056 10.8262 7.22195 10.8881C7.1269 10.9686 7.02062 11.0361 6.90612 11.0888C6.71651 11.1467 6.51265 11.1467 6.32304 11.0888C6.25226 11.0751 6.18575 11.0461 6.12868 11.0039C6.19019 10.9604 6.26299 10.9337 6.33923 10.9267C6.73605 10.8495 6.79274 10.7954 6.93041 10.6333L7.04379 10.502Z" fill="#40B6E0" fill-opacity="0.7"/>
<path d="M16 13C16 14.6569 14.6569 16 13 16C11.3431 16 10 14.6569 10 13C10 11.3431 11.3431 10 13 10C14.6569 10 16 11.3431 16 13Z" fill="#62B543"/>
</svg>
