<svg width="16" height="16" viewBox="0 0 16 16" fill="none" xmlns="http://www.w3.org/2000/svg">
<path fill-rule="evenodd" clip-rule="evenodd" d="M13 3C13 1.91803 10.5077 1 7.48561 1C4.46349 1 2 1.91279 2 3V13C2 14.0872 4.49227 15 7.51439 15C9.2892 15 10.8713 14.6856 11.875 14.2057V13.75L10 12V11C10 10.9454 10.0013 10.891 10.0038 10.8367C9.90753 10.8347 9.8112 10.8235 9.71625 10.8032C9.70429 10.7238 9.70429 10.6432 9.71625 10.5638C9.74611 10.5124 9.79532 10.4738 9.85392 10.4557C9.8907 10.444 9.93051 10.444 9.9673 10.4557C9.99102 10.4641 10.0149 10.4718 10.039 10.4788C10.1498 9.74341 10.4929 9.05738 11.0251 8.52513C11.5625 7.98776 12.2566 7.64317 13 7.53588V3ZM11.5 3C11.5 3.54426 9.70837 4 7.51047 4C5.31256 4 3.5 3.54361 3.5 3C3.5 2.45639 5.29163 2 7.48953 2C9.68744 2 11.5 2.45902 11.5 3ZM10.0969 7.79975V8.12403C10.0647 8.28473 10.0431 8.44718 10.0321 8.61044C10.0321 8.70309 10.0321 8.84207 10.0726 8.9656C10.1008 9.05173 10.0897 9.1191 10.0803 9.17554C10.0763 9.20006 10.0726 9.22251 10.0726 9.24355C10.0694 9.47827 9.99938 9.70776 9.87012 9.90754C9.86858 9.92553 9.86858 9.94361 9.87012 9.96159L9.9511 10.0542C10.3158 9.47789 10.6041 8.86066 10.8095 8.21668C11.0363 7.4832 11.0606 6.95818 10.8824 6.73428C10.6269 6.43513 10.2858 6.21313 9.90057 6.09526C9.51529 5.97739 9.1024 5.96872 8.71205 6.07028C8.98716 6.2009 9.23648 6.37592 9.449 6.58758C9.63594 6.73855 9.7895 6.92347 9.90073 7.13159C10.012 7.3397 10.0786 7.56683 10.0969 7.79975ZM9.84582 7.86152C9.63068 7.81142 9.40386 7.83606 9.20605 7.93101C8.9712 8.06998 9.04408 8.35565 9.20605 8.70309C9.28686 8.92699 9.38151 9.14613 9.48949 9.35936L9.56238 9.4829C9.58628 9.51935 9.60453 9.55311 9.62047 9.5826C9.63155 9.60308 9.6415 9.62149 9.65146 9.63731L9.71625 9.73769C9.81102 9.58583 9.86136 9.41253 9.86202 9.23583C9.86716 9.15097 9.86716 9.0659 9.86202 8.98104C9.86202 8.84979 9.86202 8.70309 9.82153 8.60272C9.83249 8.42411 9.85412 8.24624 9.88631 8.06998C9.86202 7.98505 9.87012 7.90012 9.87821 7.83836L9.84582 7.86152ZM9.60287 8.17807C9.56218 8.2155 9.51193 8.24212 9.4571 8.25528C9.41974 8.26301 9.38108 8.26301 9.34372 8.25528C9.32316 8.23658 9.30736 8.21363 9.29754 8.1882C9.28771 8.16278 9.28412 8.13554 9.28704 8.10859C9.28704 8.05454 9.37612 8.00822 9.4814 7.99277H9.63526C9.63526 7.99277 9.70815 7.99277 9.70815 8.05454C9.70379 8.07512 9.69508 8.09463 9.68255 8.11188C9.67002 8.12914 9.65393 8.14378 9.63526 8.15491L9.60287 8.17807ZM5.80474 8.86523V8.73398C5.80865 8.6903 5.80865 8.64639 5.80474 8.60272C5.78037 8.34588 5.78037 8.08747 5.80474 7.83064C5.85296 7.53993 5.93443 7.25513 6.04769 6.98134C6.14322 6.70802 6.30401 6.45957 6.5174 6.25558C6.16259 6.15452 5.79442 6.10252 5.42412 6.10117C5.10913 6.08808 4.79771 6.16906 4.5333 6.33279C4.33108 6.50714 4.17829 6.72734 4.0891 6.97298C3.99992 7.21862 3.97722 7.48175 4.0231 7.73799C4.1011 8.32527 4.23667 8.90429 4.42802 9.46746C4.70337 10.3476 5.0192 10.8881 5.29455 10.973C5.41602 11.0116 5.5456 10.973 5.67517 10.8109C5.87149 10.5836 6.05567 10.3853 6.1804 10.2509L6.23396 10.1932C6.05342 10.0183 5.92232 9.80268 5.85293 9.56639C5.78353 9.3301 5.7781 9.0809 5.83714 8.84207L5.80474 8.86523ZM6.0153 9.17406C6.01182 9.31958 6.02815 9.46492 6.06389 9.60643C6.11318 9.73032 6.18439 9.84523 6.27445 9.94615C6.35425 10.0281 6.45068 10.0938 6.55789 10.1392C6.6583 10.1781 6.76536 10.199 6.87373 10.2009C6.87373 10.1107 6.92726 10.006 6.9844 9.89413C7.01042 9.84321 7.03718 9.79083 7.05999 9.73769C7.12808 9.58994 7.18492 9.4377 7.23005 9.28216C7.25526 8.99699 7.25526 8.71031 7.23005 8.42514C7.23005 8.35565 7.23005 8.27845 7.18146 8.19352C7.1746 8.11558 7.14036 8.04213 7.08428 7.98505C7.02058 7.92663 6.94267 7.88419 6.85753 7.86152H6.69556C6.56074 7.87739 6.42948 7.91389 6.30684 7.96961C6.21586 8.01073 6.12911 8.05984 6.04769 8.11631V8.20124V8.67221C6.05123 8.71074 6.05123 8.74949 6.04769 8.78802V9.08913L6.0153 9.17406ZM6.54979 8.13947C6.62354 8.11701 6.7028 8.11701 6.77655 8.13947C6.83018 8.14663 6.88219 8.16229 6.93041 8.1858C7.0033 8.1858 7.0114 8.27073 7.0033 8.29389C6.9799 8.33434 6.94655 8.36879 6.90612 8.39426C6.88868 8.38586 6.87236 8.37549 6.85753 8.36337C6.80079 8.35443 6.7484 8.32877 6.70774 8.29C6.66707 8.25123 6.64015 8.20129 6.63077 8.14719L6.54979 8.13947ZM7.14907 10.4557C7.1097 10.4601 7.07282 10.4763 7.04379 10.502L6.93041 10.6333C6.79274 10.7954 6.73605 10.8495 6.33923 10.9267C6.26299 10.9337 6.19019 10.9604 6.12868 11.0039C6.18575 11.0461 6.25226 11.0751 6.32304 11.0888C6.51265 11.1467 6.71651 11.1467 6.90612 11.0888C7.02062 11.0361 7.1269 10.9686 7.22195 10.8881C7.30056 10.8262 7.35714 10.7426 7.38392 10.6487C7.38735 10.6093 7.3819 10.5696 7.36793 10.5323C7.35397 10.495 7.33181 10.461 7.30294 10.4326C7.28594 10.42 7.26574 10.4119 7.24439 10.4092C7.22305 10.4065 7.20133 10.4092 7.18146 10.4171L7.14907 10.4557ZM8.93881 8.80346C8.82543 8.48691 8.66346 8.03138 9.08458 7.75343C9.30378 7.63713 9.55826 7.59624 9.80533 7.63762C9.6994 7.31043 9.52285 7.00799 9.28704 6.74972L9.20605 6.67251L9.15746 6.62618C9.14336 6.60887 9.12703 6.59331 9.10887 6.57986C8.94861 6.4432 8.76513 6.33355 8.56628 6.25558C8.28312 6.13745 7.97638 6.07949 7.66736 6.08572C7.47402 6.07106 7.27978 6.10016 7.10048 6.17065C7.01698 6.19192 6.93566 6.22035 6.85753 6.25558C6.58056 6.44933 6.37163 6.71851 6.25825 7.02767C6.17801 7.2798 6.1211 7.53815 6.08819 7.79975C6.33169 7.66051 6.61518 7.59834 6.89802 7.62217C6.98747 7.62898 7.07462 7.65259 7.15445 7.69165C7.23428 7.73071 7.30522 7.78443 7.36318 7.84974C7.42115 7.91505 7.46498 7.99064 7.49217 8.07217C7.51936 8.15369 7.52936 8.23954 7.52159 8.32477C7.55164 8.65099 7.55164 8.9791 7.52159 9.30532C7.47439 9.47229 7.41207 9.63504 7.33533 9.79173C7.31601 9.84392 7.29413 9.89733 7.27274 9.94954L7.27273 9.94956L7.27273 9.94956C7.24033 10.0286 7.20907 10.1049 7.18956 10.1701C7.24593 10.1666 7.30242 10.1744 7.35542 10.1931C7.40842 10.2117 7.45675 10.2407 7.4973 10.2781C7.55301 10.3313 7.5957 10.3956 7.6223 10.4663C7.6489 10.5371 7.65876 10.6125 7.65117 10.6874H7.66736V10.8727C7.6072 11.5067 7.67314 12.1458 7.86172 12.7565C7.90791 12.828 7.97565 12.8845 8.05609 12.9187C8.1307 12.966 8.21758 12.9927 8.30713 12.9959C8.45387 13.0086 8.60178 12.9918 8.74128 12.9466C8.88078 12.9014 9.00877 12.8287 9.11697 12.7334C9.25588 12.5953 9.33907 12.4148 9.35182 12.2238C9.40851 11.8764 9.52999 10.9113 9.54618 10.6796C9.53186 10.5619 9.5574 10.4428 9.61907 10.3399C9.67142 10.2591 9.74743 10.1947 9.83772 10.1546C9.45494 9.7479 9.16043 9.27294 8.9712 8.75714L8.93881 8.80346Z" fill="#40B6E0" fill-opacity="0.7"/>
<path d="M12.875 16H14.125V14.75H12.875V16ZM13.5 8.5C12.837 8.5 12.2011 8.76339 11.7322 9.23223C11.2634 9.70107 11 10.337 11 11H12.25C12.25 10.312 12.813 9.75 13.5 9.75C14.188 9.75 14.75 10.313 14.75 11C14.75 12.25 12.875 12.094 12.875 14.125H14.125C14.125 12.719 16 12.562 16 11C16 10.337 15.7366 9.70107 15.2678 9.23223C14.7989 8.76339 14.163 8.5 13.5 8.5Z" fill="#AFB1B3"/>
</svg>
