<svg width="16" height="16" viewBox="0 0 16 16" fill="none" xmlns="http://www.w3.org/2000/svg">
<path fill-rule="evenodd" clip-rule="evenodd" d="M13 3C13 1.91803 10.5077 1 7.48561 1C4.46349 1 2 1.91279 2 3V13C2 14.0872 4.49227 15 7.51439 15C7.93012 15 8.33527 14.9828 8.7249 14.9502C8.26638 14.2452 8 13.4037 8 12.5C8 11.4284 8.3746 10.4442 9 9.67133V9.58919V8.13012V8H10V8.75777C10.3085 8.55127 10.644 8.3819 11 8.25606V8H12V8.02746C12.1642 8.00932 12.331 8 12.5 8C12.669 8 12.8358 8.00932 13 8.02746V3ZM11.5 3C11.5 3.54426 9.70837 4 7.51047 4C5.31256 4 3.5 3.54361 3.5 3C3.5 2.45639 5.29163 2 7.48953 2C9.68744 2 11.5 2.45902 11.5 3ZM5.5 10.3785C5.31352 10.382 5.10119 10.3295 4.94491 10.2276C4.78862 10.1258 4.66651 9.97935 4.59439 9.80726L4 8.42674V10.5H3V7.48471C3 7.14901 3.06502 6.94343 3.37194 6.84714C3.51479 6.80029 3.6638 6.77486 3.8141 6.77168C3.9828 6.76421 4.14969 6.80908 4.29193 6.90015C4.43416 6.99122 4.5448 7.12403 4.6087 7.28043L5.5 8.9472L6.3913 7.28043C6.4552 7.12403 6.56584 6.99122 6.70807 6.90015C6.85031 6.80908 7.0172 6.76421 7.1859 6.77168C7.3362 6.77486 7.48521 6.80029 7.62806 6.84714C7.93498 6.94343 8 7.14901 8 7.48471V10.5H7V8.42674L6.40561 9.80726C6.33349 9.97935 6.21138 10.1258 6.05509 10.2276C5.89881 10.3295 5.68648 10.382 5.5 10.3785Z" fill="#40B6E0" fill-opacity="0.7"/>
<path fill-rule="evenodd" clip-rule="evenodd" d="M12.5 16C14.433 16 16 14.433 16 12.5C16 10.567 14.433 9 12.5 9C10.567 9 9 10.567 9 12.5C9 14.433 10.567 16 12.5 16ZM10.7322 11.4393L11.4393 10.7322L12.5 11.7929L13.5607 10.7323L14.2678 11.4394L13.2071 12.5L14.2678 13.5607L13.5607 14.2678L12.5 13.2071L11.4393 14.2678L10.7322 13.5607L11.7929 12.5L10.7322 11.4393Z" fill="#E05555"/>
</svg>
