<svg width="16" height="16" viewBox="0 0 16 16" fill="none" xmlns="http://www.w3.org/2000/svg">
<path fill-rule="evenodd" clip-rule="evenodd" d="M13 3C13 1.91803 10.5077 1 7.48561 1C4.46349 1 2 1.91279 2 3V13C2 14.0872 4.49227 15 7.51439 15C9.2892 15 10.8713 14.6856 11.875 14.2057V13.75L10 12H9V11H10C10 10.8317 10.0121 10.6646 10.0359 10.5H9.91034C9.39014 10.5 9 10.1942 9 9.71931V9.58919V8.13012V8H10V9.36988C10.0667 9.44517 10.1599 9.49178 10.2601 9.5H10.3377C10.5028 9.15201 10.7256 8.83058 11 8.55051V8H11.6972C12.0953 7.76081 12.5381 7.60254 13 7.53588V3ZM11.5 3C11.5 3.54426 9.70837 4 7.51047 4C5.31256 4 3.5 3.54361 3.5 3C3.5 2.45639 5.29163 2 7.48953 2C9.68744 2 11.5 2.45902 11.5 3ZM5.5 10.3785C5.31352 10.382 5.10119 10.3295 4.94491 10.2276C4.78862 10.1258 4.66651 9.97935 4.59439 9.80726L4 8.42674V10.5H3V7.48471C3 7.14901 3.06502 6.94343 3.37194 6.84714C3.51479 6.80029 3.6638 6.77486 3.8141 6.77168C3.9828 6.76421 4.14969 6.80908 4.29193 6.90015C4.43416 6.99122 4.5448 7.12403 4.6087 7.28043L5.5 8.9472L6.3913 7.28043C6.4552 7.12403 6.56584 6.99122 6.70807 6.90015C6.85031 6.80908 7.0172 6.76421 7.1859 6.77168C7.3362 6.77486 7.48521 6.80029 7.62806 6.84714C7.93498 6.94343 8 7.14901 8 7.48471V10.5H7V8.42674L6.40561 9.80726C6.33349 9.97935 6.21138 10.1258 6.05509 10.2276C5.89881 10.3295 5.68648 10.382 5.5 10.3785Z" fill="#40B6E0" fill-opacity="0.7"/>
<path d="M12.875 16H14.125V14.75H12.875V16ZM13.5 8.5C12.837 8.5 12.2011 8.76339 11.7322 9.23223C11.2634 9.70107 11 10.337 11 11H12.25C12.25 10.312 12.813 9.75 13.5 9.75C14.188 9.75 14.75 10.313 14.75 11C14.75 12.25 12.875 12.094 12.875 14.125H14.125C14.125 12.719 16 12.562 16 11C16 10.337 15.7366 9.70107 15.2678 9.23223C14.7989 8.76339 14.163 8.5 13.5 8.5Z" fill="#AFB1B3"/>
</svg>
