<svg width="16" height="16" viewBox="0 0 16 16" fill="none" xmlns="http://www.w3.org/2000/svg">
<path fill-rule="evenodd" clip-rule="evenodd" d="M12.5 16C14.433 16 16 14.433 16 12.5C16 10.567 14.433 9 12.5 9C10.567 9 9 10.567 9 12.5C9 14.433 10.567 16 12.5 16ZM10.7322 11.4393L11.4393 10.7322L12.5 11.7929L13.5607 10.7323L14.2678 11.4394L13.2071 12.5L14.2678 13.5607L13.5607 14.2678L12.5 13.2071L11.4393 14.2678L10.7322 13.5607L11.7929 12.5L10.7322 11.4393Z" fill="#E05555"/>
<path fill-rule="evenodd" clip-rule="evenodd" d="M13 3C13 1.91803 10.5077 1 7.48561 1C4.46349 1 2 1.91279 2 3V13C2 14.0872 4.49227 15 7.51439 15C7.93012 15 8.33527 14.9828 8.7249 14.9502C8.26638 14.2452 8 13.4037 8 12.5C8 12.1767 8.03409 11.8614 8.09888 11.5574L7.40405 10.74C7.09553 10.7341 6.79406 10.6467 6.53029 10.4866C6.27456 10.3284 6.06862 10.1012 5.93614 9.83126C5.79332 9.54682 5.72138 9.23207 5.72644 8.91382C5.7178 8.56524 5.79586 8.21997 5.95361 7.909C6.09681 7.62786 6.31834 7.39419 6.59145 7.23621C6.88287 7.07576 7.21123 6.99442 7.54385 7.0003C7.84997 6.99818 8.15128 7.07652 8.4176 7.22747C8.68041 7.38235 8.89282 7.60994 9.02923 7.88279C9.18001 8.18032 9.25504 8.51045 9.24767 8.84392C9.25257 9.05997 9.22403 9.2744 9.16397 9.47986C9.37092 9.2514 9.60102 9.0443 9.85056 8.86224V7.08767H10.6632V8.39074C11.224 8.13964 11.8457 8 12.5 8C12.669 8 12.8358 8.00932 13 8.02746V3ZM8.48577 10.4642C8.37847 10.5377 8.26178 10.5983 8.138 10.6439L8.32526 10.8171C8.3738 10.6968 8.42739 10.579 8.48577 10.4642ZM11.5 3C11.5 3.54426 9.70837 4 7.51047 4C5.31256 4 3.5 3.54361 3.5 3C3.5 2.45639 5.29163 2 7.48953 2C9.68744 2 11.5 2.45902 11.5 3ZM4.4158 8.58179C4.25405 8.51529 4.1037 8.42389 3.97019 8.31093C3.91151 8.23032 3.88645 8.13007 3.90029 8.03133C3.90027 7.9783 3.91295 7.92603 3.93727 7.87891C3.96159 7.83178 3.99685 7.79117 4.04009 7.76046C4.14961 7.69143 4.27776 7.65787 4.40707 7.66435C4.71788 7.65354 5.02401 7.74232 5.28082 7.91774V7.16631C5.00115 7.0644 4.70457 7.01694 4.40707 7.02651C4.03175 6.99506 3.65812 7.10403 3.35856 7.33232C3.24314 7.42767 3.1509 7.54801 3.08884 7.68424C3.02678 7.82048 2.99651 7.96905 3.00032 8.1187C3.00032 8.56432 3.27992 8.91382 3.87408 9.17595C4.06392 9.25863 4.24292 9.36427 4.40707 9.4905C4.45047 9.52306 4.4857 9.56527 4.50997 9.6138C4.53423 9.66233 4.54687 9.71584 4.54687 9.7701C4.54689 9.82313 4.53421 9.8754 4.50989 9.92253C4.48556 9.96965 4.45031 10.0103 4.40707 10.041C4.29045 10.1168 4.15275 10.1535 4.01388 10.1458C3.64584 10.1498 3.29106 10.0086 3.02653 9.75263V10.5652C3.31735 10.7068 3.63815 10.7757 3.96145 10.7662C4.32589 10.7829 4.68642 10.6851 4.99248 10.4866C5.11509 10.3926 5.21325 10.2705 5.27866 10.1306C5.34406 9.99068 5.37477 9.83705 5.3682 9.68273C5.37667 9.45836 5.29845 9.23934 5.14976 9.0711C4.94223 8.85821 4.69213 8.69148 4.4158 8.58179ZM8.14674 9.72641C8.06472 9.82384 7.9624 9.90215 7.84694 9.95588C7.73148 10.0096 7.60567 10.0374 7.47832 10.0374C7.35097 10.0374 7.22516 10.0096 7.10969 9.95588C6.99423 9.90215 6.89191 9.82384 6.80989 9.72641C6.62761 9.47325 6.54093 9.16368 6.56524 8.85266C6.54108 8.54033 6.63112 8.22985 6.81863 7.9789C6.89712 7.87338 7.0003 7.78872 7.11912 7.73235C7.23794 7.67599 7.36878 7.64964 7.50016 7.65561C7.62752 7.65169 7.75389 7.67912 7.86816 7.73549C7.98242 7.79187 8.08109 7.87545 8.15548 7.9789C8.32762 8.23649 8.41049 8.54344 8.39139 8.85266C8.42635 9.17277 8.33895 9.49427 8.14674 9.75263V9.72641Z" fill="#40B6E0" fill-opacity="0.6"/>
</svg>
