<svg width="16" height="16" viewBox="0 0 16 16" fill="none" xmlns="http://www.w3.org/2000/svg">
<path fill-rule="evenodd" clip-rule="evenodd" d="M13 3C13 1.91803 10.5077 1 7.48561 1C4.46349 1 2 1.91279 2 3V13C2 14.0872 4.49227 15 7.51439 15C8.19974 15 8.85636 14.9531 9.46204 14.8679C9.16705 14.3104 9 13.6747 9 13C9 12.0695 9.31771 11.2132 9.85056 10.5337V7.08767H10.6632V9.75323C11.3205 9.27925 12.1277 9 13 9V3ZM11.5 3C11.5 3.54426 9.70837 4 7.51047 4C5.31256 4 3.5 3.54361 3.5 3C3.5 2.45639 5.29163 2 7.48953 2C9.68744 2 11.5 2.45902 11.5 3ZM4.4158 8.58179C4.25405 8.51529 4.1037 8.42389 3.97019 8.31093C3.91151 8.23032 3.88645 8.13007 3.90029 8.03133C3.90027 7.9783 3.91295 7.92603 3.93727 7.87891C3.96159 7.83178 3.99685 7.79117 4.04009 7.76046C4.14961 7.69143 4.27776 7.65787 4.40707 7.66435C4.71788 7.65354 5.02401 7.74232 5.28082 7.91774V7.16631C5.00115 7.0644 4.70457 7.01694 4.40707 7.02651C4.03175 6.99506 3.65812 7.10403 3.35856 7.33232C3.24314 7.42767 3.1509 7.54801 3.08884 7.68424C3.02678 7.82048 2.99651 7.96905 3.00032 8.1187C3.00032 8.56432 3.27992 8.91382 3.87408 9.17595C4.06392 9.25863 4.24292 9.36427 4.40707 9.4905C4.45047 9.52306 4.4857 9.56527 4.50997 9.6138C4.53423 9.66233 4.54687 9.71584 4.54687 9.7701C4.54689 9.82313 4.53421 9.8754 4.50989 9.92253C4.48556 9.96965 4.45031 10.0103 4.40707 10.041C4.29045 10.1168 4.15275 10.1535 4.01388 10.1458C3.64584 10.1498 3.29106 10.0086 3.02653 9.75263V10.5652C3.31735 10.7068 3.63815 10.7757 3.96145 10.7662C4.32589 10.7829 4.68642 10.6851 4.99248 10.4866C5.11509 10.3926 5.21325 10.2705 5.27866 10.1306C5.34406 9.99068 5.37477 9.83705 5.3682 9.68273C5.37667 9.45836 5.29845 9.23934 5.14976 9.0711C4.94223 8.85821 4.69213 8.69148 4.4158 8.58179ZM8.95933 9.95359C9.15666 9.61767 9.2565 9.23341 9.24767 8.84392C9.25504 8.51045 9.18001 8.18032 9.02923 7.88279C8.89282 7.60994 8.68041 7.38235 8.4176 7.22747C8.15128 7.07652 7.84997 6.99818 7.54385 7.0003C7.21123 6.99442 6.88287 7.07576 6.59145 7.23621C6.31834 7.39419 6.09681 7.62786 5.95361 7.909C5.79586 8.21997 5.7178 8.56524 5.72644 8.91382C5.72138 9.23207 5.79332 9.54682 5.93614 9.83126C6.06862 10.1012 6.27456 10.3284 6.53029 10.4866C6.79406 10.6467 7.09553 10.7341 7.40405 10.74L8.14674 11.6137H9.18651L8.138 10.6439C8.48384 10.5165 8.77435 10.2724 8.95933 9.95359ZM8.14674 9.72641C8.06472 9.82384 7.9624 9.90215 7.84694 9.95588C7.73148 10.0096 7.60567 10.0374 7.47832 10.0374C7.35097 10.0374 7.22516 10.0096 7.10969 9.95588C6.99423 9.90215 6.89191 9.82384 6.80989 9.72641C6.62761 9.47325 6.54093 9.16368 6.56524 8.85266C6.54108 8.54033 6.63112 8.22985 6.81863 7.9789C6.89712 7.87338 7.0003 7.78872 7.11912 7.73235C7.23794 7.67599 7.36878 7.64964 7.50016 7.65561C7.62752 7.65169 7.75389 7.67912 7.86816 7.73549C7.98242 7.79187 8.08109 7.87545 8.15548 7.9789C8.32762 8.23649 8.41049 8.54344 8.39139 8.85266C8.42635 9.17277 8.33895 9.49427 8.14674 9.75263V9.72641Z" fill="#40B6E0" fill-opacity="0.6"/>
<path d="M16 13C16 14.6569 14.6569 16 13 16C11.3431 16 10 14.6569 10 13C10 11.3431 11.3431 10 13 10C14.6569 10 16 11.3431 16 13Z" fill="#62B543"/>
</svg>
