<svg width="16" height="16" viewBox="0 0 16 16" fill="none" xmlns="http://www.w3.org/2000/svg">
<path fill-rule="evenodd" clip-rule="evenodd" d="M9 11C9.35106 11 9.69594 11.0924 9.99997 11.268C10.304 11.4435 10.5565 11.696 10.732 12H15V14L10.732 14.001C10.5565 14.305 10.304 14.5575 9.99996 14.733C9.69593 14.9085 9.35106 15.0009 9 15.0009C8.64894 15.0009 8.30407 14.9085 8.00004 14.733C7.69602 14.5575 7.44354 14.305 7.268 14.001L1 14V12H7.268C7.44353 11.696 7.696 11.4435 8.00003 11.268C8.30406 11.0924 8.64894 11 9 11V11ZM9 12C8.73478 12 8.48043 12.1054 8.29289 12.2929C8.10536 12.4804 8 12.7348 8 13C8 13.2652 8.10536 13.5196 8.29289 13.7071C8.48043 13.8946 8.73478 14 9 14C9.26522 14 9.51957 13.8946 9.70711 13.7071C9.89464 13.5196 10 13.2652 10 13C10 12.7348 9.89464 12.4804 9.70711 12.2929C9.51957 12.1054 9.26522 12 9 12ZM6 6C6.35106 6.00001 6.69594 6.09243 6.99997 6.26796C7.304 6.4435 7.55647 6.69597 7.732 7H15V9L7.732 9.001C7.55646 9.30501 7.30398 9.55747 6.99996 9.73299C6.69593 9.90851 6.35106 10.0009 6 10.0009C5.64894 10.0009 5.30407 9.90851 5.00004 9.73299C4.69602 9.55747 4.44354 9.30501 4.268 9.001L1 9V7H4.268C4.44353 6.69597 4.696 6.4435 5.00003 6.26796C5.30406 6.09243 5.64894 6.00001 6 6V6ZM6 7C5.73478 7 5.48043 7.10536 5.29289 7.29289C5.10536 7.48043 5 7.73478 5 8C5 8.26522 5.10536 8.51957 5.29289 8.70711C5.48043 8.89464 5.73478 9 6 9C6.26522 9 6.51957 8.89464 6.70711 8.70711C6.89464 8.51957 7 8.26522 7 8C7 7.73478 6.89464 7.48043 6.70711 7.29289C6.51957 7.10536 6.26522 7 6 7ZM11 1C11.3511 1.00001 11.6959 1.09243 12 1.26796C12.304 1.4435 12.5565 1.69597 12.732 2H15V4L12.732 4.001C12.5565 4.30501 12.304 4.55747 12 4.73299C11.6959 4.90851 11.3511 5.00091 11 5.00091C10.6489 5.00091 10.3041 4.90851 10 4.73299C9.69602 4.55747 9.44354 4.30501 9.268 4.001L1 4V2H9.268C9.44353 1.69597 9.696 1.4435 10 1.26796C10.3041 1.09243 10.6489 1.00001 11 1ZM11 2C10.7348 2 10.4804 2.10536 10.2929 2.29289C10.1054 2.48043 10 2.73478 10 3C10 3.26522 10.1054 3.51957 10.2929 3.70711C10.4804 3.89464 10.7348 4 11 4C11.2652 4 11.5196 3.89464 11.7071 3.70711C11.8946 3.51957 12 3.26522 12 3C12 2.73478 11.8946 2.48043 11.7071 2.29289C11.5196 2.10536 11.2652 2 11 2V2Z" fill="#6E6E6E"/>
</svg>
