<svg width="16" height="16" viewBox="0 0 16 16" fill="none" xmlns="http://www.w3.org/2000/svg">
<path fill-rule="evenodd" clip-rule="evenodd" d="M4.2 4.9L3 4L0 8L3 12L4.2 11.099L1.875 8L4.2 4.9Z" fill="#9AA7B0" fill-opacity="0.8"/>
<path fill-rule="evenodd" clip-rule="evenodd" d="M7.2 1H12L7.2 7L11 7.5L10.7818 7.80304C8.90882 8.48839 7.56027 10.2621 7.50197 12.3584L5.6 15H4.8L7.188 9L4 8.5L7.2 1Z" fill="#9AA7B0" fill-opacity="0.8"/>
<path fill-rule="evenodd" clip-rule="evenodd" d="M13 4L11.8 4.9L13.8987 7.69826C14.5168 7.878 15.0855 8.17385 15.5795 8.56062L16 8L13 4Z" fill="#9AA7B0" fill-opacity="0.8"/>
<path fill-rule="evenodd" clip-rule="evenodd" d="M15.0879 14.954C14.6546 15.4143 14.0994 15.7414 13.4873 15.8972C12.8751 16.053 12.2314 16.031 11.6313 15.8338C11.0312 15.6366 10.4996 15.2723 10.0986 14.7835C9.69758 14.2947 9.4438 13.7017 9.36691 13.0738L10.3947 13.1637C10.4856 13.5806 10.689 13.9645 10.9826 14.2736C11.2763 14.5828 11.6489 14.8053 12.0601 14.9169C12.4712 15.0285 12.9051 15.0251 13.3144 14.9068C13.7237 14.7886 14.0927 14.5601 14.3814 14.2463L13.2288 13.0928H16V15.8687L15.0879 14.954ZM10.251 10.3828C10.681 9.92724 11.2305 9.6024 11.8365 9.44566C12.4425 9.28891 13.0803 9.30662 13.6767 9.49674C14.2731 9.68686 14.8038 10.0417 15.2079 10.5204C15.612 10.9992 15.8731 11.5824 15.9611 12.2031L14.9302 12.1131C14.83 11.7035 14.6207 11.3288 14.3247 11.0289C14.0288 10.729 13.6571 10.5151 13.2494 10.4099C12.8417 10.3048 12.4131 10.3124 12.0094 10.4319C11.6056 10.5514 11.2418 10.7783 10.9566 11.0885L12.1111 12.2451H9.33997V9.47019L10.251 10.3828Z" fill="#40B6E0"/>
</svg>
