<svg width="16" height="16" viewBox="0 0 16 16" fill="none" xmlns="http://www.w3.org/2000/svg">
<path fill-rule="evenodd" clip-rule="evenodd" d="M15.0879 14.9541C14.6546 15.4144 14.0994 15.7416 13.4873 15.8974C12.8751 16.0532 12.2314 16.0312 11.6313 15.8339C11.0312 15.6367 10.4996 15.2724 10.0986 14.7836C9.69758 14.2949 9.4438 13.7018 9.36691 13.0739L10.3947 13.1638C10.4856 13.5807 10.689 13.9646 10.9826 14.2737C11.2763 14.5829 11.6489 14.8054 12.0601 14.917C12.4712 15.0287 12.9051 15.0252 13.3144 14.9069C13.7237 14.7887 14.0927 14.5602 14.3814 14.2464L13.2288 13.0929H16V15.8688L15.0879 14.9541ZM10.251 10.3829C10.681 9.92736 11.2305 9.60252 11.8365 9.44578C12.4425 9.28903 13.0803 9.30674 13.6767 9.49686C14.2731 9.68698 14.8038 10.0418 15.2079 10.5205C15.612 10.9993 15.8731 11.5825 15.9611 12.2032L14.9302 12.1133C14.83 11.7037 14.6207 11.329 14.3247 11.029C14.0288 10.7291 13.6571 10.5152 13.2494 10.4101C12.8417 10.3049 12.4131 10.3125 12.0094 10.432C11.6056 10.5515 11.2418 10.7785 10.9566 11.0887L12.1111 12.2452H9.33997V9.47031L10.251 10.3829Z" fill="#40B6E0"/>
<path fill-rule="evenodd" clip-rule="evenodd" d="M13 3C13 1.91803 10.5077 1 7.48561 1C4.46349 1 2 1.91279 2 3V13C2 14.0872 4.49227 15 7.51439 15C7.73303 15 7.94875 14.9952 8.16083 14.986C7.74041 14.2537 7.5 13.4049 7.5 12.5C7.5 12.0104 7.57038 11.5372 7.70157 11.09L7.40405 10.74C7.09553 10.7341 6.79406 10.6467 6.53029 10.4866C6.27456 10.3284 6.06862 10.1012 5.93614 9.83126C5.79332 9.54682 5.72138 9.23207 5.72644 8.91382C5.7178 8.56524 5.79586 8.21997 5.95361 7.909C6.09681 7.62786 6.31834 7.39419 6.59145 7.23621C6.88287 7.07576 7.21123 6.99442 7.54385 7.0003C7.84997 6.99818 8.15128 7.07652 8.4176 7.22747C8.68041 7.38235 8.89282 7.60994 9.02923 7.88279C9.15883 8.13853 9.23247 8.41837 9.24592 8.70371C9.43565 8.54092 9.63773 8.39211 9.85056 8.25887V7.08767H10.6632V7.84819C11.2318 7.62347 11.8515 7.5 12.5 7.5C12.6687 7.5 12.8355 7.50836 13 7.52469V3ZM11.5 3C11.5 3.54426 9.70837 4 7.51047 4C5.31256 4 3.5 3.54361 3.5 3C3.5 2.45639 5.29163 2 7.48953 2C9.68744 2 11.5 2.45902 11.5 3ZM4.4158 8.58179C4.25405 8.51529 4.1037 8.42389 3.97019 8.31093C3.91151 8.23032 3.88645 8.13007 3.90029 8.03133C3.90027 7.9783 3.91295 7.92603 3.93727 7.87891C3.96159 7.83178 3.99685 7.79117 4.04009 7.76046C4.14961 7.69143 4.27776 7.65787 4.40707 7.66435C4.71788 7.65354 5.02401 7.74232 5.28082 7.91774V7.16631C5.00115 7.0644 4.70457 7.01694 4.40707 7.02651C4.03175 6.99506 3.65812 7.10403 3.35856 7.33232C3.24314 7.42767 3.1509 7.54801 3.08884 7.68424C3.02678 7.82048 2.99651 7.96905 3.00032 8.1187C3.00032 8.56432 3.27992 8.91382 3.87408 9.17595C4.06392 9.25863 4.24292 9.36427 4.40707 9.4905C4.45047 9.52306 4.4857 9.56527 4.50997 9.6138C4.53423 9.66233 4.54687 9.71584 4.54687 9.7701C4.54689 9.82313 4.53421 9.8754 4.50989 9.92253C4.48556 9.96965 4.45031 10.0103 4.40707 10.041C4.29045 10.1168 4.15275 10.1535 4.01388 10.1458C3.64584 10.1498 3.29106 10.0086 3.02653 9.75263V10.5652C3.31735 10.7068 3.63815 10.7757 3.96145 10.7662C4.32589 10.7829 4.68642 10.6851 4.99248 10.4866C5.11509 10.3926 5.21325 10.2705 5.27866 10.1306C5.34406 9.99068 5.37477 9.83705 5.3682 9.68273C5.37667 9.45836 5.29845 9.23934 5.14976 9.0711C4.94223 8.85821 4.69213 8.69148 4.4158 8.58179ZM8.14674 9.72641C8.06472 9.82384 7.9624 9.90215 7.84694 9.95588C7.73148 10.0096 7.60567 10.0374 7.47832 10.0374C7.35097 10.0374 7.22516 10.0096 7.10969 9.95588C6.99423 9.90215 6.89191 9.82384 6.80989 9.72641C6.62761 9.47325 6.54093 9.16368 6.56524 8.85266C6.54108 8.54033 6.63112 8.22985 6.81863 7.9789C6.89712 7.87338 7.0003 7.78872 7.11912 7.73235C7.23794 7.67599 7.36878 7.64964 7.50016 7.65561C7.62752 7.65169 7.75389 7.67912 7.86816 7.73549C7.98242 7.79187 8.08109 7.87545 8.15548 7.9789C8.32762 8.23649 8.41049 8.54344 8.39139 8.85266C8.42635 9.17277 8.33895 9.49427 8.14674 9.75263V9.72641Z" fill="#40B6E0" fill-opacity="0.6"/>
</svg>
