<svg width="16" height="16" viewBox="0 0 16 16" fill="none" xmlns="http://www.w3.org/2000/svg">
<path fill-rule="evenodd" clip-rule="evenodd" d="M0 1H16V11H9V12C9 12 9.06338 13.0634 9.5 13.5C9.93662 13.9366 11 14 11 14H13V15H3V14H5C5 14 6.06338 13.9366 6.5 13.5C6.93662 13.0634 7 12 7 12V11H0V1ZM15 2H1V10H15V2Z" fill="#9AA7B0" fill-opacity="0.8"/>
<path d="M10.9999 4.25V7.74L7.99994 9.5V6L10.9999 4.25Z" fill="#40B6E0"/>
<path opacity="0.6" d="M11 4.25L8 6.01L5 4.25L8 2.5L11 4.25Z" fill="#40B6E0"/>
<path opacity="0.7" d="M8 6.01V9.5L5 7.74V4.25L8 6.01Z" fill="#40B6E0"/>
<path opacity="0.2" d="M5 7.74L8 6V9.5L5 7.74Z" fill="#40B6E0"/>
<path opacity="0.2" d="M10.9999 7.74L7.99994 6V9.5L10.9999 7.74Z" fill="#40B6E0"/>
</svg>
