<svg width="16" height="16" viewBox="0 0 16 16" fill="none" xmlns="http://www.w3.org/2000/svg">
<path d="M3.39236 7.80494C3.54779 7.77901 3.72914 7.77901 3.88457 7.80494L4.63588 6.50956L5.69809 4.64425C5.20584 4.10019 4.94677 3.40069 4.94677 2.67529H3.15918L0.931152 6.56138L1.88972 8.21944C2.35605 7.96037 2.8742 7.80494 3.39236 7.80494Z" fill="#9AA7B0" fill-opacity="0.8"/>
<path d="M12.6688 7.80494C12.5134 7.77901 12.332 7.77901 12.1766 7.80494L11.4253 6.50956L10.3631 4.64425C10.8553 4.10019 11.1144 3.40069 11.1144 2.67529H12.902L15.13 6.56138L14.1714 8.21944C13.7051 7.96037 13.187 7.80494 12.6688 7.80494Z" fill="#9AA7B0" fill-opacity="0.8"/>
<path fill-rule="evenodd" clip-rule="evenodd" d="M5.15436 8.34784L6.78649 5.49805C6.78656 5.49808 6.78663 5.49811 6.7867 5.49814L6.78668 5.49805C7.17526 5.67939 7.59622 5.77007 8.01718 5.77008C8.43814 5.77007 8.8591 5.67939 9.24768 5.49805L9.24772 5.49812C9.24777 5.49809 9.24782 5.49807 9.24787 5.49805L9.31131 5.6088L9.94717 6.71568C9.9467 6.71598 9.94623 6.71628 9.94575 6.71658L10.88 8.34784C10.1805 8.84009 9.6883 9.5914 9.58466 10.4463H8.36703L7.5 10.45L7.49947 10.4463H6.4497C6.34606 9.5914 5.85385 8.84009 5.15436 8.34784Z" fill="#9AA7B0" fill-opacity="0.8"/>
<path d="M9.08431 3.78367C9.68125 3.18673 9.68125 2.21893 9.08431 1.62201C8.48738 1.02509 7.51958 1.02509 6.92265 1.62201C6.32575 2.21893 6.32575 3.18673 6.92265 3.78367C7.51958 4.38056 8.48738 4.38056 9.08431 3.78367Z" fill="#40B6E0"/>
<path d="M12.9681 12.3726C13.7897 12.1786 14.2985 11.3553 14.1045 10.5338C13.9105 9.71223 13.0872 9.20346 12.2657 9.39745C11.4441 9.59148 10.9353 10.4147 11.1293 11.2363C11.3233 12.0579 12.1466 12.5666 12.9681 12.3726Z" fill="#40B6E0"/>
<path d="M4.47841 11.9736C5.07534 11.3767 5.07534 10.4089 4.47841 9.81196C3.88148 9.21503 2.91369 9.21503 2.31677 9.81196C1.71985 10.4089 1.71985 11.3767 2.31677 11.9736C2.91369 12.5705 3.88148 12.5705 4.47841 11.9736Z" fill="#40B6E0"/>
<path fill-rule="evenodd" clip-rule="evenodd" d="M6.34671 11.7686H7.71936H7.7457H9.66241C9.86966 12.5199 10.3619 13.1675 11.0355 13.5561L10.2065 14.9811H9.81826H9.81784H5.77675L4.94769 13.5303C5.62129 13.1416 6.11354 12.5199 6.34671 11.7686Z" fill="#9AA7B0" fill-opacity="0.8"/>
</svg>
