<svg width="16" height="17" viewBox="0 0 16 17" fill="none" xmlns="http://www.w3.org/2000/svg">
<path fill-rule="evenodd" clip-rule="evenodd" d="M13 2H3V5H13V2ZM4 4V3H6V4H4ZM13 6H3V9H9.67183C10.4448 8.37453 11.4288 8 12.5 8C12.669 8 12.8359 8.0093 13 8.02741V6ZM8.75826 10C8.27936 10.7154 8 11.5758 8 12.5018C8 12.6702 8.00926 12.8364 8.02731 13H3V10H8.75826ZM4 8V7H6V8H4ZM4 12V11H6V12H4Z" fill="#AFB1B3"/>
<path fill-rule="evenodd" clip-rule="evenodd" d="M12.332 9C12.582 9 12.827 9.026 13.062 9.077L13.16 10.057C13.488 10.169 13.786 10.344 14.04 10.57L14.934 10.165C15.259 10.529 15.511 10.961 15.664 11.437L14.868 12.012C14.9345 12.3484 14.9345 12.6946 14.868 13.031L15.664 13.606C15.511 14.083 15.259 14.516 14.933 14.879L14.04 14.474C13.7836 14.7014 13.4844 14.8755 13.16 14.986L13.062 15.966C12.5808 16.0688 12.0832 16.0688 11.602 15.966L11.504 14.986C11.1796 14.8755 10.8804 14.7014 10.624 14.474L9.731 14.879C9.40065 14.5107 9.15158 14.077 9 13.606L9.796 13.032C9.72938 12.6953 9.72938 12.3487 9.796 12.012L9 11.437C9.153 10.961 9.404 10.529 9.73 10.165L10.623 10.57C10.8796 10.3421 11.1791 10.1677 11.504 10.057L11.602 9.077C11.837 9.027 12.082 9 12.332 9ZM12.332 11.275C11.648 11.275 11.093 11.833 11.093 12.522C11.093 13.21 11.648 13.768 12.332 13.768C13.016 13.768 13.571 13.21 13.571 12.522C13.571 11.833 13.017 11.275 12.332 11.275Z" fill="#AFB1B3"/>
</svg>
