<svg width="16" height="16" viewBox="0 0 16 16" fill="none" xmlns="http://www.w3.org/2000/svg">
<path fill-rule="evenodd" clip-rule="evenodd" d="M7.48561 1C10.5077 1 13 1.91803 13 3V13C13 14.0885 10.5365 15 7.51439 15C4.49227 15 2 14.0872 2 13V3C2 1.91279 4.46349 1 7.48561 1ZM7.51047 4C9.70837 4 11.5 3.54426 11.5 3C11.5 2.45902 9.68744 2 7.48953 2C5.29163 2 3.5 2.45639 3.5 3C3.5 3.54361 5.31256 4 7.51047 4ZM12 10.5957C12 11.2177 11.576 11.9896 10.9596 12H9V11H10.87C11 10.9896 11.1079 10.3829 11.1079 10.3829L10.87 10.5H9.91034C9.39014 10.5 9 10.1942 9 9.71931V9.58919V8.13012V8H10V9.36988C10.0667 9.44517 10.1599 9.49178 10.2601 9.5H11V8H12V10.5957ZM4.94491 10.2276C5.10119 10.3295 5.31352 10.382 5.5 10.3785C5.68648 10.382 5.89881 10.3295 6.05509 10.2276C6.21138 10.1258 6.33349 9.97935 6.40561 9.80726L7 8.42674V10.5H8V7.48471C8 7.14901 7.93498 6.94343 7.62806 6.84714C7.48521 6.80029 7.3362 6.77486 7.1859 6.77168C7.0172 6.76421 6.85031 6.80908 6.70807 6.90015C6.56584 6.99122 6.4552 7.12403 6.3913 7.28043L5.5 8.9472L4.6087 7.28043C4.5448 7.12403 4.43416 6.99122 4.29193 6.90015C4.14969 6.80908 3.9828 6.76421 3.8141 6.77168C3.6638 6.77486 3.51479 6.80029 3.37194 6.84714C3.06502 6.94343 3 7.14901 3 7.48471V10.5H4V8.42674L4.59439 9.80726C4.66651 9.97935 4.78862 10.1258 4.94491 10.2276Z" fill="#40B6E0" fill-opacity="0.7"/>
</svg>
