<svg width="16" height="16" viewBox="0 0 16 16" fill="none" xmlns="http://www.w3.org/2000/svg">
<path opacity="0.7" d="M5 10.88H3.272C1.992 10.56 1 9.53598 1 8.22398C1 7.10398 1.704 6.11198 2.696 5.72798C2.696 5.59998 2.664 5.50398 2.664 5.37598C2.664 3.45598 4.2 1.91998 6.12 1.91998C7.176 1.91998 8.136 2.39998 8.808 3.19998C9.192 3.00798 9.64 2.91198 10.056 2.91198C11.3156 2.91198 12.4309 3.8289 12.782 5H12.7838H5V10.88Z" fill="#40B6E0"/>
<path fill-rule="evenodd" clip-rule="evenodd" d="M15 6H6V13H8.02746C8.00932 12.8358 8 12.669 8 12.5C8 12.331 8.00932 12.1642 8.02746 12H7V7H14V8.25606C14.356 8.3819 14.6915 8.55127 15 8.75777V6ZM13 8.02746V8H12.5H12V8.02746C12.1642 8.00932 12.331 8 12.5 8C12.669 8 12.8358 8.00932 13 8.02746ZM11 8.25606V8H10V8.75777C10.3085 8.55127 10.644 8.3819 11 8.25606ZM9 9.67133V8H8V11H8.25606C8.42811 10.5132 8.68154 10.0649 9 9.67133Z" fill="#9AA7B0" fill-opacity="0.8"/>
<path fill-rule="evenodd" clip-rule="evenodd" d="M12.5 16C14.433 16 16 14.433 16 12.5C16 10.567 14.433 9 12.5 9C10.567 9 9 10.567 9 12.5C9 14.433 10.567 16 12.5 16ZM10.7322 11.4393L11.4393 10.7322L12.5 11.7929L13.5607 10.7323L14.2678 11.4394L13.2071 12.5L14.2678 13.5607L13.5607 14.2678L12.5 13.2071L11.4393 14.2678L10.7322 13.5607L11.7929 12.5L10.7322 11.4393Z" fill="#E05555"/>
</svg>
