<svg width="16" height="16" viewBox="0 0 16 16" fill="none" xmlns="http://www.w3.org/2000/svg">
<path opacity="0.7" d="M5 10.88H3.272C1.992 10.56 1 9.53598 1 8.22398C1 7.10398 1.704 6.11198 2.696 5.72798C2.696 5.59998 2.664 5.50398 2.664 5.37598C2.664 3.45598 4.2 1.91998 6.12 1.91998C7.176 1.91998 8.136 2.39998 8.808 3.19998C9.192 3.00798 9.64 2.91198 10.056 2.91198C11.3156 2.91198 12.4309 3.8289 12.782 5H12.7838H5V10.88Z" fill="#40B6E0"/>
<path fill-rule="evenodd" clip-rule="evenodd" d="M15 6H6V13H9C9 12.6547 9.04375 12.3196 9.12602 12H7V7H14V9.12602C14.3548 9.21733 14.6905 9.35609 15 9.53513V6ZM13 9V8H12V9.12602C12.3196 9.04375 12.6547 9 13 9ZM11 9.53513V8H10V10.3542C10.286 10.0302 10.6236 9.75287 11 9.53513ZM9 8H8V11H9V8Z" fill="#9AA7B0" fill-opacity="0.8"/>
<path d="M16 13C16 14.6569 14.6569 16 13 16C11.3431 16 10 14.6569 10 13C10 11.3431 11.3431 10 13 10C14.6569 10 16 11.3431 16 13Z" fill="#62B543"/>
</svg>
