<svg width="16" height="16" viewBox="0 0 16 16" fill="none" xmlns="http://www.w3.org/2000/svg">
<path opacity="0.7" d="M5 10.88H3.272C1.992 10.56 1 9.53598 1 8.22398C1 7.10398 1.704 6.11198 2.696 5.72798C2.696 5.59998 2.664 5.50398 2.664 5.37598C2.664 3.45598 4.2 1.91998 6.12 1.91998C7.176 1.91998 8.136 2.39998 8.808 3.19998C9.192 3.00798 9.64 2.91198 10.056 2.91198C11.3156 2.91198 12.4309 3.8289 12.782 5H12.7838H5V10.88Z" fill="#40B6E0"/>
<path fill-rule="evenodd" clip-rule="evenodd" d="M15 6H6V13H11.0714L10 12H7V7H14V7.53588C14.3478 7.58608 14.6848 7.68821 15 7.83772V6ZM11 8.55051V8H10V11C10 10.0837 10.3593 9.20436 11 8.55051ZM9 8H8V11H9V8Z" fill="#9AA7B0" fill-opacity="0.8"/>
<path d="M12.875 16H14.125V14.75H12.875V16ZM13.5 8.5C12.837 8.5 12.2011 8.76339 11.7322 9.23223C11.2634 9.70107 11 10.337 11 11H12.25C12.25 10.312 12.813 9.75 13.5 9.75C14.188 9.75 14.75 10.313 14.75 11C14.75 12.25 12.875 12.094 12.875 14.125H14.125C14.125 12.719 16 12.562 16 11C16 10.337 15.7366 9.70107 15.2678 9.23223C14.7989 8.76339 14.163 8.5 13.5 8.5Z" fill="#AFB1B3"/>
</svg>
