<svg width="16" height="16" viewBox="0 0 16 16" fill="none" xmlns="http://www.w3.org/2000/svg">
<path d="M7.84694 9.95588C7.9624 9.90215 8.06472 9.82384 8.14674 9.72641V9.75263C8.33895 9.49427 8.42635 9.17277 8.39139 8.85266C8.41049 8.54344 8.32762 8.23649 8.15548 7.9789C8.08109 7.87545 7.98242 7.79187 7.86816 7.73549C7.75389 7.67912 7.62752 7.65169 7.50016 7.65561C7.36878 7.64964 7.23794 7.67599 7.11912 7.73235C7.0003 7.78872 6.89712 7.87338 6.81863 7.9789C6.63112 8.22985 6.54108 8.54033 6.56524 8.85266C6.54093 9.16368 6.62761 9.47325 6.80989 9.72641C6.89191 9.82384 6.99423 9.90215 7.10969 9.95588C7.22516 10.0096 7.35097 10.0374 7.47832 10.0374C7.60567 10.0374 7.73148 10.0096 7.84694 9.95588Z" fill="#40B6E0" fill-opacity="0.6"/>
<path fill-rule="evenodd" clip-rule="evenodd" d="M7.48561 1C10.5077 1 13 1.91803 13 3V13C13 14.0885 10.5365 15 7.51439 15C4.49227 15 2 14.0872 2 13V3C2 1.91279 4.46349 1 7.48561 1ZM7.51047 4C9.70837 4 11.5 3.54426 11.5 3C11.5 2.45902 9.68744 2 7.48953 2C5.29163 2 3.5 2.45639 3.5 3C3.5 3.54361 5.31256 4 7.51047 4ZM10.6632 7.08767V10.041H12V10.705H9.85056V7.08767H10.6632ZM3.97019 8.31093C4.1037 8.42389 4.25405 8.51529 4.4158 8.58179C4.69213 8.69148 4.94223 8.85821 5.14976 9.0711C5.29845 9.23934 5.37667 9.45836 5.3682 9.68273C5.37477 9.83705 5.34406 9.99068 5.27866 10.1306C5.21325 10.2705 5.11509 10.3926 4.99248 10.4866C4.68642 10.6851 4.32589 10.7829 3.96145 10.7662C3.63815 10.7757 3.31735 10.7068 3.02653 10.5652V9.75263C3.29106 10.0086 3.64584 10.1498 4.01388 10.1458C4.15275 10.1535 4.29045 10.1168 4.40707 10.041C4.45031 10.0103 4.48556 9.96965 4.50989 9.92253C4.53421 9.8754 4.54689 9.82313 4.54687 9.7701C4.54687 9.71584 4.53423 9.66233 4.50997 9.6138C4.4857 9.56527 4.45047 9.52306 4.40707 9.4905C4.24292 9.36427 4.06392 9.25863 3.87408 9.17595C3.27992 8.91382 3.00032 8.56432 3.00032 8.1187C2.99651 7.96905 3.02678 7.82048 3.08884 7.68424C3.1509 7.54801 3.24314 7.42767 3.35856 7.33232C3.65812 7.10403 4.03175 6.99506 4.40707 7.02651C4.70457 7.01694 5.00115 7.0644 5.28082 7.16631V7.91774C5.02401 7.74232 4.71788 7.65354 4.40707 7.66435C4.27776 7.65787 4.14961 7.69143 4.04009 7.76046C3.99685 7.79117 3.96159 7.83178 3.93727 7.87891C3.91295 7.92603 3.90027 7.9783 3.90029 8.03133C3.88645 8.13007 3.91151 8.23032 3.97019 8.31093ZM9.24767 8.84392C9.2565 9.23341 9.15666 9.61767 8.95933 9.95359C8.77435 10.2724 8.48384 10.5165 8.138 10.6439L9.18651 11.6137H8.14674L7.40405 10.74C7.09553 10.7341 6.79406 10.6467 6.53029 10.4866C6.27456 10.3284 6.06862 10.1012 5.93614 9.83126C5.79332 9.54682 5.72138 9.23207 5.72644 8.91382C5.7178 8.56524 5.79586 8.21997 5.95361 7.909C6.09681 7.62786 6.31834 7.39419 6.59145 7.23621C6.88287 7.07576 7.21123 6.99442 7.54385 7.0003C7.84997 6.99818 8.15128 7.07652 8.4176 7.22747C8.68041 7.38235 8.89282 7.60994 9.02923 7.88279C9.18001 8.18032 9.25504 8.51045 9.24767 8.84392Z" fill="#40B6E0" fill-opacity="0.6"/>
</svg>
