<svg width="16" height="16" viewBox="0 0 16 16" fill="none" xmlns="http://www.w3.org/2000/svg">
<path d="M10.5 4.19604V7.10438L8 8.57105V5.65438L10.5 4.19604Z" fill="#40B6E0"/>
<path opacity="0.6" d="M10.5 4.19613L8 5.66279L5.5 4.19613L8 2.73779L10.5 4.19613Z" fill="#40B6E0"/>
<path opacity="0.7" d="M8 5.66271V8.57105L5.5 7.10438V4.19604L8 5.66271Z" fill="#40B6E0"/>
<path opacity="0.2" d="M5.5 7.10454L8 5.65454V8.57121L5.5 7.10454Z" fill="#40B6E0"/>
<path opacity="0.2" d="M10.5 7.10454L8 5.65454V8.57121L10.5 7.10454Z" fill="#40B6E0"/>
<path fill-rule="evenodd" clip-rule="evenodd" d="M15 1H1V10H7V11C7 11 6.93662 12.0634 6.5 12.5C6.06338 12.9366 5 13 5 13H4V14H9.12602C9.04375 13.6804 9 13.3453 9 13C9 12.608 9.05639 12.2292 9.16149 11.8712C9.02627 11.4407 9 11 9 11V10H10.3542C11.0593 9.37764 11.9856 9 13 9C13.7286 9 14.4117 9.19479 15 9.53513V1ZM13 9H14V2H2V9H13Z" fill="#9AA7B0" fill-opacity="0.8"/>
<path d="M16 13C16 14.6569 14.6569 16 13 16C11.3431 16 10 14.6569 10 13C10 11.3431 11.3431 10 13 10C14.6569 10 16 11.3431 16 13Z" fill="#62B543"/>
</svg>
