<svg width="16" height="16" viewBox="0 0 16 16" fill="none" xmlns="http://www.w3.org/2000/svg">
<path d="M10.5 4.19604V7.10438L8 8.57105V5.65438L10.5 4.19604Z" fill="#40B6E0"/>
<path opacity="0.6" d="M10.5 4.19613L8 5.66279L5.5 4.19613L8 2.73779L10.5 4.19613Z" fill="#40B6E0"/>
<path opacity="0.7" d="M8 5.66271V8.57105L5.5 7.10438V4.19604L8 5.66271Z" fill="#40B6E0"/>
<path opacity="0.2" d="M5.5 7.10454L8 5.65454V8.57121L5.5 7.10454Z" fill="#40B6E0"/>
<path opacity="0.2" d="M10.5 7.10454L8 5.65454V8.57121L10.5 7.10454Z" fill="#40B6E0"/>
<path fill-rule="evenodd" clip-rule="evenodd" d="M15 1H1V10H7V11C7 11 6.93662 12.0634 6.5 12.5C6.06338 12.9366 5 13 5 13H4V14H7.7289C7.58018 13.5265 7.5 13.0226 7.5 12.5C7.5 11.1373 8.04516 9.90188 8.92928 9H2V2H14V7.7289C14.3517 7.83935 14.6866 7.98761 15 8.16891V1Z" fill="#9AA7B0" fill-opacity="0.8"/>
<path fill-rule="evenodd" clip-rule="evenodd" d="M15.0879 14.9543C14.6546 15.4145 14.0994 15.7417 13.4873 15.8975C12.8751 16.0533 12.2314 16.0313 11.6313 15.8341C11.0312 15.6368 10.4996 15.2725 10.0986 14.7838C9.69758 14.295 9.4438 13.7019 9.36691 13.074L10.3947 13.164C10.4857 13.5808 10.689 13.9647 10.9826 14.2739C11.2763 14.583 11.6489 14.8055 12.0601 14.9171C12.4712 15.0288 12.9051 15.0253 13.3144 14.9071C13.7237 14.7888 14.0927 14.5604 14.3814 14.2465L13.2288 13.093H16V15.8689L15.0879 14.9543ZM10.2511 10.3831C10.681 9.92748 11.2305 9.60264 11.8365 9.4459C12.4425 9.28916 13.0803 9.30686 13.6767 9.49698C14.2731 9.6871 14.8038 10.0419 15.2079 10.5207C15.612 10.9994 15.8731 11.5826 15.961 12.2034L14.9302 12.1134C14.83 11.7038 14.6207 11.3291 14.3247 11.0292C14.0288 10.7292 13.6571 10.5153 13.2494 10.4102C12.8417 10.3051 12.4131 10.3126 12.0094 10.4321C11.6056 10.5516 11.2418 10.7786 10.9566 11.0888L12.1111 12.2453H9.33997V9.47043L10.2511 10.3831Z" fill="#40B6E0"/>
</svg>
