<svg width="16" height="16" viewBox="0 0 16 16" fill="none" xmlns="http://www.w3.org/2000/svg">
<path fill-rule="evenodd" clip-rule="evenodd" d="M7.79156 3.48671C9.70411 2.46477 11.3776 2.46477 12.4705 2.60103C11.2068 1.54503 9.60165 1 7.99647 1C7.27926 1 6.56206 1.10219 5.84485 1.34065C6.49375 2.09006 7.14265 2.80542 7.79156 3.48671ZM3.4547 6.10953C3.83038 5.97327 4.24022 5.93921 4.6159 6.0414C4.65005 5.9903 4.69274 5.94772 4.73543 5.90514C4.77812 5.86256 4.82081 5.81998 4.85497 5.76889C5.50387 5.0876 6.18692 4.5085 6.80167 4.09972C6.05031 3.31624 5.40141 2.53276 4.92327 1.71521C4.51344 1.9196 4.10361 2.15805 3.72793 2.43056L3.67973 2.4726C3.42638 2.69347 3.20147 2.88954 2.97657 3.14592C2.87411 3.69095 2.83995 4.78102 3.4547 6.10953ZM2.49849 6.8249C1.91789 7.57432 1.91789 8.59626 2.49849 9.37974C2.52268 9.40388 2.54259 9.42801 2.56126 9.45063C2.59527 9.49187 2.62514 9.52807 2.66925 9.55007C2.39603 10.4357 2.29357 11.2533 2.25942 11.9686C0.551778 9.55006 0.620084 6.38207 2.22526 4.03162C2.0545 4.71291 2.02035 5.66671 2.49849 6.8249ZM9.08954 4.81495C9.9092 5.63249 10.6947 6.38191 11.4119 6.99507C12.0608 6.62036 12.8805 6.79069 13.3586 7.36978C13.5674 7.64042 13.6613 7.94924 13.6638 8.24956L14.8335 9.41924C15.2656 7.48838 14.8618 5.37423 13.5635 3.69082C13.5294 3.65675 13.4952 3.62269 13.4952 3.58862C13.477 3.59318 13.4295 3.59469 13.3548 3.59706C12.8712 3.61243 11.2495 3.66396 9.08954 4.81495ZM9.94919 13H11V14.3204C10.0527 14.7735 9.03315 15 7.99742 15C6.39224 15 4.78706 14.455 3.52341 13.399C3.4551 12.6496 3.52341 11.4914 4.00155 10.231C4.34308 10.231 4.6846 10.1969 4.99198 10.0607C5.09444 10.1458 5.18836 10.2225 5.28228 10.2991C5.3762 10.3758 5.47012 10.4524 5.57258 10.5376C6.25563 11.0826 6.93869 11.4914 7.62174 11.832C7.59049 12.1437 7.6736 12.4554 7.84491 12.7409L7.58582 13H8.06044C8.55293 13.4552 9.29264 13.5183 9.84167 13.0924C9.88023 13.0636 9.91607 13.032 9.94919 13ZM11.1499 9.43599L9.73814 10.8477C9.28717 10.5161 8.67015 10.5036 8.16735 10.8101C7.58675 10.4694 6.93785 10.0606 6.28895 9.54968C6.22064 9.49858 6.16088 9.44748 6.10111 9.39639L6.1011 9.39638C6.04134 9.34528 5.98157 9.29419 5.91327 9.2431C6.3231 8.62993 6.35725 7.81239 6.01573 7.1311L6.2548 6.89264C6.9037 6.31355 7.51845 5.80258 8.09905 5.42787C8.98702 6.21135 9.90914 6.99484 10.7971 7.67613C10.5922 8.1871 10.6264 8.76619 10.9679 9.2431C11.0236 9.3135 11.0846 9.37786 11.1499 9.43599Z" fill="#40B6E0" fill-opacity="0.7"/>
<path fill-rule="evenodd" clip-rule="evenodd" d="M14 12H16L13 9L10 12H12V16H14V12Z" fill="#40B6E0"/>
</svg>
