<svg width="16" height="16" viewBox="0 0 16 16" fill="none" xmlns="http://www.w3.org/2000/svg">
<path fill-rule="evenodd" clip-rule="evenodd" d="M15.0879 14.9541C14.6546 15.4144 14.0994 15.7416 13.4873 15.8974C12.8751 16.0532 12.2314 16.0312 11.6313 15.8339C11.0312 15.6367 10.4996 15.2724 10.0986 14.7836C9.69758 14.2949 9.4438 13.7018 9.36691 13.0739L10.3947 13.1638C10.4856 13.5807 10.689 13.9646 10.9826 14.2737C11.2763 14.5829 11.6489 14.8054 12.0601 14.917C12.4712 15.0287 12.9051 15.0252 13.3144 14.9069C13.7237 14.7887 14.0927 14.5602 14.3814 14.2464L13.2288 13.0929H16V15.8688L15.0879 14.9541ZM10.251 10.3829C10.681 9.92736 11.2305 9.60252 11.8365 9.44578C12.4425 9.28903 13.0803 9.30674 13.6767 9.49686C14.2731 9.68698 14.8038 10.0418 15.2079 10.5205C15.612 10.9993 15.8731 11.5825 15.9611 12.2032L14.9302 12.1133C14.83 11.7037 14.6207 11.329 14.3247 11.029C14.0288 10.7291 13.6571 10.5152 13.2494 10.4101C12.8417 10.3049 12.4131 10.3125 12.0094 10.432C11.6056 10.5515 11.2418 10.7785 10.9566 11.0887L12.1111 12.2452H9.33997V9.47031L10.251 10.3829Z" fill="#40B6E0"/>
<path fill-rule="evenodd" clip-rule="evenodd" d="M11.6512 2.48667C10.6363 2.36015 9.08239 2.36015 7.30644 3.30909C6.70389 2.67646 6.10134 2.0122 5.49879 1.31631C6.16477 1.09489 6.83075 1 7.49672 1C8.98725 1 10.4778 1.5061 11.6512 2.48667ZM4.35759 5.68136C4.00875 5.58646 3.62819 5.6181 3.27934 5.74462C2.7085 4.511 2.74021 3.4988 2.83535 2.9927C3.0442 2.75464 3.25304 2.57257 3.48828 2.36748L3.48829 2.36747L3.48829 2.36747L3.53305 2.32844C3.88189 2.07539 4.26245 1.85397 4.64301 1.66418C5.087 2.42333 5.68955 3.15085 6.38724 3.87837C5.8164 4.25795 5.18214 4.79568 4.57958 5.42831C4.54787 5.47575 4.50823 5.51529 4.46859 5.55483C4.42895 5.59437 4.3893 5.63391 4.35759 5.68136ZM2.39145 8.78119C1.85232 8.05367 1.85232 7.10473 2.39145 6.40884C1.94746 5.33338 1.97918 4.4477 2.13774 3.81507C0.64722 5.99763 0.583794 8.93935 2.16946 11.1852C2.20117 10.5209 2.29631 9.76176 2.55002 8.93935C2.50906 8.91892 2.48133 8.8853 2.44974 8.84702C2.43241 8.82601 2.41392 8.8036 2.39145 8.78119ZM10.6682 6.56685C10.0022 5.99749 9.27283 5.3016 8.51171 4.54245C10.5174 3.47368 12.0232 3.42583 12.4724 3.41155C12.5416 3.40935 12.5858 3.40795 12.6027 3.40372C12.6027 3.43535 12.6344 3.46698 12.6662 3.49862C13.6307 4.74925 14.0635 6.25589 13.9925 7.72656C13.5937 7.60197 13.1733 7.52601 12.7385 7.50559C12.7022 7.301 12.6175 7.09844 12.4759 6.9148C12.0319 6.37707 11.2708 6.21891 10.6682 6.56685ZM10.0236 8.15536C9.94412 7.83869 9.9744 7.50578 10.0973 7.19927C9.27277 6.56664 8.41651 5.83912 7.59197 5.1116C7.05284 5.45955 6.482 5.93402 5.87945 6.47175L5.65746 6.69317C5.97459 7.3258 5.94288 8.08495 5.56232 8.65431C5.62574 8.70176 5.68124 8.74921 5.73674 8.79665C5.79224 8.8441 5.84774 8.89155 5.91116 8.93899C6.51372 9.41346 7.11627 9.79304 7.65539 10.1094C7.83312 10.001 8.02622 9.93562 8.22033 9.91314C8.66148 9.18488 9.28327 8.57824 10.0236 8.15536ZM7.51547 12.1037C7.47576 12.0639 7.43799 12.0212 7.40246 11.9756C7.21218 11.6909 7.11704 11.3746 7.14875 11.0583C6.51448 10.742 5.88022 10.3624 5.24595 9.85629C5.15081 9.77721 5.0636 9.70604 4.97639 9.63487C4.88918 9.5637 4.80197 9.49253 4.70683 9.41345C4.42141 9.53998 4.10428 9.57161 3.78714 9.57161C3.34316 10.742 3.27973 11.8174 3.34316 12.5133C4.51655 13.4939 6.00707 14 7.4976 14C7.57438 14 7.65107 13.9987 7.72764 13.996C7.57972 13.5236 7.5 13.0211 7.5 12.5C7.5 12.3666 7.50522 12.2345 7.51547 12.1037Z" fill="#40B6E0" fill-opacity="0.7"/>
</svg>
