<svg width="16" height="16" viewBox="0 0 16 16" fill="none" xmlns="http://www.w3.org/2000/svg">
<path d="M3.4547 6.10965C3.83038 5.97339 4.24022 5.93933 4.6159 6.04152C4.6842 5.93933 4.78666 5.8712 4.85497 5.76901C5.50387 5.08772 6.18692 4.50862 6.80167 4.09985C6.05031 3.31636 5.40141 2.53288 4.92327 1.71533C4.51344 1.91972 4.10361 2.15817 3.72793 2.43069C3.4547 2.66914 3.21564 2.87353 2.97657 3.14604C2.87411 3.69107 2.83995 4.78114 3.4547 6.10965Z" fill="#40B6E0" fill-opacity="0.6"/>
<path d="M7.79156 3.48671C9.70411 2.46477 11.3776 2.46477 12.4705 2.60103C11.2068 1.54503 9.60165 1 7.99647 1C7.27926 1 6.56206 1.10219 5.84485 1.34065C6.49375 2.09006 7.14265 2.80542 7.79156 3.48671Z" fill="#40B6E0" fill-opacity="0.6"/>
<path d="M2.49848 9.37986C1.91789 8.59638 1.91789 7.57445 2.49848 6.82503C2.02035 5.66683 2.0545 4.71303 2.22526 4.03174C0.620084 6.38219 0.551778 9.55019 2.25942 11.9688C2.29357 11.2534 2.39603 10.4359 2.66925 9.55019C2.60094 9.51612 2.56679 9.44799 2.49848 9.37986Z" fill="#40B6E0" fill-opacity="0.6"/>
<path d="M9.08954 4.81495C9.9092 5.63249 10.6947 6.38191 11.4119 6.99507C12.0608 6.62036 12.8805 6.79069 13.3586 7.36978C13.7002 7.81262 13.7343 8.35765 13.5635 8.80049C14.11 9.24333 14.4857 9.51585 14.7589 9.72023C15.3053 7.71043 14.9297 5.46217 13.5635 3.69082C13.5294 3.65675 13.4952 3.62269 13.4952 3.58862C13.3586 3.62269 11.5827 3.48643 9.08954 4.81495Z" fill="#40B6E0" fill-opacity="0.6"/>
<path d="M13.0854 9.51549C12.4364 10.0265 11.4802 9.8902 10.9679 9.24297C10.6264 8.76607 10.5922 8.18697 10.7971 7.67601C9.90914 6.99472 8.98702 6.21123 8.09905 5.42775C8.06489 5.39368 8.06489 5.39368 8.03074 5.35962C8.06489 5.39368 8.06489 5.39368 8.09905 5.42775C7.51845 5.80246 6.9037 6.31343 6.2548 6.89252C6.18649 6.96065 6.08403 7.06284 6.01573 7.13097C6.35726 7.81226 6.3231 8.62981 5.91327 9.24297C6.04988 9.34517 6.15234 9.44736 6.28895 9.54955C6.93785 10.0605 7.58675 10.4693 8.16735 10.8099C8.7821 10.4352 9.56761 10.5374 10.0116 11.1165C10.1482 11.2868 10.2165 11.4912 10.2507 11.6616C11.9925 12.1725 13.2561 12.0022 13.7001 11.9C14.0416 11.4231 14.2807 10.9121 14.4856 10.3671C14.2124 10.1968 13.7684 9.8902 13.0854 9.4133C13.1537 9.44736 13.1195 9.48142 13.0854 9.51549Z" fill="#40B6E0" fill-opacity="0.6"/>
<path d="M9.84167 13.0923C9.22692 13.5692 8.3731 13.4329 7.89496 12.8198C7.69005 12.5132 7.58759 12.1725 7.62174 11.8319C6.93869 11.4913 6.25563 11.0825 5.57258 10.5374C5.36766 10.3671 5.19689 10.2309 4.99198 10.0605C4.6846 10.1968 4.34308 10.2309 4.00155 10.2309C3.52341 11.4913 3.4551 12.6494 3.52341 13.3989C4.78706 14.4549 6.39224 14.9999 7.99742 14.9999C9.50014 14.9999 10.9687 14.523 12.2324 13.5692C12.4373 13.3989 12.6422 13.2285 12.8471 13.0582C12.1299 13.0582 11.2078 13.0242 10.149 12.7857C10.0807 12.8538 9.97828 12.9901 9.84167 13.0923Z" fill="#40B6E0" fill-opacity="0.6"/>
</svg>
