<svg width="16" height="16" viewBox="0 0 16 16" fill="none" xmlns="http://www.w3.org/2000/svg">
<path fill-rule="evenodd" clip-rule="evenodd" d="M15.0879 14.9541C14.6546 15.4144 14.0994 15.7416 13.4873 15.8974C12.8751 16.0532 12.2314 16.0312 11.6313 15.8339C11.0312 15.6367 10.4996 15.2724 10.0986 14.7836C9.69758 14.2949 9.4438 13.7018 9.36691 13.0739L10.3947 13.1638C10.4856 13.5807 10.689 13.9646 10.9826 14.2737C11.2763 14.5829 11.6489 14.8054 12.0601 14.917C12.4712 15.0287 12.9051 15.0252 13.3144 14.9069C13.7237 14.7887 14.0927 14.5602 14.3814 14.2464L13.2288 13.0929H16V15.8688L15.0879 14.9541ZM10.251 10.3829C10.681 9.92736 11.2305 9.60252 11.8365 9.44578C12.4425 9.28903 13.0803 9.30674 13.6767 9.49686C14.2731 9.68698 14.8038 10.0418 15.2079 10.5205C15.612 10.9993 15.8731 11.5825 15.9611 12.2032L14.9302 12.1133C14.83 11.7037 14.6207 11.329 14.3247 11.029C14.0288 10.7291 13.6571 10.5152 13.2494 10.4101C12.8417 10.3049 12.4131 10.3125 12.0094 10.432C11.6056 10.5515 11.2418 10.7785 10.9566 11.0887L12.1111 12.2452H9.33997V9.47031L10.251 10.3829Z" fill="#40B6E0"/>
<path fill-rule="evenodd" clip-rule="evenodd" d="M7.30644 3.30909C9.08239 2.36015 10.6363 2.36015 11.6512 2.48667C10.4778 1.5061 8.98725 1 7.49672 1C6.83075 1 6.16477 1.09489 5.49879 1.31631C6.10134 2.0122 6.70389 2.67646 7.30644 3.30909ZM3.27934 5.74462C3.62819 5.6181 4.00875 5.58646 4.35759 5.68136C4.3893 5.63391 4.42895 5.59437 4.46859 5.55483C4.50823 5.51529 4.54787 5.47575 4.57958 5.42831C5.18214 4.79568 5.8164 4.25795 6.38724 3.87837C5.68955 3.15085 5.087 2.42333 4.64301 1.66418C4.26245 1.85397 3.88189 2.07539 3.53305 2.32844L3.48829 2.36747L3.48829 2.36747L3.48828 2.36748C3.25304 2.57257 3.0442 2.75464 2.83535 2.9927C2.74021 3.4988 2.7085 4.511 3.27934 5.74462ZM1.05169 8.31194C1.11569 8.16118 1.19821 8.01012 1.30331 7.86546C1.48598 7.61404 1.72507 7.39988 2.01683 7.2475C2.07011 6.94965 2.19498 6.66244 2.39145 6.40884C1.94746 5.33338 1.97918 4.4477 2.13774 3.81507C1.23131 5.14236 0.85265 6.75039 1.05169 8.31194ZM6.58858 13.9371C6.8898 13.979 7.1937 14 7.4976 14C7.57438 14 7.65107 13.9987 7.72764 13.996C7.57972 13.5236 7.5 13.0211 7.5 12.5C7.5 12.3666 7.50522 12.2345 7.51547 12.1037C7.47576 12.0639 7.43799 12.0212 7.40246 11.9756C7.21218 11.6909 7.11704 11.3746 7.14875 11.0583C6.51448 10.742 5.88022 10.3624 5.24595 9.85629C5.24439 9.85499 5.24283 9.8537 5.24128 9.8524L5.23934 9.88084C5.23257 9.9882 5.23217 10.0492 5.23644 10.096C5.2401 10.1361 5.24663 10.1563 5.25269 10.1701C5.25843 10.1832 5.27506 10.2166 5.32665 10.2696C5.97783 10.9395 6.59274 11.9846 6.59628 13.2337C6.59652 13.3174 6.59401 13.402 6.58858 13.4875V13.9371ZM8.51171 4.54245C9.27283 5.3016 10.0022 5.99749 10.6682 6.56685C11.2708 6.21891 12.0319 6.37707 12.4759 6.9148C12.6175 7.09844 12.7022 7.301 12.7385 7.50559C13.1733 7.52601 13.5937 7.60197 13.9925 7.72656C14.0635 6.25589 13.6307 4.74925 12.6662 3.49862C12.6344 3.46698 12.6027 3.43535 12.6027 3.40372C12.5858 3.40795 12.5416 3.40935 12.4724 3.41155C12.0232 3.42583 10.5174 3.47368 8.51171 4.54245ZM10.0973 7.19927C9.9744 7.50578 9.94412 7.83869 10.0236 8.15536C9.28327 8.57824 8.66148 9.18488 8.22033 9.91314C8.02622 9.93562 7.83312 10.001 7.65539 10.1094C7.11627 9.79304 6.51372 9.41346 5.91116 8.93899C5.84774 8.89155 5.79224 8.8441 5.73674 8.79665C5.68124 8.74921 5.62574 8.70176 5.56232 8.65431C5.94288 8.08495 5.97459 7.3258 5.65746 6.69317L5.87945 6.47175C6.482 5.93402 7.05284 5.45955 7.59197 5.1116C8.41651 5.83912 9.27277 6.56664 10.0973 7.19927Z" fill="#40B6E0" fill-opacity="0.7"/>
<path d="M2.47802 10.6719C2.61702 10.7753 2.70502 10.8613 2.81135 10.8613C3.00602 10.8613 3.11102 10.7439 3.31535 10.6179C3.45435 10.5316 3.70135 10.4469 3.70135 10.3286C3.70135 10.2133 3.53702 10.1733 3.30102 10.0709C3.06102 9.96726 3.00768 9.87793 2.83102 9.87793C2.65835 9.87793 2.59002 9.9906 2.41468 10.1016C2.25135 10.2053 2.12502 10.2343 2.12502 10.3286C2.12302 10.4659 2.30202 10.5413 2.47802 10.6719Z" fill="#EEB82F"/>
<path d="M0.525329 15.4178C0.650329 15.4178 0.872662 15.3501 1.527 15.6478C1.92233 15.8278 2.23466 15.5178 2.159 15.2274C2.07666 14.9131 1.80966 14.7694 1.674 14.4858C1.465 14.0481 1.21 13.5568 0.957329 13.8691C0.867329 13.9801 0.746662 14.1284 0.474995 14.2438C0.278662 14.3298 0.284329 14.3948 0.315662 14.5944L0.315855 14.5957C0.336157 14.7258 0.3614 14.8876 0.278995 15.0421C0.181662 15.2248 0.266329 15.4178 0.525329 15.4178Z" fill="#EEB82F"/>
<path d="M5.86033 14.3497C5.677 14.201 5.74833 13.8727 5.558 13.7107C5.74233 12.589 5.22567 11.6003 4.60967 10.9667C4.09267 10.435 4.25933 9.91767 4.25933 9.47C4.25933 8.75467 3.96567 8 3.076 8C2.125 8 1.86433 8.79333 1.855 9.246C1.83233 10.3333 2.07467 10.616 1.43833 11.4073C0.689667 12.3383 0.579333 13.267 0.748333 13.7597C0.669333 13.8517 0.562667 13.9537 0.363333 14.038C-0.187333 14.278 0.216333 14.6797 0.064 14.9647C0.0206666 15.0457 0 15.1303 0 15.2113C0 15.4613 0.198667 15.6777 0.559667 15.6453C1.04667 15.602 1.496 15.947 1.78667 15.947C2.04333 15.947 2.254 15.801 2.352 15.6C2.811 15.487 3.37767 15.5013 3.83633 15.6197C3.91867 15.85 4.142 16 4.39033 16C4.934 16 5.03867 15.3837 5.66233 15.175C5.887 15.1 6 14.882 6 14.679C6 14.549 5.95367 14.4253 5.86033 14.3497ZM2.81133 10.8613C2.705 10.8613 2.617 10.7753 2.478 10.672C2.302 10.5413 2.123 10.466 2.125 10.3287C2.125 10.2343 2.25133 10.2053 2.41467 10.1017C2.59 9.99067 2.65833 9.878 2.831 9.878C3.00767 9.878 3.061 9.96733 3.301 10.071C3.537 10.1733 3.70133 10.2133 3.70133 10.3287C3.70133 10.447 3.45433 10.5317 3.31533 10.618C3.111 10.744 3.006 10.8613 2.81133 10.8613ZM1.527 15.6477C0.872667 15.35 0.650333 15.4177 0.525333 15.4177C0.266333 15.4177 0.181667 15.2247 0.279 15.042C0.361667 14.887 0.336 14.7247 0.315667 14.5943C0.284333 14.3947 0.278667 14.3297 0.475 14.2437C0.746667 14.1283 0.867333 13.98 0.957333 13.869C1.21 13.5567 1.465 14.048 1.674 14.4857C1.80967 14.7693 2.07667 14.913 2.159 15.2273C2.23467 15.5177 1.92233 15.8277 1.527 15.6477ZM3.856 15.023C3.39467 15.2473 2.807 15.3503 2.36733 15.1227C2.30233 14.935 2.19833 14.8137 2.08633 14.6917C2.266 14.6443 2.39933 14.4203 2.23967 14.1953C2.06933 13.955 1.72133 13.7873 1.36967 13.5153C1.04067 13.261 0.936667 12.634 1.38467 11.9333C1.16633 12.554 1.294 13.126 1.40367 13.2897C1.42633 12.9603 1.45233 12.4103 1.90233 11.7513C2.12933 11.4187 2.13267 10.9793 2.13767 10.7047L2.34433 10.846C2.49633 10.9583 2.62367 11.082 2.80633 11.082C3.07633 11.082 3.22567 10.9267 3.43367 10.7977C3.515 10.7477 3.638 10.697 3.74133 10.6267C3.91467 11.452 4.63267 12.4447 4.673 13.01C4.84 12.666 4.62567 11.8387 4.62567 11.8387C4.90633 12.267 4.92867 12.624 4.941 13.062C5.13733 13.1423 5.348 13.3517 5.36733 13.6273L5.28567 13.618C5.24367 13.3117 4.41667 12.8617 4.34233 13.4383C3.94567 13.4987 4.09 14.127 4.01 14.5343C3.97333 14.7207 3.90533 14.868 3.856 15.023ZM5.47133 15.0093C5.143 15.136 4.92133 15.405 4.769 15.572C4.47567 15.894 4.08767 15.7397 4.04633 15.4383C4.00267 15.1163 4.16633 14.9407 4.237 14.5803C4.30133 14.2513 4.22933 13.745 4.38067 13.691C4.479 14.2753 5.06933 14.0297 5.204 13.8703C5.423 13.8703 5.44133 13.9443 5.49033 14.1493C5.521 14.2777 5.56333 14.3857 5.683 14.5127C5.82233 14.6617 5.77967 14.8903 5.47133 15.0093Z" fill="#323130"/>
<path d="M4.76903 15.5719C4.92136 15.4049 5.14303 15.1359 5.47136 15.0093C5.77969 14.8903 5.82236 14.6616 5.68303 14.5126C5.56336 14.3856 5.52103 14.2776 5.49036 14.1493C5.44136 13.9443 5.42303 13.8703 5.20403 13.8703C5.06936 14.0296 4.47903 14.2753 4.38069 13.6909C4.22936 13.7449 4.30136 14.2513 4.23703 14.5803C4.16636 14.9406 4.00269 15.1163 4.04636 15.4383C4.08769 15.7396 4.47569 15.8939 4.76903 15.5719Z" fill="#EEB82F"/>
<path d="M2.36733 15.1227C2.807 15.3504 3.39466 15.2474 3.856 15.023C3.90533 14.868 3.97333 14.7207 4.01 14.5344C4.09 14.127 3.94566 13.4987 4.34233 13.4384C4.41666 12.8617 5.24366 13.3117 5.28566 13.618L5.36733 13.6274C5.348 13.3517 5.13733 13.1424 4.941 13.062C4.92866 12.624 4.90633 12.267 4.62566 11.8387C4.62566 11.8387 4.84 12.666 4.673 13.01C4.63266 12.4447 3.91466 11.452 3.74133 10.6267C3.638 10.697 3.515 10.7477 3.43366 10.7977C3.22566 10.9267 3.07633 11.082 2.80633 11.082C2.62366 11.082 2.49633 10.9584 2.34433 10.846L2.13766 10.7047C2.13266 10.9794 2.12933 11.4187 1.90233 11.7514C1.45233 12.4104 1.42633 12.9604 1.40366 13.2897C1.294 13.126 1.16633 12.554 1.38466 11.9334C0.936662 12.634 1.04066 13.261 1.36966 13.5154C1.72133 13.7874 2.06933 13.955 2.23966 14.1954C2.39933 14.4204 2.266 14.6444 2.08633 14.6917C2.19833 14.8137 2.30233 14.935 2.36733 15.1227Z" fill="white"/>
<path d="M2.29335 10.4177C2.42535 10.5297 2.58768 10.674 2.80468 10.674C3.05168 10.674 3.24002 10.489 3.47468 10.3967C3.55635 10.3644 3.50935 10.237 3.42702 10.2694C3.18535 10.3647 3.00702 10.5377 2.80468 10.5377C2.63668 10.5377 2.50668 10.422 2.37768 10.3127C2.31002 10.2554 2.22568 10.3607 2.29335 10.4177Z" fill="#201F1E"/>
<path d="M3.55267 9.94103C3.69333 9.68669 3.66033 9.17003 3.36633 9.12303C3.102 9.08069 2.90333 9.35203 2.88267 9.65969C2.95033 9.66536 3.006 9.68069 3.057 9.70203C3.075 9.55469 3.159 9.38269 3.28933 9.39469C3.49467 9.41369 3.49567 9.71169 3.43433 9.89269L3.55267 9.94103Z" fill="white"/>
<path d="M2.59133 9.71169C2.59033 9.43936 2.45733 9.17736 2.232 9.23336C2.015 9.28736 2.01467 9.76269 2.15467 9.99836L2.25667 9.94169C2.18033 9.87636 2.158 9.55803 2.295 9.51536C2.423 9.47603 2.474 9.66069 2.488 9.77503L2.59133 9.71169Z" fill="white"/>
</svg>
