<svg width="16" height="16" viewBox="0 0 16 16" fill="none" xmlns="http://www.w3.org/2000/svg">
<path fill-rule="evenodd" clip-rule="evenodd" d="M7.00001 2H5.00001V4H7.00001V2ZM2.00001 5H4.00001V7H2.00001V5ZM5.00001 5H7.00001V7H5.00001V5ZM12.873 7.112L13 7.212L12.947 7.367C12.8628 7.57979 12.7331 7.7716 12.567 7.929C12.318 8.176 11.865 8.47 11.129 8.47H11.0743L9.90841 7.78991C9.91982 7.78409 9.93103 7.77813 9.94201 7.772C9.67701 7.354 9.60201 6.864 9.72601 6.343C9.79105 6.07027 9.90196 5.81057 10.054 5.575L10.176 5.4L10.361 5.507L10.3625 5.50788C10.4117 5.53752 11.1506 5.98271 11.282 6.884C11.462 6.854 11.642 6.839 11.825 6.838C12.513 6.838 12.838 7.084 12.873 7.112ZM9 7.998H0.0100092C-0.0359908 9.245 0.0880091 10.2 0.381009 10.865C0.821009 11.861 1.31101 12.502 2.12601 12.89C2.94101 13.279 3.44301 13.41 4.61101 13.41C5.13862 13.4118 5.66525 13.3643 6.18401 13.268C6.90549 13.1356 7.59973 12.8835 8.23801 12.522C8.50654 12.3665 8.76135 12.1893 9 11.9925V7.998ZM3.86001 11.2C4.19153 11.2 4.50947 11.0683 4.74389 10.8339C4.97831 10.5995 5.11001 10.2815 5.11001 9.95C5.11001 9.61848 4.97831 9.30054 4.74389 9.06612C4.50947 8.8317 4.19153 8.7 3.86001 8.7C3.52849 8.7 3.21055 8.8317 2.97613 9.06612C2.7417 9.30054 2.61001 9.61848 2.61001 9.95C2.61001 10.2815 2.7417 10.5995 2.97613 10.8339C3.21055 11.0683 3.52849 11.2 3.86001 11.2ZM4.86001 9.95C4.86001 10.5023 4.41229 10.95 3.86001 10.95C3.30772 10.95 2.86001 10.5023 2.86001 9.95C2.86001 9.39771 3.30772 8.95 3.86001 8.95C4.41229 8.95 4.86001 9.39771 4.86001 9.95Z" fill="#34A2F2"/>
<path d="M16 12.5L10 9V16L16 12.5Z" fill="#62B543"/>
</svg>
