<svg width="16" height="16" viewBox="0 0 16 16" fill="none" xmlns="http://www.w3.org/2000/svg">
<path fill-rule="evenodd" clip-rule="evenodd" d="M7.79156 3.48671C9.70411 2.46477 11.3776 2.46477 12.4705 2.60103C11.2068 1.54503 9.60165 1 7.99647 1C7.27926 1 6.56206 1.10219 5.84485 1.34065C6.49375 2.09006 7.14265 2.80542 7.79156 3.48671ZM3.4547 6.10953C3.83038 5.97327 4.24022 5.93921 4.6159 6.0414C4.65005 5.9903 4.69274 5.94772 4.73543 5.90514C4.77812 5.86256 4.82081 5.81998 4.85497 5.76889C5.50387 5.0876 6.18692 4.5085 6.80167 4.09973C6.05031 3.31624 5.40141 2.53276 4.92327 1.71521C4.51344 1.9196 4.10361 2.15805 3.72793 2.43056L3.67973 2.4726C3.42638 2.69347 3.20147 2.88954 2.97657 3.14592C2.87411 3.69095 2.83995 4.78102 3.4547 6.10953ZM2.49848 6.8249C1.91789 7.57432 1.91789 8.59626 2.49848 9.37974C2.52268 9.40388 2.54259 9.42801 2.56126 9.45063C2.59527 9.49187 2.62514 9.52807 2.66925 9.55007C2.39603 10.4357 2.29357 11.2533 2.25942 11.9686C0.551778 9.55006 0.620084 6.38207 2.22526 4.03162C2.0545 4.71291 2.02035 5.66671 2.49848 6.8249ZM9.08954 4.81495C9.9092 5.63249 10.6947 6.38191 11.4119 6.99507C12.0608 6.62036 12.8805 6.79069 13.3586 7.36978C13.7002 7.81262 13.7343 8.35765 13.5635 8.80049C14.0245 9.17405 14.3639 9.42641 14.6229 9.61891C14.6709 9.65461 14.7161 9.68826 14.7589 9.72023C15.3053 7.71043 14.9297 5.46217 13.5635 3.69082C13.5294 3.65675 13.4952 3.62269 13.4952 3.58862C13.477 3.59318 13.4295 3.59469 13.3548 3.59706C12.8712 3.61243 11.2495 3.66396 9.08954 4.81495ZM12.9877 9.58617C13.0209 9.5642 13.0535 9.54068 13.0854 9.51561C13.1195 9.48155 13.1537 9.44748 13.0854 9.41342C13.7684 9.89032 14.2124 10.1969 14.4856 10.3672C14.4761 10.3926 14.4665 10.4179 14.4568 10.4431L12.9877 9.58617ZM10.6725 8.23561C10.6822 8.04562 10.7247 7.85662 10.7971 7.67613C9.90914 6.99484 8.98702 6.21135 8.09905 5.42787C7.51845 5.80258 6.9037 6.31355 6.2548 6.89264L6.01573 7.1311C6.35725 7.81239 6.3231 8.62993 5.91327 9.2431C5.98157 9.29419 6.04134 9.34528 6.1011 9.39638L6.10111 9.39639C6.16088 9.44748 6.22064 9.49858 6.28895 9.54968C6.93785 10.0606 7.58675 10.4694 8.16735 10.8101C8.42728 10.6516 8.71774 10.5785 9 10.5905V7.26001L10.6725 8.23561ZM9 13.3791C8.58511 13.3751 8.17541 13.1795 7.89496 12.8199C7.69005 12.5133 7.58759 12.1727 7.62174 11.832C6.93869 11.4914 6.25563 11.0826 5.57258 10.5376C5.47012 10.4524 5.3762 10.3758 5.28228 10.2991C5.18836 10.2225 5.09444 10.1458 4.99198 10.0607C4.6846 10.1969 4.34308 10.231 4.00155 10.231C3.52341 11.4914 3.4551 12.6496 3.52341 13.399C4.78706 14.455 6.39224 15 7.99742 15C8.33397 15 8.6688 14.9761 9 14.9283V13.3791Z" fill="#40B6E0" fill-opacity="0.7"/>
<path d="M16 12.5L10 9V16L16 12.5Z" fill="#62B543"/>
</svg>
