<svg width="16" height="16" viewBox="0 0 16 16" fill="none" xmlns="http://www.w3.org/2000/svg">
<path d="M2.5 11.3558V4.50644L8.49935 1.07632L14.5 4.52502V11.3977L8.50145 14.8273L2.5 11.3558Z" stroke="#389FD6"/>
<path d="M11.0609 7.95207C10.9546 7.95207 10.8531 7.96173 10.7564 7.98106C9.99284 6.99519 8.86682 6.33794 7.62965 6.16396L12.9891 3.06619L11.7423 2.35095L6.84191 5.18292C6.59061 4.99928 6.27649 4.88813 5.9382 4.88813C5.09247 4.88813 4.40623 5.57437 4.40623 6.4201C4.40623 7.26582 5.09247 7.95207 5.9382 7.95207C6.4263 7.95207 6.86608 7.7201 7.14638 7.36248C8.16608 7.42047 9.11329 7.91341 9.74154 8.70114C9.60623 8.92828 9.5289 9.19407 9.5289 9.4792C9.5289 9.53236 9.53374 9.59036 9.53857 9.64352L4.03894 12.8234L5.28095 13.5387L10.1572 10.7164C10.4085 10.9 10.7226 11.0112 11.0609 11.0112C11.9066 11.0112 12.5928 10.3249 12.5928 9.4792C12.5928 8.63831 11.9066 7.95207 11.0609 7.95207Z" fill="#40B6E0" fill-opacity="0.8"/>
</svg>
