<svg width="16" height="16" viewBox="0 0 16 16" fill="none" xmlns="http://www.w3.org/2000/svg">
<path fill-rule="evenodd" clip-rule="evenodd" d="M4.2 4.9L3 4L0 8L3 12L4.2 11.099L1.875 8L4.2 4.9Z" fill="#40B6E0" fill-opacity="0.8"/>
<path d="M7.2 7L11 7.5L5.6 15H4.8L7.188 9L4 8.5L7.2 1H12L7.2 7Z" fill="#F4AF3D" fill-opacity="0.7"/>
<path d="M16 13C16 14.6569 14.6569 16 13 16C11.3431 16 10 14.6569 10 13C10 11.3431 11.3431 10 13 10C14.6569 10 16 11.3431 16 13Z" fill="#62B543"/>
<path fill-rule="evenodd" clip-rule="evenodd" d="M13.3626 9.01621C13.9127 9.06564 14.4307 9.22643 14.8938 9.47586L16 8.001L13 4L11.8 4.901L14.125 8.001L13.3626 9.01621Z" fill="#40B6E0" fill-opacity="0.8"/>
</svg>
