<svg width="16" height="16" viewBox="0 0 16 16" fill="none" xmlns="http://www.w3.org/2000/svg">
<path d="M4 7L7 8.73205V12.1962L4 13.9282L1 12.1962V8.73205L4 7Z" fill="#62B543" fill-opacity="0.7"/>
<path d="M7.5 1L10.5 2.73205V6.19615L7.5 7.9282L4.5 6.19615V2.73205L7.5 1Z" fill="#62B543" fill-opacity="0.7"/>
<path fill-rule="evenodd" clip-rule="evenodd" d="M11.9231 7.53293L11 7L8 8.73205V10.3179C8.73046 8.81431 10.1924 7.73177 11.9231 7.53293Z" fill="#62B543" fill-opacity="0.7"/>
<path fill-rule="evenodd" clip-rule="evenodd" d="M15.0879 14.9541C14.6546 15.4144 14.0994 15.7416 13.4873 15.8974C12.8751 16.0532 12.2314 16.0312 11.6313 15.8339C11.0312 15.6367 10.4996 15.2724 10.0986 14.7836C9.69758 14.2949 9.4438 13.7018 9.36691 13.0739L10.3947 13.1638C10.4856 13.5807 10.689 13.9646 10.9826 14.2737C11.2763 14.5829 11.6489 14.8054 12.0601 14.917C12.4712 15.0287 12.9051 15.0252 13.3144 14.9069C13.7237 14.7887 14.0927 14.5602 14.3814 14.2464L13.2288 13.0929H16V15.8688L15.0879 14.9541ZM10.251 10.3829C10.681 9.92736 11.2305 9.60252 11.8365 9.44578C12.4425 9.28903 13.0803 9.30674 13.6767 9.49686C14.2731 9.68698 14.8038 10.0418 15.2079 10.5205C15.612 10.9993 15.8731 11.5825 15.9611 12.2032L14.9302 12.1133C14.83 11.7037 14.6207 11.329 14.3247 11.029C14.0288 10.7291 13.6571 10.5152 13.2494 10.4101C12.8417 10.3049 12.4131 10.3125 12.0094 10.432C11.6056 10.5515 11.2418 10.7785 10.9566 11.0887L12.1111 12.2452H9.33997V9.47031L10.251 10.3829Z" fill="#40B6E0"/>
</svg>
