<svg width="16" height="16" viewBox="0 0 16 16" fill="none" xmlns="http://www.w3.org/2000/svg">
<path opacity="0.7" d="M5 10.8799H3.272C1.992 10.5599 1 9.53592 1 8.22392C1 7.10392 1.704 6.11192 2.696 5.72792C2.696 5.59992 2.664 5.50392 2.664 5.37592C2.664 3.45592 4.2 1.91992 6.12 1.91992C7.176 1.91992 8.136 2.39992 8.808 3.19992C9.192 3.00792 9.64 2.91192 10.056 2.91192C11.3156 2.91192 12.4309 3.82884 12.782 4.99994H12.7838H5V10.8799Z" fill="#40B6E0"/>
<path fill-rule="evenodd" clip-rule="evenodd" d="M15 6H6V13H15V6ZM14 7H7V12H14V7Z" fill="#9AA7B0" fill-opacity="0.8"/>
<path d="M8 8H9V11H8V8Z" fill="#9AA7B0" fill-opacity="0.8"/>
<path d="M10 8H11V11H10V8Z" fill="#9AA7B0" fill-opacity="0.8"/>
<path d="M12 8H13V11H12V8Z" fill="#9AA7B0" fill-opacity="0.8"/>
</svg>
