<svg width="16" height="16" viewBox="0 0 16 16" fill="none" xmlns="http://www.w3.org/2000/svg">
<path d="M6.003 13.7359V6.26594C6.003 4.87894 7.711 4.01695 10.46 4.01695C10.946 4.01695 11.585 4.04895 12 4.09595V2.64195C12 1.77795 9.554 1.04395 6.747 1.04395C3.94 1.04395 2 1.77795 2 2.64195V13.1769C2 14.0549 3.825 14.7649 6.49 14.8089C6.183 14.5069 6.003 14.1509 6.003 13.7359ZM3.5 2.64195C3.5 2.16695 5.054 1.77795 6.954 1.77795C8.854 1.77795 10.365 2.16695 10.365 2.64195C10.365 3.11695 8.811 3.50595 6.954 3.50595C5.098 3.50595 3.5 3.11695 3.5 2.64195Z" fill="#40B6E0" fill-opacity="0.7"/>
<path fill-rule="evenodd" clip-rule="evenodd" d="M7.99893 6.35597C7.99893 6.65797 9.13893 6.95997 10.4989 6.95997C11.8149 6.95997 12.9989 6.65797 12.9989 6.35597C12.9989 6.05397 11.8589 5.75197 10.4989 5.75197C9.13893 5.75197 7.99893 6.01097 7.99893 6.35597ZM8.23134 13.9281L8.08593 14.171L8.32104 14.1724C8.39229 14.3503 8.47459 14.5226 8.56706 14.6884C7.58798 14.4863 7.00293 14.1287 7.00293 13.736V6.26597C7.00293 5.57597 8.43093 5.01697 10.4599 5.01697C12.4469 5.01697 13.9999 5.49197 13.9999 6.13897V8.25603C13.5308 8.09022 13.0259 8 12.5 8C12.4782 8 12.4563 8.00016 12.4346 8.00047L13.0169 7.04897L12.0329 7.19797L10.8325 8.31905C9.78403 8.73759 8.92987 9.53912 8.44293 10.5508L7.97693 10.986L8.25953 10.9902C8.09149 11.4621 8 11.9704 8 12.5C8 12.9992 8.08128 13.4794 8.23134 13.9281Z" fill="#40B6E0" fill-opacity="0.7"/>
<path fill-rule="evenodd" clip-rule="evenodd" d="M12.5 16C14.433 16 16 14.433 16 12.5C16 10.567 14.433 9 12.5 9C10.567 9 9 10.567 9 12.5C9 14.433 10.567 16 12.5 16ZM10.7322 11.4393L11.4393 10.7322L12.5 11.7929L13.5607 10.7323L14.2678 11.4394L13.2071 12.5L14.2678 13.5607L13.5607 14.2678L12.5 13.2071L11.4393 14.2678L10.7322 13.5607L11.7929 12.5L10.7322 11.4393Z" fill="#E05555"/>
</svg>
