<svg width="16" height="16" viewBox="0 0 16 16" fill="none" xmlns="http://www.w3.org/2000/svg">
<path d="M6.003 13.7359V6.26594C6.003 4.87894 7.711 4.01695 10.46 4.01695C10.946 4.01695 11.585 4.04895 12 4.09595V2.64195C12 1.77795 9.554 1.04395 6.747 1.04395C3.94 1.04395 2 1.77795 2 2.64195V13.1769C2 14.0549 3.825 14.7649 6.49 14.8089C6.183 14.5069 6.003 14.1509 6.003 13.7359ZM3.5 2.64195C3.5 2.16695 5.054 1.77795 6.954 1.77795C8.854 1.77795 10.365 2.16695 10.365 2.64195C10.365 3.11695 8.811 3.50595 6.954 3.50595C5.098 3.50595 3.5 3.11695 3.5 2.64195Z" fill="#40B6E0" fill-opacity="0.7"/>
<path fill-rule="evenodd" clip-rule="evenodd" d="M7.99893 6.35597C7.99893 6.65797 9.13893 6.95997 10.4989 6.95997C11.8149 6.95997 12.9989 6.65797 12.9989 6.35597C12.9989 6.05397 11.8589 5.75197 10.4989 5.75197C9.13893 5.75197 7.99893 6.01097 7.99893 6.35597ZM9.97493 11.016L8.08593 14.171L9.04993 14.177L10.562 12.5246L11.875 13.75V14.7716C11.4492 14.8292 10.9731 14.861 10.4599 14.861C8.38693 14.861 7.00293 14.34 7.00293 13.736V6.26597C7.00293 5.57597 8.43093 5.01697 10.4599 5.01697C12.4469 5.01697 13.9999 5.49197 13.9999 6.13897V7.53587C13.8353 7.51212 13.6683 7.5 13.5 7.5C13.222 7.5 12.9474 7.53307 12.6815 7.59704L13.0169 7.04897L12.0329 7.19797L7.97693 10.986L9.97493 11.016Z" fill="#40B6E0" fill-opacity="0.7"/>
<path d="M12.875 16H14.125V14.75H12.875V16ZM13.5 8.5C12.837 8.5 12.2011 8.76339 11.7322 9.23223C11.2634 9.70107 11 10.337 11 11H12.25C12.25 10.312 12.813 9.75 13.5 9.75C14.188 9.75 14.75 10.313 14.75 11C14.75 12.25 12.875 12.094 12.875 14.125H14.125C14.125 12.719 16 12.562 16 11C16 10.337 15.7366 9.70107 15.2678 9.23223C14.7989 8.76339 14.163 8.5 13.5 8.5Z" fill="#AFB1B3"/>
</svg>
