<svg width="16" height="16" viewBox="0 0 16 16" fill="none" xmlns="http://www.w3.org/2000/svg">
<path fill-rule="evenodd" clip-rule="evenodd" d="M14 12H16L13 9L10 12H12V16H14V12Z" fill="#40B6E0"/>
<path fill-rule="evenodd" clip-rule="evenodd" d="M1 7.06667H7.06667V1H1V7.06667ZM6.05556 6.05556H2.01111V2.01111H6.05556V6.05556ZM7.93333 7.06667H14V1H7.93333V7.06667ZM12.9889 6.05556H8.94444V2.01111H12.9889V6.05556ZM11 14V13H7.93333V14H11ZM7.93333 12.6525V7.93333H12.6525L11.6414 8.94444H8.94444V11.6414L7.93333 12.6525ZM13.3475 7.93333H14V8.58579L13.3475 7.93333ZM1 14H7.06667V7.93333H1V14ZM6.05556 12.9889H2.01111V8.94444H6.05556V12.9889Z" fill="#529FDB"/>
<path fill-rule="evenodd" clip-rule="evenodd" d="M11.0388 3.67218C11.5444 5.15274 11.8333 6.41663 11.8333 7.42774V7.49996C11.8333 8.03974 11.7333 8.55729 11.5508 9.035L9.035 11.5508C8.55729 11.7333 8.03974 11.8333 7.49996 11.8333C5.11663 11.8333 3.16663 9.88329 3.16663 7.49996C3.16663 5.11663 5.11663 3.16663 7.49996 3.16663C8.69163 3.16663 9.77496 3.63607 10.6055 4.43051C10.6213 4.40687 10.6375 4.3828 10.654 4.35829C10.7885 4.15825 10.9423 3.92955 11.0388 3.67218Z" fill="#62B543"/>
<path d="M11.0028 9.44991C9.91943 10.8582 7.64443 10.3888 6.19999 10.461C6.19999 10.461 5.94721 10.461 5.69443 10.4971C5.69443 10.4971 5.80276 10.461 5.9111 10.4249C6.92221 10.0638 7.42776 9.99158 8.04165 9.66658C9.23332 9.05269 10.3889 7.75269 10.6055 6.38047C10.1722 7.71658 8.79999 8.83602 7.57221 9.26936C6.74165 9.59436 5.18888 9.88325 5.18888 9.88325L5.11665 9.84714C4.06943 9.34158 4.03332 7.06658 5.9111 6.34436C6.74165 6.01936 7.5361 6.19991 8.43888 5.98325C9.41388 5.73047 10.4972 5.04436 10.9667 4.10547C11.5083 5.65825 12.0861 8.00547 11.0028 9.44991Z" fill="white"/>
<path d="M4.89999 10.8583C5.09943 10.8583 5.2611 10.6967 5.2611 10.4972C5.2611 10.2978 5.09943 10.1361 4.89999 10.1361C4.70055 10.1361 4.53888 10.2978 4.53888 10.4972C4.53888 10.6967 4.70055 10.8583 4.89999 10.8583Z" fill="white"/>
</svg>
