<svg width="16" height="16" viewBox="0 0 16 16" fill="none" xmlns="http://www.w3.org/2000/svg">
<path fill-rule="evenodd" clip-rule="evenodd" d="M7.00001 2H5.00001V4H7.00001V2ZM2.00001 5H4.00001V7H2.00001V5ZM5.00001 5H7.00001V7H5.00001V5ZM12.873 7.112L13 7.212L12.947 7.367C12.9269 7.41784 12.9042 7.46748 12.879 7.51574C12.754 7.50532 12.6276 7.5 12.5 7.5C10.0147 7.5 8 9.51472 8 12C8 12.2131 8.01481 12.4227 8.04346 12.6279C7.4596 12.933 6.83281 13.1489 6.18401 13.268C5.66525 13.3643 5.13862 13.4118 4.61101 13.41C3.44301 13.41 2.94101 13.279 2.12601 12.89C1.31101 12.502 0.821009 11.861 0.381009 10.865C0.0880091 10.2 -0.0359908 9.245 0.0100092 7.998H9.00601C9.11001 7.994 9.62301 7.95 9.94201 7.772C9.67701 7.354 9.60201 6.864 9.72601 6.343C9.79105 6.07027 9.90196 5.81057 10.054 5.575L10.176 5.4L10.361 5.507L10.3625 5.50788C10.4117 5.53752 11.1506 5.98271 11.282 6.884C11.462 6.854 11.642 6.839 11.825 6.838C12.513 6.838 12.838 7.084 12.873 7.112ZM3.86001 11.2C4.19153 11.2 4.50947 11.0683 4.74389 10.8339C4.97831 10.5995 5.11001 10.2815 5.11001 9.95C5.11001 9.61848 4.97831 9.30054 4.74389 9.06612C4.50947 8.8317 4.19153 8.7 3.86001 8.7C3.52849 8.7 3.21055 8.8317 2.97613 9.06612C2.7417 9.30054 2.61001 9.61848 2.61001 9.95C2.61001 10.2815 2.7417 10.5995 2.97613 10.8339C3.21055 11.0683 3.52849 11.2 3.86001 11.2ZM4.86001 9.95C4.86001 10.5023 4.41229 10.95 3.86001 10.95C3.30772 10.95 2.86001 10.5023 2.86001 9.95C2.86001 9.39772 3.30772 8.95 3.86001 8.95C4.41229 8.95 4.86001 9.39772 4.86001 9.95Z" fill="#34A2F2"/>
<path fill-rule="evenodd" clip-rule="evenodd" d="M15.073 12.378L15.843 12.916C15.6951 13.3596 15.4541 13.7663 15.136 14.109L14.273 13.729C14.0235 13.9432 13.7344 14.1063 13.422 14.209L13.328 15.128C12.862 15.2246 12.3811 15.2246 11.915 15.128L11.821 14.209C11.5083 14.1064 11.2189 13.9433 10.969 13.729L10.106 14.109C9.78833 13.7662 9.54762 13.3595 9.40002 12.916L10.17 12.378C10.1056 12.0626 10.1056 11.7375 10.17 11.422L9.40002 10.884C9.54802 10.437 9.79102 10.032 10.106 9.69104L10.969 10.071C11.215 9.86004 11.504 9.69504 11.821 9.59104L11.915 8.67204C12.3811 8.57547 12.862 8.57547 13.328 8.67204L13.422 9.59104C13.739 9.69504 14.027 9.86004 14.272 10.071L15.136 9.69104C15.451 10.032 15.694 10.437 15.842 10.884L15.072 11.422C15.1364 11.7375 15.1364 12.0626 15.072 12.378H15.073ZM12.621 13.068C13.283 13.068 13.819 12.545 13.819 11.9C13.819 11.255 13.283 10.732 12.621 10.732C11.96 10.732 11.423 11.255 11.423 11.9C11.423 12.545 11.96 13.068 12.621 13.068Z" fill="#9AA7B0"/>
</svg>
