<svg width="16" height="16" viewBox="0 0 16 16" fill="none" xmlns="http://www.w3.org/2000/svg">
<path d="M9.19802 14.9L10 14.1091V13H6V14.1091L6.80198 14.9C6.84988 14.9527 6.91651 14.9881 6.9901 15H8.9703C9.01369 14.9985 9.0563 14.9889 9.09547 14.9717C9.13465 14.9545 9.16955 14.9301 9.19802 14.9Z" fill="#9AA7B0" fill-opacity="0.8"/>
<path fill-rule="evenodd" clip-rule="evenodd" d="M8 1.00025C7.29753 0.993302 6.60159 1.13295 5.95845 1.40991C5.31531 1.68687 4.7397 2.0948 4.26988 2.60658C3.80005 3.11836 3.44678 3.72227 3.23355 4.37816C3.02031 5.03405 2.95199 5.72691 3.03313 6.41068C3.14474 7.41112 3.72701 8.1486 4.35695 8.94646C5.00778 9.77077 5.7095 10.6595 5.99563 11.9693C5.99806 11.9797 6.00091 11.9899 6.00414 12H9.99586C9.9991 11.9899 10.0019 11.9797 10.0044 11.9693C10.2913 10.6558 10.9919 9.7657 11.6422 8.93939C12.268 8.14424 12.8474 7.40817 12.9669 6.41068C13.048 5.72691 12.9797 5.03405 12.7665 4.37816C12.5532 3.72227 12.1999 3.11836 11.7301 2.60658C11.2603 2.0948 10.6847 1.68687 10.0416 1.40991C9.39841 1.13295 8.70247 0.993302 8 1.00025ZM5 5C5 5.55228 5.44772 6 6 6V7V10H7V7H9V10H10V7V6C10.5523 6 11 5.55228 11 5C11 4.44772 10.5523 4 10 4C9.44771 4 9 4.44772 9 5V6H7V5C7 4.44772 6.55228 4 6 4C5.44772 4 5 4.44772 5 5Z" fill="#B99BF8"/>
</svg>
